<svg width="129" height="69" viewBox="0 0 129 69" fill="none" xmlns="http://www.w3.org/2000/svg">
<path d="M18.4498 49.1741L3.30128 40.4006C2.67731 40.039 2.29297 39.3724 2.29297 38.6513V20.3904L18.4498 5.45369V49.1741Z" fill="#5F8A6C"/>
<path opacity="0.8" d="M31.4216 65C19.7871 63.0405 20.5181 50.0984 20.5268 49.968L20.5262 49.7962L19.1257 48.9854L34.1373 40.5151C34.6825 40.2077 35.0197 39.6304 35.0197 39.0046V20.5913L18.9961 6.15999L20.0312 7.0374L20.8611 6.26992L37.4311 21.2073V39.1423C37.4311 40.0632 36.935 40.9128 36.133 41.3658L21.1965 49.8009V49.9903C21.1936 50.0439 21.002 53.188 22.1907 56.5133C23.7687 60.9277 26.9123 63.5608 31.5328 64.3389L31.4216 65Z" fill="#C2C3C1"/>
<path d="M18.4355 49.1741V49.1657L18.4429 49.1699L18.4355 49.1741ZM18.45 49.166V5.46711L18.9964 5.9591L18.6565 5.67088L18.45 5.89809V48.3928L19.126 48.7845L18.45 49.166ZM18.4355 5.46711V5.45369L18.4429 5.4604L18.4355 5.46711Z" fill="#5F8A6C"/>
<path d="M18.4429 49.1699L18.4355 49.1657V5.46711L18.4429 5.46041L18.45 5.46711V49.166L18.4429 49.1699Z" fill="#274730"/>
<path d="M19.1253 48.7844L18.4492 48.3927V5.89801L18.6558 5.6708L18.9956 5.95901L35.0192 20.3903V38.8036C35.0192 39.4294 34.682 40.0067 34.1369 40.3141L19.1253 48.7844Z" fill="#4A6B56"/>
<path opacity="0.8" d="M18.449 5.4537L18.2215 5.20771L1.95703 20.2443V38.2243C1.95703 39.3295 2.54561 40.3506 3.50211 40.9047L18.4469 49.5603L33.8858 40.8413C34.7931 40.3289 35.3542 39.368 35.3542 38.3259V20.2416L18.4461 4.99992L18.2215 5.20771L18.449 5.4537L18.2246 5.70305L34.6839 20.5399V38.3259C34.6839 39.1261 34.2529 39.8644 33.5562 40.2577L18.4511 48.7879L3.838 40.3245C3.08868 39.8906 2.62732 39.0902 2.62732 38.2243V20.5372L18.6765 5.6997L18.449 5.4537Z" fill="white"/>
<path opacity="0.8" d="M2.2207 20.5425L18.4477 28.1628L35.0884 20.5432L34.9489 20.2382L18.4496 27.7934L2.36314 20.2389L2.2207 20.5425Z" fill="white"/>
<path opacity="0.8" d="M18.114 5.45369V49.1741H18.4492L18.1148 49.1515C18.1143 49.1584 18.0996 49.3796 18.0996 49.765C18.1009 51.0593 18.2609 54.2026 19.7028 57.2707C21.1382 60.3375 23.9065 63.3305 29.0096 64.1838L29.1209 63.5227C24.2403 62.6945 21.6932 59.9091 20.3095 56.9853C18.932 54.0622 18.7686 51.0024 18.7699 49.765C18.7699 49.5809 18.7733 49.4372 18.7767 49.3401C18.7804 49.2432 18.7835 49.1966 18.7835 49.1963L18.7843 49.1853V27.9783V5.45369H18.114Z" fill="white"/>
<path opacity="0.8" d="M23.6779 16.4599L18.3125 18.9795L18.4549 19.2825L23.8203 16.7629" fill="white"/>
<path opacity="0.8" d="M18.4607 38.19L11.2341 34.5043L11.082 34.803L18.3083 38.4885" fill="white"/>
<path d="M46.7742 30.7254C46.9287 30.6036 47.0828 30.6036 47.2373 30.7254L47.3465 30.822L47.3591 32.4412L47.3705 34.073L47.5901 34.0482C48.2712 33.9676 48.8759 33.9138 49.4028 33.8898C49.7031 33.8739 49.8941 33.8856 49.9751 33.9264C50.081 33.9751 50.144 34.0524 50.1641 34.1578C50.1839 34.2632 50.1578 34.364 50.0852 34.4618C50.06 34.4942 49.9877 34.5211 49.866 34.5403C49.7442 34.5609 49.4112 34.592 48.8675 34.6319C48.1212 34.6974 47.6551 34.7414 47.4683 34.7663L47.3222 34.791L47.3339 35.8613C47.3423 36.3485 47.3549 36.6731 47.3705 36.8356C47.3872 36.9977 47.4158 37.1808 47.4557 37.3828C47.5615 37.8299 47.7076 38.2234 47.8945 38.5639C47.9512 38.6693 48.0478 38.8133 48.1864 38.9952C48.3237 39.1779 48.4299 39.3026 48.5021 39.3673C48.649 39.5045 48.6889 39.6553 48.6239 39.8174C48.5672 39.9392 48.4496 40 48.2712 40C48.1906 40 48.0884 39.9345 47.9668 39.8048C47.399 39.1963 47.0177 38.5027 46.8224 37.7233C46.7007 37.2698 46.6411 36.6365 46.6411 35.8248V34.8758L46.2387 34.8511C45.9629 34.8351 45.7803 34.807 45.6908 34.7663C45.5774 34.7092 45.506 34.6286 45.4779 34.5231C45.4494 34.4178 45.4758 34.3198 45.5576 34.2308L45.734 34.1343C45.8021 34.1255 45.9869 34.1343 46.2871 34.1578L46.6411 34.1943L46.6524 32.502L46.665 30.822L46.7742 30.7254Z" fill="white"/>
<path d="M51.9108 33.1833C51.9591 33.1102 52.041 33.0737 52.1544 33.0737C52.3483 33.0737 52.4617 33.1514 52.4945 33.3051C52.5113 33.4029 52.5553 33.8652 52.6289 34.6929C52.6611 35.0011 52.6855 35.1636 52.7023 35.1795L52.7443 35.1678L52.7989 35.0817C52.9291 34.8226 53.123 34.5468 53.3834 34.2554C53.8705 33.6952 54.3451 33.3479 54.8069 33.2148C55.2701 33.0804 55.6677 33.1716 56.0008 33.4877C56.1948 33.6662 56.3186 33.8426 56.3711 34.0177C56.4235 34.1919 56.3933 34.3195 56.28 34.4014C56.0616 34.5627 55.8496 34.4732 55.6468 34.134C55.5179 33.9135 55.3549 33.8165 55.1609 33.8413C54.8523 33.8736 54.4954 34.1003 54.0889 34.5228C53.8537 34.7583 53.6513 35.0175 53.4812 35.3013C53.2701 35.6259 53.123 36.0236 53.0424 36.4943C52.9614 36.9655 52.9291 37.6105 52.9446 38.4293L52.9572 39.3539L52.8481 39.4518C52.7023 39.5743 52.5478 39.5743 52.3853 39.4518L52.2875 39.3304C52.2719 39.2893 52.2551 39.2002 52.2392 39.0625C52.2223 38.8432 52.2152 38.5346 52.2152 38.1383C52.2152 37.521 52.1417 36.5879 51.9956 35.3379C51.8982 34.4296 51.8458 33.864 51.8373 33.6401C51.8297 33.4168 51.8541 33.2652 51.9108 33.1833Z" fill="white"/>
<path d="M60.7588 33.5128C60.7265 33.4721 60.653 33.4514 60.5395 33.4514C60.3115 33.4514 60.0722 33.59 59.8216 33.8655C59.6262 34.0683 59.4339 34.3631 59.2429 34.7477C59.0531 35.1336 58.9166 35.4842 58.8356 35.8005C58.7949 35.9637 58.7823 36.0529 58.799 36.0692C58.8146 36.0851 58.9145 36.0646 59.0971 36.0079C59.2799 35.9507 59.4235 35.8937 59.5297 35.837C59.6346 35.7807 59.7586 35.6875 59.9 35.5573C60.042 35.4284 60.1134 35.3423 60.1134 35.3016L60.1499 35.2293C60.1659 35.2293 60.2213 35.1479 60.3137 34.9854C60.4073 34.8229 60.4829 34.6814 60.5395 34.5596C60.653 34.3156 60.7307 34.0944 60.7706 33.8953C60.8113 33.6975 60.8071 33.5699 60.7588 33.5128ZM60.3443 32.7582C60.4829 32.7334 60.6488 32.7473 60.844 32.8011C61.038 32.8539 61.1799 32.9278 61.2702 33.0256C61.3341 33.0987 61.3878 33.1945 61.4277 33.3117C61.4684 33.43 61.4844 33.59 61.4768 33.792C61.4684 33.9952 61.4319 34.1854 61.3668 34.364C61.3186 34.5189 61.2375 34.7112 61.1233 34.9425C61.0098 35.1735 60.9162 35.3498 60.844 35.4725L60.7768 35.5636L60.7096 35.6606L60.6739 35.7152C60.6412 35.7807 60.5353 35.8937 60.3569 36.0562C60.1625 36.2594 59.9202 36.4282 59.6326 36.5613C59.3449 36.6957 59.0792 36.7625 58.8356 36.7625H58.6773L58.653 36.9451C58.629 37.0505 58.629 37.2491 58.653 37.5405C58.6928 37.963 58.7949 38.2738 58.9574 38.4727C59.1191 38.6714 59.3542 38.7822 59.6628 38.8071C60.3044 38.8566 60.9658 38.3652 61.6469 37.3343C61.8338 37.0589 61.9535 36.8721 62.0059 36.7742C62.0584 36.6772 62.1214 36.5357 62.1949 36.3485C62.2515 36.1948 62.3062 36.0906 62.3586 36.0377C62.4112 35.9852 62.4909 35.9591 62.5959 35.9591C62.6938 35.9591 62.7744 35.9936 62.8395 36.0624C62.9045 36.1313 62.9289 36.2153 62.913 36.3119C62.8722 36.6365 62.6526 37.0904 62.2557 37.6749C62.0449 37.9835 61.9316 38.1456 61.9148 38.1621L61.8665 38.2469C61.8665 38.2716 61.7519 38.3951 61.5251 38.6176C61.2984 38.8415 61.1316 38.9939 61.0267 39.0745C60.7336 39.2853 60.4052 39.4239 60.0408 39.4885C59.8454 39.5292 59.6473 39.5292 59.4445 39.4885C58.9901 39.3915 58.6446 39.1963 58.4094 38.9049C58.3443 38.8318 58.273 38.7058 58.1965 38.5274C58.1197 38.3489 58.0609 38.1868 58.0201 38.0407C57.9391 37.7072 57.9201 37.2882 57.9655 36.7805C58.0096 36.2732 58.1091 35.7853 58.2637 35.3141C58.3287 35.1026 58.4274 34.8531 58.5618 34.5651C58.6949 34.277 58.8116 34.0607 58.9083 33.9138C59.0057 33.7849 59.0552 33.7113 59.0552 33.6954C59.0552 33.6706 59.1253 33.5858 59.2673 33.4397C59.4101 33.2936 59.5326 33.1793 59.6389 33.0987C59.7124 33.0344 59.8236 32.9656 59.9736 32.8912C60.1238 32.8183 60.2478 32.7742 60.3443 32.7582Z" fill="white"/>
<path d="M67.2822 33.5128C67.2498 33.4721 67.1764 33.4514 67.063 33.4514C66.835 33.4514 66.5956 33.59 66.3449 33.8655C66.1497 34.0683 65.9574 34.3631 65.7663 34.7477C65.5765 35.1336 65.44 35.4842 65.3589 35.8005C65.3183 35.9637 65.3056 36.0529 65.3225 36.0692C65.338 36.0851 65.4379 36.0646 65.6206 36.0079C65.8032 35.9507 65.9468 35.8937 66.0531 35.837C66.1581 35.7807 66.2819 35.6875 66.4235 35.5573C66.5654 35.4284 66.6367 35.3423 66.6367 35.3016L66.6733 35.2293C66.6892 35.2293 66.7447 35.1479 66.837 34.9854C66.9308 34.8229 67.0063 34.6814 67.063 34.5596C67.1764 34.3156 67.254 34.0944 67.2939 33.8953C67.3346 33.6975 67.3304 33.5699 67.2822 33.5128ZM66.8678 32.7582C67.0063 32.7334 67.1722 32.7473 67.3674 32.8011C67.5614 32.8539 67.7033 32.9278 67.7936 33.0256C67.8575 33.0987 67.9112 33.1945 67.9511 33.3117C67.9919 33.43 68.0078 33.59 68.0003 33.792C67.9919 33.9952 67.9553 34.1854 67.8902 34.364C67.8419 34.5189 67.7609 34.7112 67.6467 34.9425C67.5333 35.1735 67.4396 35.3498 67.3674 35.4725L67.3002 35.5636L67.233 35.6606L67.1973 35.7152C67.1646 35.7807 67.0588 35.8937 66.8803 36.0562C66.6859 36.2594 66.4436 36.4282 66.156 36.5613C65.8684 36.6957 65.6025 36.7625 65.3589 36.7625H65.2007L65.1763 36.9451C65.1524 37.0505 65.1524 37.2491 65.1763 37.5405C65.2162 37.963 65.3183 38.2738 65.4807 38.4727C65.6424 38.6714 65.8776 38.7822 66.1862 38.8071C66.8279 38.8566 67.4892 38.3652 68.1703 37.3343C68.3571 37.0589 68.4768 36.8721 68.5294 36.7742C68.5818 36.6772 68.6448 36.5357 68.7182 36.3485C68.775 36.1948 68.8296 36.0906 68.8821 36.0377C68.9345 35.9852 69.0143 35.9591 69.1193 35.9591C69.2171 35.9591 69.2977 35.9936 69.3629 36.0624C69.4279 36.1313 69.4523 36.2153 69.4363 36.3119C69.3956 36.6365 69.176 37.0904 68.7792 37.6749C68.5684 37.9835 68.455 38.1456 68.4382 38.1621L68.3899 38.2469C68.3899 38.2716 68.2752 38.3951 68.0485 38.6176C67.8218 38.8415 67.6551 38.9939 67.55 39.0745C67.257 39.2853 66.9286 39.4239 66.5641 39.4885C66.3689 39.5292 66.1706 39.5292 65.9679 39.4885C65.5135 39.3915 65.1679 39.1963 64.9328 38.9049C64.8677 38.8318 64.7963 38.7058 64.7198 38.5274C64.643 38.3489 64.5842 38.1868 64.5436 38.0407C64.4625 37.7072 64.4436 37.2882 64.4889 36.7805C64.533 36.2732 64.6326 35.7853 64.787 35.3141C64.8522 35.1026 64.9509 34.8531 65.0852 34.5651C65.2183 34.277 65.3351 34.0607 65.4316 33.9138C65.5291 33.7849 65.5785 33.7113 65.5785 33.6954C65.5785 33.6706 65.6487 33.5858 65.7906 33.4397C65.9334 33.2936 66.056 33.1793 66.1623 33.0987C66.2358 33.0344 66.347 32.9656 66.4969 32.8912C66.6473 32.8183 66.7711 32.7742 66.8678 32.7582Z" fill="white"/>
<path d="M71.4193 30.0323C71.5735 29.9676 71.7079 30 71.8213 30.1289C71.8611 30.1784 71.8863 30.2632 71.8938 30.3846C71.9023 30.5064 71.9065 30.9124 71.9065 31.6028C71.9065 32.5346 71.8821 33.3181 71.833 33.9514C71.7847 34.5598 71.7603 34.9407 71.7603 35.0952V35.2652L71.8213 35.107C71.9191 34.8878 72.0156 34.6816 72.1131 34.4867C72.4943 33.7162 72.8681 33.2249 73.2334 33.0141C73.3552 32.941 73.4946 32.9024 73.6533 32.8982C73.8107 32.8936 73.9431 32.9251 74.0488 32.9894C74.2916 33.1443 74.4436 33.4474 74.5045 33.9023C74.5654 34.3565 74.5675 35.1846 74.5107 36.3851C74.4541 37.5449 74.4667 38.3243 74.5477 38.7225C74.5876 38.8921 74.6086 39.0223 74.6086 39.1113C74.6086 39.2737 74.5255 39.3737 74.3587 39.4102C74.1929 39.4455 74.069 39.3917 73.988 39.2456C73.9389 39.1642 73.8948 39.0265 73.8536 38.832C73.7562 38.402 73.752 37.3506 73.841 35.6802C73.9061 34.2999 73.841 33.6108 73.647 33.6108C73.5987 33.6108 73.5084 33.675 73.3791 33.8052C73.2489 33.9342 73.1439 34.0644 73.0621 34.1944C72.8437 34.5426 72.6266 34.9931 72.4112 35.5458C72.1962 36.0971 72.0156 36.6573 71.8695 37.225C71.7721 37.5987 71.71 37.8998 71.6818 38.132C71.6524 38.3634 71.6385 38.6611 71.6385 39.0265C71.6385 39.4812 71.6188 39.7402 71.5777 39.805L71.4559 39.9338L71.2732 39.9636C71.1758 39.9636 71.1053 39.9393 71.0604 39.8906C71.0162 39.8424 70.973 39.7563 70.9323 39.6349C70.9008 39.5294 70.8818 39.3531 70.8777 39.1062C70.8735 38.8589 70.8882 38.633 70.9205 38.4297C70.9448 38.2437 70.9688 37.6634 70.9932 36.6896C71.0255 35.6672 71.0624 34.8554 71.1032 34.2558C71.1598 33.615 71.1968 32.7832 71.2124 31.7607C71.2292 30.7533 71.2577 30.2108 71.2976 30.1289L71.4193 30.0323Z" fill="white"/>
<path d="M78.9533 33.2207C78.7665 33.1401 78.5817 33.1271 78.4004 33.1837C78.2177 33.2408 78.0568 33.3593 77.9195 33.5364C77.6109 33.9589 77.3715 34.5447 77.2015 35.2963C77.0302 36.0467 76.9818 36.7261 77.0545 37.3346C77.1113 37.7398 77.2371 38.0568 77.4325 38.2837C77.6265 38.5117 77.8742 38.6245 78.1744 38.6245C78.4012 38.6245 78.6103 38.5192 78.8013 38.3084C78.9925 38.0976 79.1487 37.7965 79.2705 37.4077C79.4564 36.8067 79.5362 36.1047 79.5077 35.3018C79.4783 34.4986 79.3557 33.9266 79.1361 33.586L79.0995 33.3916L79.0815 33.3001L78.9533 33.2207ZM78.4788 32.4539C78.6489 32.4292 78.8581 32.4594 79.1058 32.5455C79.3536 32.6304 79.5383 32.7378 79.6601 32.868C79.7408 32.957 79.8091 33.0692 79.8666 33.2022C79.9234 33.3366 79.9519 33.4558 79.9519 33.5613C79.9519 33.6838 79.9717 33.801 80.0128 33.914C80.1102 34.1902 80.1724 34.6244 80.2005 35.2165C80.2291 35.8091 80.2068 36.3121 80.1346 36.7261C79.9801 37.6924 79.6882 38.3974 79.2578 38.8437C78.8203 39.2897 78.3004 39.4241 77.6999 39.2456C77.3023 39.1402 76.9818 38.8941 76.7384 38.5095C76.4948 38.1236 76.3575 37.6504 76.3247 37.0906C76.2923 36.5065 76.3365 35.9434 76.4582 35.3996C76.58 34.8394 76.7753 34.2516 77.0428 33.6344C77.0827 33.5364 77.154 33.4139 77.2561 33.2635C77.3569 33.1132 77.4438 32.9982 77.5173 32.9163C77.7684 32.6647 78.0896 32.511 78.4788 32.4539Z" fill="white"/>
<path d="M85.7466 32.4293L85.9411 32.3562L86.172 32.4242L86.3304 32.5758C86.3714 32.6564 86.3934 32.9474 86.3975 33.4463C86.4017 33.9451 86.387 34.4255 86.3546 34.8879C86.3064 35.4564 86.282 36.138 86.282 36.9336L86.2694 38.1871L86.3799 38.6007C86.4437 38.8362 86.4743 39.0038 86.471 39.1063C86.4668 39.207 86.4282 39.2823 86.3546 39.331C86.2497 39.3964 86.1456 39.4103 86.0447 39.3737C85.9431 39.3372 85.8642 39.2532 85.8075 39.1243C85.6689 38.7825 85.5925 38.1946 85.5757 37.3594L85.5514 36.397L85.4057 36.7876C85.3813 36.8442 85.312 37.0185 85.1986 37.3108C85.1748 37.4002 85.0928 37.5744 84.9551 37.8331C84.8178 38.0934 84.7157 38.2761 84.6507 38.3815C84.5785 38.4869 84.4701 38.6171 84.3286 38.7708C84.1866 38.9253 84.0712 39.0353 83.9822 39.0995C83.7218 39.2781 83.4581 39.3351 83.1907 39.2696C82.7526 39.1801 82.4356 38.8321 82.2416 38.2236C82.1514 37.9474 82.0913 37.5035 82.0589 36.8904C82.0263 36.2777 82.0305 35.6919 82.0703 35.1318C82.103 34.7182 82.1228 34.1903 82.1312 33.5495C82.1479 33.0948 82.1598 32.8206 82.1682 32.7269L82.2416 32.5153C82.3054 32.4414 82.3894 32.4057 82.4902 32.4057C82.5922 32.4057 82.675 32.4456 82.74 32.5271L82.8379 32.6366L82.8253 33.6462C82.8094 34.402 82.7841 35.0062 82.7526 35.4597C82.7119 36.2067 82.7296 36.8656 82.8072 37.4375C82.8841 38.0095 82.9995 38.3685 83.1537 38.515C83.3565 38.686 83.624 38.5688 83.9569 38.1623C84.1522 37.9192 84.3693 37.5055 84.6087 36.9206C84.8481 36.3369 85.0601 35.6961 85.2469 34.9974C85.4338 34.2911 85.5471 33.8191 85.5883 33.5798C85.629 33.3409 85.6366 33.1402 85.6123 32.9776C85.5883 32.8227 85.5841 32.7102 85.6009 32.6366L85.7466 32.4293Z" fill="white"/>
<path d="M90.3463 32.6362C90.7842 32.4901 91.2344 32.4947 91.6975 32.6485C92.3304 32.8676 92.7355 33.2728 92.9141 33.8653C92.9791 34.0845 92.9707 34.2424 92.8901 34.3403C92.7767 34.4863 92.6381 34.5145 92.4765 34.4251C92.403 34.3843 92.3304 34.2672 92.2569 34.0728C92.1352 33.7477 91.9244 33.5084 91.6241 33.3547L91.3805 33.2686C91.3155 33.2611 91.1946 33.2569 91.016 33.2569C90.7556 33.2569 90.5533 33.2934 90.4071 33.3664C90.172 33.4803 90.0011 33.634 89.8961 33.8284C89.7899 34.0232 89.7617 34.2306 89.8108 34.4498C89.8352 34.5628 89.8793 34.6564 89.9445 34.7295C90.0747 34.8681 90.3547 34.9811 90.7842 35.0701C91.1411 35.1432 91.4255 35.2292 91.6367 35.3262C91.8475 35.424 92.0461 35.5655 92.233 35.7516C92.6306 36.1497 92.8293 36.6569 92.8293 37.2729C92.8293 37.7038 92.7313 38.1047 92.5374 38.4789C92.4555 38.6326 92.3954 38.7401 92.3547 38.8001C92.3136 38.8614 92.2246 38.9614 92.0868 39.0991C91.7131 39.4968 91.2995 39.6786 90.8452 39.6462C90.2371 39.598 89.7176 39.2776 89.2872 38.6855C89.1823 38.523 89.1297 38.4314 89.1297 38.4113C89.1297 38.3908 89.1004 38.3285 89.0437 38.2232C88.9543 38.0283 88.9059 37.789 88.8975 37.5051C88.8892 37.2213 88.9303 36.9857 89.0193 36.7988C89.0437 36.7506 89.0887 36.6481 89.1537 36.4944L89.3112 36.2634L89.5064 36.1421C89.726 36.0849 89.8718 36.129 89.9445 36.2752C90.0251 36.4213 90.0053 36.5633 89.8835 36.701C89.729 36.8803 89.6324 37.0945 89.5917 37.346C89.5833 37.4513 89.598 37.5963 89.6346 37.778C89.6702 37.9608 89.7176 38.0846 89.7744 38.1501L89.8478 38.2714C89.8478 38.3362 89.9507 38.4499 90.1573 38.612C90.3644 38.7745 90.5289 38.8757 90.6507 38.9164C90.8452 38.9735 91.0098 38.9811 91.1433 38.9413C91.2777 38.9005 91.4255 38.7951 91.5884 38.6241C91.7907 38.4218 91.9453 38.1577 92.0502 37.8326C92.1637 37.4934 92.1784 37.1621 92.0931 36.8416C92.007 36.5204 91.8391 36.271 91.5884 36.0926C91.4171 35.9712 91.0602 35.8452 90.5164 35.715C90.0221 35.5937 89.6681 35.4282 89.4581 35.2161C89.3196 35.0701 89.2264 34.9328 89.1781 34.8026C89.1297 34.6724 89.1046 34.4905 89.1046 34.2554C89.1046 34.0682 89.1109 33.9426 89.1235 33.8779C89.1348 33.8124 89.1697 33.7234 89.2264 33.6105C89.4456 33.1397 89.8185 32.8147 90.3463 32.6362Z" fill="white"/>
<path d="M97.3331 33.5128C97.3003 33.4721 97.2269 33.4514 97.1135 33.4514C96.8859 33.4514 96.6465 33.59 96.3954 33.8655C96.2002 34.0683 96.0083 34.3631 95.8173 34.7477C95.627 35.1336 95.4905 35.4842 95.4098 35.8005C95.3688 35.9637 95.3561 36.0529 95.373 36.0692C95.3889 36.0851 95.4884 36.0646 95.6711 36.0079C95.8537 35.9507 95.9977 35.8937 96.1036 35.837C96.2085 35.7807 96.3324 35.6875 96.4744 35.5573C96.6159 35.4284 96.6872 35.3423 96.6872 35.3016L96.7242 35.2293C96.7398 35.2293 96.7956 35.1479 96.8879 34.9854C96.9812 34.8229 97.0568 34.6814 97.1135 34.5596C97.2269 34.3156 97.3045 34.0944 97.3445 33.8953C97.3855 33.6975 97.3813 33.5699 97.3331 33.5128ZM96.9182 32.7582C97.0568 32.7334 97.2227 32.7473 97.4179 32.8011C97.6124 32.8539 97.7538 32.9278 97.8441 33.0256C97.9084 33.0987 97.9617 33.1945 98.0016 33.3117C98.0428 33.43 98.0583 33.59 98.0512 33.792C98.0428 33.9952 98.0058 34.1854 97.9407 34.364C97.8924 34.5189 97.8118 34.7112 97.6972 34.9425C97.5838 35.1735 97.4906 35.3498 97.4179 35.4725L97.3507 35.5636L97.2835 35.6606L97.2478 35.7152C97.2155 35.7807 97.1093 35.8937 96.9308 36.0562C96.7368 36.2594 96.4941 36.4282 96.2065 36.5613C95.9188 36.6957 95.6534 36.7625 95.4098 36.7625H95.2512L95.2272 36.9451C95.2029 37.0505 95.2029 37.2491 95.2272 37.5405C95.2671 37.963 95.3688 38.2738 95.5316 38.4727C95.6933 38.6714 95.9285 38.7822 96.2371 38.8071C96.8784 38.8566 97.5397 38.3652 98.2212 37.3343C98.4081 37.0589 98.5277 36.8721 98.5803 36.7742C98.6327 36.6772 98.6957 36.5357 98.7691 36.3485C98.8259 36.1948 98.8805 36.0906 98.933 36.0377C98.9854 35.9852 99.0652 35.9591 99.1702 35.9591C99.2676 35.9591 99.3487 35.9936 99.4138 36.0624C99.4788 36.1313 99.5028 36.2153 99.4872 36.3119C99.4461 36.6365 99.2269 37.0904 98.8301 37.6749C98.6189 37.9835 98.5055 38.1456 98.4887 38.1621L98.4404 38.2469C98.4404 38.2716 98.3261 38.3951 98.0994 38.6176C97.8727 38.8415 97.7056 38.9939 97.6005 39.0745C97.3079 39.2853 96.9791 39.4239 96.615 39.4885C96.4198 39.5292 96.2211 39.5292 96.0188 39.4885C95.564 39.3915 95.2188 39.1963 94.9837 38.9049C94.9186 38.8318 94.8472 38.7058 94.7703 38.5274C94.6939 38.3489 94.6351 38.1868 94.594 38.0407C94.5134 37.7072 94.4945 37.2882 94.5394 36.7805C94.5835 36.2732 94.6835 35.7853 94.8375 35.3141C94.9027 35.1026 95.0014 34.8531 95.1357 34.5651C95.2692 34.277 95.3855 34.0607 95.4821 33.9138C95.5799 33.7849 95.6291 33.7113 95.6291 33.6954C95.6291 33.6706 95.6997 33.5858 95.8411 33.4397C95.9839 33.2936 96.107 33.1793 96.2127 33.0987C96.2863 33.0344 96.3975 32.9656 96.5478 32.8912C96.6978 32.8183 96.8216 32.7742 96.9182 32.7582Z" fill="white"/>
</svg>
