<svg width="102" height="99" viewBox="0 0 102 99" fill="none" xmlns="http://www.w3.org/2000/svg">
<path d="M27.0894 97.8239C27.4699 97.3593 27.7612 96.8349 27.9501 96.2745C28.1673 95.7032 28.3626 95.1216 28.5771 94.5477C29.094 93.1495 29.5202 91.7253 30.0015 90.3167C30.4653 88.9655 30.9236 87.6143 31.3764 86.2631C31.8117 84.9014 32.3408 83.5682 32.9602 82.2721C33.2765 81.6331 33.6422 81.0175 33.9364 80.3679C34.2306 79.7184 34.4864 79.0637 34.7421 78.4116C34.9978 77.7595 35.2508 77.0786 35.567 76.4317C35.8833 75.7848 36.238 75.1405 36.612 74.5145C37.3379 73.3042 38.1573 72.1434 38.8118 70.8913C39.1242 70.2779 39.3952 69.6462 39.623 69.0002C39.8727 68.3498 40.1686 67.7163 40.5084 67.1038C40.8439 66.4699 41.1739 65.8361 41.4489 65.1761C41.7238 64.5162 41.9741 63.7884 42.216 63.0893C42.4326 62.4651 42.7088 61.8609 43.041 61.2842C43.3635 60.7564 43.6395 60.2041 43.8659 59.6331C43.9677 59.3445 44.036 59.0462 44.0694 58.7436C44.1052 58.4097 43.5579 58.4175 43.5195 58.7436C43.3875 59.967 42.4855 60.9738 42.0043 62.0798C41.7293 62.7372 41.5231 63.4284 41.2811 64.0988C41.0336 64.787 40.7425 65.4603 40.4094 66.1152C40.0932 66.7334 39.7522 67.3385 39.4607 67.9672C39.1693 68.5958 38.9713 69.2506 38.6908 69.8818C38.1408 71.1417 37.3627 72.2921 36.6312 73.4633C35.8522 74.6635 35.1842 75.9255 34.6349 77.2352C34.1041 78.5394 33.6532 79.8828 32.9657 81.127C31.5908 83.6103 30.8401 86.3049 29.9107 88.9525C29.424 90.3402 28.973 91.7331 28.5028 93.1261C28.2773 93.7938 28.0243 94.4486 27.7879 95.1085C27.6094 95.6742 27.3974 96.2298 27.1527 96.7727C27.0319 97.0215 26.8795 97.2554 26.699 97.4692C26.4735 97.73 26.8612 98.09 27.0894 97.8318V97.8239Z" fill="#50735F"/>
<path d="M27.3565 97.4874C26.5339 97.4634 25.7271 97.2665 24.9944 96.911C24.8597 96.8457 24.7194 96.7857 24.5847 96.7257L24.4417 96.6579C24.4123 96.6434 24.3846 96.6259 24.3592 96.6058C24.3592 96.6058 24.3894 96.6501 24.3839 96.6527C24.3905 96.6236 24.3988 96.5949 24.4087 96.5666C24.4664 96.4232 24.5407 96.2875 24.6067 96.1493C24.78 95.7573 24.892 95.3434 24.9394 94.9207C25.0066 94.4994 25.12 94.0859 25.2776 93.6869C25.4426 93.2695 25.6324 92.86 25.7891 92.44C25.9458 92.02 26.0146 91.5714 26.1438 91.1358C26.4448 90.295 26.8125 89.4771 27.2437 88.689C27.6617 87.8631 28.0111 87.0076 28.2886 86.1301C28.5196 85.3475 28.6874 84.565 28.9844 83.8085C29.2813 83.0521 29.7873 82.4547 30.2025 81.7843C30.4207 81.434 30.6048 81.0656 30.7525 80.6835C30.8919 80.2749 30.9958 79.8562 31.0632 79.4315C31.1374 79.0143 31.2365 78.6015 31.3602 78.1951C31.5062 77.779 31.7066 77.382 31.9569 77.0134C32.193 76.6719 32.4025 76.3144 32.5838 75.9439C32.7614 75.5481 32.904 75.1389 33.0101 74.7205C33.2794 73.8838 33.6339 73.074 34.0687 72.3025C34.2536 71.9299 34.464 71.5692 34.6984 71.2226C34.9734 70.8443 35.2484 70.4791 35.4904 70.0905C35.7335 69.7064 35.9309 69.2978 36.0788 68.8723C36.2163 68.4784 36.3126 68.0689 36.4858 67.6881C36.8378 66.9055 37.4372 66.2508 37.9487 65.5622C38.2054 65.246 38.3924 64.884 38.4986 64.4979C38.5839 64.1301 38.5756 63.7519 38.6224 63.3788C38.7296 62.5363 39.3786 61.9129 39.5986 61.1042C39.8075 60.3452 39.9285 59.5705 40.2035 58.8244C40.3795 58.3523 40.6545 57.841 41.2182 57.7315C41.5505 57.6895 41.8885 57.7217 42.2054 57.8254C42.5504 57.9103 42.8822 58.0374 43.1925 58.2036C43.4742 58.3344 43.7024 58.55 43.8415 58.8166C43.9707 59.1218 44.4987 58.9835 44.3695 58.6731C44.0945 58.0028 43.3713 57.648 42.6866 57.4237C42.0019 57.1993 41.2759 57.0507 40.6407 57.3871C40.0908 57.6819 39.8158 58.2714 39.6288 58.8166C39.5133 59.1531 39.4116 59.5 39.3263 59.847C39.2457 60.3353 39.1244 60.8168 38.9634 61.2868C38.7984 61.6807 38.5316 62.0277 38.3474 62.4137C38.1693 62.806 38.0686 63.226 38.0504 63.6527C38.0537 64.057 37.9656 64.4573 37.7919 64.8266C37.5614 65.1973 37.3022 65.5512 37.0165 65.8856C36.7352 66.2372 36.4753 66.6039 36.2383 66.9838C36.0184 67.3659 35.844 67.7701 35.7186 68.1889C35.5935 68.6374 35.4251 69.074 35.2154 69.4931C34.9778 69.904 34.7133 70.3004 34.4234 70.68C33.9106 71.4413 33.4645 72.2413 33.0898 73.072C32.8728 73.4699 32.689 73.8833 32.5398 74.3084C32.4311 74.7558 32.2971 75.1972 32.1384 75.6309C31.7891 76.4526 31.1622 77.1256 30.8652 77.9785C30.5682 78.8315 30.5407 79.7628 30.2053 80.6079C29.8973 81.3905 29.3583 82.0608 28.9073 82.7703C28.4887 83.4966 28.1839 84.2769 28.0027 85.0867C27.7718 85.9845 27.4694 86.8643 27.098 87.7186C26.7048 88.5925 26.2263 89.4298 25.8551 90.3115C25.6778 90.7383 25.5407 91.1791 25.4454 91.6288C25.3344 92.0749 25.1836 92.5112 24.9944 92.933C24.8037 93.3515 24.6411 93.781 24.5077 94.219C24.3894 94.652 24.3729 95.1033 24.2492 95.5232C24.1255 95.9432 23.482 96.6971 24.0677 97.0701C24.3402 97.2228 24.6242 97.3562 24.9174 97.4692C25.2865 97.6424 25.6735 97.7787 26.0723 97.8761C26.4893 97.9607 26.9137 98.0079 27.34 98.017C27.692 98.017 27.6865 97.5083 27.34 97.4953L27.3565 97.4874Z" fill="#50735F"/>
<path d="M42.8183 57.1159C42.0723 57.1523 41.3303 57.2439 40.5992 57.3897C39.7441 57.5332 38.8889 57.6949 38.0364 57.8593C37.6954 57.9245 37.3545 57.9975 37.0108 58.0497C36.3398 58.154 35.6551 58.1514 34.9896 58.2871C34.4012 58.4044 33.8375 58.6366 33.238 58.7044C32.9921 58.7393 32.7416 58.7322 32.4983 58.6836C32.4472 58.6772 32.3992 58.6563 32.3608 58.6236C32.3938 58.6679 32.3608 58.6236 32.3773 58.5818C32.5576 58.0958 32.8508 57.6546 33.2353 57.2906C33.6315 56.8747 34.0619 56.4892 34.5222 56.1377C35.0254 55.7412 35.5424 55.3551 36.0538 54.9769C36.5515 54.5782 37.071 54.2046 37.6102 53.8579C38.1185 53.6039 38.5922 53.292 39.0209 52.9292C39.3481 52.6032 38.9246 52.1467 38.6056 51.9719C38.2445 51.8197 37.8662 51.7068 37.4782 51.6354C36.9947 51.4635 36.5456 51.2148 36.1501 50.8998C35.8822 50.7122 35.6011 50.5422 35.3086 50.3912C35.0034 50.2425 34.6872 50.1173 34.3902 49.9529C34.0836 49.7648 33.788 49.5611 33.5048 49.3426C33.205 49.1287 32.8998 48.92 32.5946 48.7113C32.0446 48.3305 31.4947 47.9548 30.9447 47.5636C30.5075 47.2479 30.0043 46.888 29.7815 46.3976V46.6584C29.8558 46.5306 30.0565 46.5124 30.194 46.4993C30.4538 46.4771 30.7152 46.4771 30.9749 46.4993C31.5992 46.5463 32.2151 46.541 32.8421 46.5384H34.0932C34.4759 46.5188 34.8597 46.5319 35.2399 46.5776C35.9383 46.6871 36.6148 46.9975 37.316 47.0027C37.694 46.9693 38.0746 46.9736 38.4516 47.0158C38.7935 47.0948 39.1408 47.1506 39.4911 47.1827C39.8348 47.2088 40.1785 47.201 40.5222 47.2323C40.8403 47.2769 41.1651 47.2297 41.4544 47.0967C41.7279 46.9475 41.974 46.7572 42.1831 46.5332C42.4251 46.2985 42.6753 46.082 42.9393 45.8681C43.5663 45.3594 44.2125 44.8742 44.8642 44.3864C45.5791 43.8491 46.2666 43.2726 47.0145 42.7796C47.361 42.5501 47.7157 42.3309 48.0567 42.0936C48.3317 41.8927 48.6067 41.5719 48.9586 41.5067L48.6836 41.4415C48.8533 41.6727 48.954 41.943 48.9751 42.224C49.0274 42.5135 49.0769 42.8057 49.1181 43.0978C49.2072 43.825 49.1831 44.5606 49.0466 45.2811C48.9036 46.1106 48.9944 46.9532 48.7909 47.7775C48.6561 48.3305 48.4747 49.0687 48.8349 49.5878C49.1951 50.1068 49.9348 50.0286 50.4848 50.0808C50.8918 50.1168 51.2959 50.1778 51.6947 50.2634C51.8706 50.2999 52.0439 50.3468 52.2199 50.3755C53.0448 50.4955 53.8698 50.5685 54.6782 50.7042C55.1868 50.7817 55.6887 50.895 56.1796 51.0433C56.3583 51.0975 56.53 51.171 56.6911 51.2624C56.7417 51.2899 56.7865 51.3262 56.823 51.3694C56.8478 51.3954 56.823 51.3459 56.8423 51.398C56.8423 51.398 56.8423 51.4398 56.8588 51.4502L56.9248 51.1894C56.5123 51.5389 55.9129 51.6589 55.4179 51.8754C54.7744 52.1571 54.1585 52.491 53.5123 52.7675C53.0413 52.9766 52.5442 53.1283 52.0329 53.2188C51.5792 53.2996 51.1227 53.3675 50.6772 53.4796C50.2554 53.5748 49.8646 53.7664 49.5388 54.0378C49.3613 54.2203 49.2393 54.4449 49.1855 54.6878C49.1318 54.9308 49.1484 55.183 49.2336 55.4177C49.3958 56.0464 49.6901 56.6594 49.9183 57.2698C50.174 57.948 50.4078 58.6314 50.6305 59.32C50.8752 60.0817 51.1227 60.8434 51.4087 61.5946C51.5236 61.9002 51.6577 62.1989 51.8102 62.4893C51.9339 62.7215 52.1016 63.011 52.0136 63.2719L52.4151 63.1154C52.0619 62.9385 51.694 62.7893 51.3152 62.6693C50.8495 62.4801 50.4046 62.2476 49.987 61.9755C49.2721 61.5477 48.4307 61.4146 47.6827 61.0521C46.9348 60.6895 46.3078 60.0921 45.6341 59.62C45.4113 59.4889 45.2022 59.3378 45.0099 59.1687C44.7954 58.9496 44.6002 58.7122 44.3995 58.4801C44.0502 58.0836 43.503 57.3219 42.8651 57.4367C42.5186 57.4941 42.6698 57.9949 43.0136 57.9349C42.9833 57.9349 42.9971 57.9349 43.0438 57.9506L43.1345 57.9975C43.2458 58.07 43.349 58.153 43.4425 58.2453C43.6708 58.4618 43.877 58.6966 44.0832 58.934C44.2895 59.1713 44.4489 59.367 44.6524 59.5704C44.8567 59.7467 45.0776 59.9047 45.3124 60.0426C45.9806 60.4991 46.5773 61.0677 47.2977 61.4512C48.0182 61.8346 48.7854 61.9389 49.4756 62.2989C49.7176 62.4241 49.9348 62.5832 50.1685 62.7215C50.406 62.8578 50.6542 62.9764 50.911 63.0762C51.3369 63.2129 51.7522 63.3776 52.1539 63.5693C52.1902 63.589 52.2308 63.6006 52.2726 63.6031C52.3144 63.6057 52.3562 63.5992 52.3949 63.5841C52.4337 63.569 52.4683 63.5457 52.496 63.516C52.5238 63.4863 52.5441 63.451 52.5553 63.4127C52.7231 62.891 52.3711 62.4007 52.1484 61.9546C51.8625 61.3131 51.6218 60.6543 51.4279 59.9826C50.9742 58.6131 50.5123 57.2541 49.9898 55.9055C49.8193 55.4699 49.5223 54.8621 49.9073 54.4526C50.2151 54.1867 50.5968 54.0101 51.0072 53.9439C51.4472 53.837 51.8982 53.7744 52.3436 53.6831C52.8914 53.572 53.4225 53.3967 53.9248 53.1614C54.56 52.8823 55.1677 52.5458 55.8111 52.2797C56.3061 52.0763 56.911 51.9432 57.3125 51.5702C57.5875 51.3094 57.2575 50.9911 57.0375 50.8424C56.7773 50.6869 56.4935 50.5699 56.1961 50.4955C55.4197 50.288 54.6271 50.1397 53.8258 50.0521C53.2758 49.9816 52.7258 49.9529 52.1979 49.8382C51.5366 49.6904 50.8648 49.5893 50.1878 49.5356C49.7891 49.5043 49.3161 49.5356 49.2226 49.0791C49.0989 48.4844 49.3738 47.8896 49.4508 47.3053C49.5416 46.601 49.5031 45.8941 49.6323 45.1925C49.7395 44.5894 49.7654 43.9758 49.7093 43.3665C49.6672 42.8395 49.5826 42.3162 49.4563 41.8014C49.4106 41.5723 49.3171 41.3542 49.1814 41.1597C48.9779 40.8989 48.6864 41.0006 48.4362 41.1597C48.1859 41.3189 47.9742 41.5249 47.7295 41.6814C47.4847 41.8379 47.1795 42.0492 46.888 42.2344C46.2886 42.6231 45.7386 43.0691 45.1721 43.4995C44.6057 43.9299 44.0145 44.3682 43.4425 44.8038C42.8977 45.2013 42.3789 45.6299 41.8889 46.0872C41.7049 46.2883 41.492 46.4639 41.2564 46.6089C40.9855 46.7208 40.6841 46.7482 40.3958 46.6871C40.0905 46.6584 39.7825 46.6741 39.4746 46.648C39.1666 46.6219 38.8531 46.541 38.5369 46.4863C38.192 46.4463 37.8437 46.4401 37.4975 46.468C37.1636 46.4695 36.8316 46.422 36.513 46.3271C35.9088 46.1359 35.2795 46.0253 34.6432 45.9985C33.887 45.9985 33.128 46.0141 32.3719 46.0193C31.8604 46.0193 31.3682 46.0011 30.8595 45.9698C30.447 45.9437 29.9355 45.915 29.5726 46.1419C29.4729 46.1864 29.3944 46.2645 29.3522 46.361C29.31 46.4574 29.3072 46.5653 29.3443 46.6636C29.462 46.889 29.6181 47.0943 29.8063 47.2714C30.2089 47.6423 30.644 47.98 31.1069 48.2809C31.7036 48.6983 32.3086 49.1078 32.9053 49.5252C33.4527 49.9474 34.041 50.3195 34.6624 50.6364C35.2481 50.9236 35.8089 51.2542 36.3398 51.625C36.7681 51.8998 37.2464 52.0971 37.7505 52.2067C38.0914 52.2875 38.5506 52.3684 38.6304 52.7492C38.6551 52.6632 38.6771 52.5797 38.6991 52.4884C38.1739 53.0101 37.4342 53.2866 36.8375 53.7248C36.0951 54.27 35.3636 54.8256 34.6377 55.3786C34.0038 55.833 33.4147 56.3412 32.8778 56.8967C32.6065 57.1853 32.3652 57.498 32.1574 57.8306C31.9949 58.0512 31.8928 58.3067 31.8604 58.574C31.8604 59.1844 32.6496 59.2313 33.117 59.2052C33.9585 59.1583 34.7339 58.7983 35.5671 58.6836C36.2931 58.5896 37.0217 58.5505 37.7422 58.4227C38.2509 58.3262 38.7596 58.2271 39.2711 58.1332C39.9503 58.0054 40.646 57.8723 41.3197 57.7784C41.8261 57.6868 42.339 57.6301 42.8541 57.6089C42.927 57.6089 42.9969 57.5814 43.0485 57.5325C43.1001 57.4835 43.1291 57.4172 43.1291 57.348C43.1291 57.2788 43.1001 57.2125 43.0485 57.1636C42.9969 57.1146 42.927 57.0872 42.8541 57.0872L42.8183 57.1159Z" fill="#C58A46"/>
<path d="M25.5026 91.6966C25.5718 92.6103 25.7946 93.5077 26.1625 94.3547C26.311 94.7538 26.3935 95.1685 26.5832 95.5546C26.7882 95.8681 26.9639 96.1981 27.1084 96.5406L27.5072 96.2432L27.4439 96.2015C27.1689 96.011 26.894 96.4623 27.1689 96.6527L27.2322 96.6945C27.4357 96.8301 27.6887 96.6032 27.6309 96.3971C27.5933 96.2417 27.5341 96.0917 27.4549 95.9511C27.3559 95.7919 27.2404 95.6511 27.1524 95.4841C26.9779 95.0939 26.8309 94.693 26.7125 94.2842C26.4072 93.4391 26.0718 92.5965 26.047 91.6914C26.047 91.6222 26.0181 91.5559 25.9665 91.5069C25.9149 91.458 25.845 91.4305 25.772 91.4305C25.6991 91.4305 25.6292 91.458 25.5776 91.5069C25.526 91.5559 25.4971 91.6222 25.4971 91.6914L25.5026 91.6966Z" fill="#50735F"/>
<path d="M27.8127 86.3284C27.7635 86.5872 27.7295 86.8485 27.7109 87.1109C27.7384 87.3978 27.8237 87.6639 27.8237 87.956C27.8253 88.2358 27.8716 88.5138 27.9612 88.7803C28.0182 89.0476 28.0605 89.3175 28.0877 89.589C28.1152 89.722 28.1344 89.8498 28.1674 89.9907C28.2106 90.1064 28.2446 90.2249 28.2691 90.3454C28.2691 90.4706 28.2499 90.5932 28.2691 90.721C28.2855 90.8679 28.3168 91.0129 28.3626 91.1541C28.432 91.3795 28.4825 91.6098 28.5139 91.8427C28.523 92.0671 28.5931 92.2854 28.7174 92.4766C28.7417 92.5155 28.7763 92.5477 28.8178 92.5701C28.8592 92.5925 28.9061 92.6043 28.9539 92.6043C29.0016 92.6043 29.0485 92.5925 29.0899 92.5701C29.1314 92.5477 29.166 92.5155 29.1903 92.4766C29.2536 92.36 29.2702 92.2256 29.2371 92.0983C29.1683 91.7723 28.6404 91.9131 28.7119 92.2392V92.2157H29.1876C29.0924 92.0566 29.0422 91.8769 29.0418 91.694C29.0054 91.4428 28.9465 91.195 28.8659 90.9532C28.8266 90.835 28.8062 90.7119 28.8054 90.588C28.8177 90.4666 28.8177 90.3443 28.8054 90.2228C28.7834 90.0976 28.7256 89.9828 28.6954 89.8602C28.6651 89.7376 28.6431 89.5994 28.6184 89.4585C28.5661 89.1977 28.5716 88.9577 28.4946 88.7125C28.4063 88.4413 28.3609 88.1591 28.3599 87.8752C28.3599 87.6013 28.2636 87.3535 28.2416 87.0796C28.2196 86.8057 28.3406 86.584 28.3461 86.3284C28.3461 86.2592 28.3172 86.1928 28.2656 86.1439C28.214 86.095 28.1441 86.0675 28.0712 86.0675C27.9982 86.0675 27.9283 86.095 27.8767 86.1439C27.8252 86.1928 27.7962 86.2592 27.7962 86.3284H27.8127Z" fill="#50735F"/>
<path d="M29.7816 81.7634C29.7605 82.1871 29.7724 82.6117 29.8173 83.0337C29.8861 83.4328 30.0126 83.8163 30.0923 84.2232C30.173 84.5849 30.3014 84.9354 30.4745 85.2666C30.6197 85.6002 30.8192 85.91 31.0658 86.1848C31.3077 86.43 31.6899 86.0596 31.4507 85.8144C31.2331 85.5604 31.0579 85.2762 30.931 84.9718C30.7779 84.6699 30.6687 84.3496 30.6065 84.0197C30.5378 83.6676 30.4195 83.3259 30.3563 82.9763C30.3118 82.5761 30.3017 82.173 30.3261 81.7712C30.3261 81.702 30.2971 81.6357 30.2455 81.5868C30.1939 81.5379 30.124 81.5104 30.0511 81.5104C29.9781 81.5104 29.9082 81.5379 29.8566 81.5868C29.8051 81.6357 29.7761 81.702 29.7761 81.7712L29.7816 81.7634Z" fill="#50735F"/>
<path d="M32.1766 75.7951C32.1766 76.2933 32.1766 76.7915 32.1766 77.2924C32.1679 77.5386 32.1743 77.7851 32.1959 78.0306C32.2234 78.2523 32.2811 78.474 32.2948 78.6983C32.3008 78.9107 32.3219 79.1225 32.3581 79.3322C32.3896 79.4439 32.4089 79.5584 32.4158 79.6739C32.4158 79.7861 32.3966 79.8982 32.4158 80.0104C32.4433 80.4617 32.6331 80.8895 32.6523 81.3433C32.6523 81.4125 32.6813 81.4789 32.7329 81.5278C32.7844 81.5767 32.8544 81.6042 32.9273 81.6042C33.0002 81.6042 33.0702 81.5767 33.1217 81.5278C33.1733 81.4789 33.2023 81.4125 33.2023 81.3433C33.1858 80.8999 33.0208 80.4878 32.9713 80.0391C32.9466 79.8148 32.9933 79.5983 32.9465 79.3713C32.8993 79.1459 32.8699 78.9175 32.8586 78.6879C32.8448 78.4766 32.7953 78.2705 32.7651 78.0619C32.7389 77.8166 32.7307 77.57 32.7403 77.3237C32.7403 76.802 32.7403 76.2985 32.7403 75.7847C32.7403 75.7155 32.7114 75.6491 32.6598 75.6002C32.6082 75.5513 32.5383 75.5238 32.4653 75.5238C32.3924 75.5238 32.3225 75.5513 32.2709 75.6002C32.2193 75.6491 32.1904 75.7155 32.1904 75.7847L32.1766 75.7951Z" fill="#50735F"/>
<path d="M34.7893 70.3227C34.7893 71.2695 34.7398 72.2216 34.8058 73.1685C34.8262 73.3516 34.8649 73.5324 34.9213 73.7085C34.9763 73.9198 34.99 74.1389 35.056 74.3502C35.122 74.5614 35.232 74.7493 35.3008 74.9579C35.3925 75.1504 35.451 75.3556 35.474 75.5657C35.452 75.8996 35.9992 75.8944 36.024 75.5657C36.0158 75.3706 35.9691 75.1786 35.8865 74.9997C35.8177 74.7988 35.7517 74.6006 35.6637 74.4049C35.5766 74.1954 35.5174 73.9763 35.4877 73.7528C35.452 73.5546 35.3723 73.3668 35.3558 73.1659C35.2815 72.2216 35.3558 71.2669 35.3393 70.3201C35.3393 70.2509 35.3103 70.1845 35.2587 70.1356C35.2072 70.0867 35.1372 70.0592 35.0643 70.0592C34.9914 70.0592 34.9214 70.0867 34.8698 70.1356C34.8183 70.1845 34.7893 70.2509 34.7893 70.3201V70.3227Z" fill="#50735F"/>
<path d="M37.0937 66.1647C37.1 66.6878 37.0687 67.2107 37.0002 67.7297C36.9373 68.1761 36.9448 68.6288 37.0222 69.0731C37.1129 69.5818 37.2202 70.0878 37.3357 70.5887C37.3886 71 37.5717 71.3866 37.8609 71.6973C38.1194 71.9242 38.5043 71.5564 38.2458 71.3268C37.9874 71.0973 37.9186 70.6773 37.8389 70.3435C37.7261 69.8609 37.6134 69.3705 37.5391 68.8827C37.4837 68.484 37.4901 68.0797 37.5584 67.6828C37.6312 67.1799 37.6588 66.672 37.6409 66.1647C37.6409 66.0955 37.6119 66.0291 37.5603 65.9802C37.5088 65.9313 37.4388 65.9038 37.3659 65.9038C37.293 65.9038 37.223 65.9313 37.1715 65.9802C37.1199 66.0291 37.0909 66.0955 37.0909 66.1647H37.0937Z" fill="#50735F"/>
<path d="M38.5508 62.3172C38.5865 63.1232 38.9605 63.8457 39.175 64.6126C39.2859 64.9701 39.4257 65.3189 39.593 65.656C39.681 65.8386 39.7332 66.0316 39.8129 66.2195C39.8448 66.2994 39.8863 66.3756 39.9367 66.4464C39.9724 66.4986 40.0687 66.5794 40.0769 66.6394C40.0769 66.7086 40.1059 66.775 40.1575 66.8239C40.209 66.8728 40.279 66.9003 40.3519 66.9003C40.4839 66.9003 40.6434 66.7777 40.6269 66.6394C40.5954 66.4726 40.5207 66.3157 40.4096 66.1829C40.3156 66.0175 40.2418 65.8425 40.1897 65.6612C40.0467 65.3117 39.8514 64.983 39.7442 64.6178C39.5215 63.864 39.1337 63.1049 39.1007 62.3119C39.1007 61.9781 38.5508 61.9807 38.5508 62.3119V62.3172Z" fill="#50735F"/>
<path d="M40.0053 58.2662C39.994 59.1293 40.2055 59.9818 40.6213 60.7495C40.855 61.1642 41.075 61.592 41.3225 62.0016C41.4215 62.1685 41.5617 62.312 41.6717 62.4737C41.7511 62.57 41.8125 62.6785 41.8532 62.7946C41.8944 63.1232 42.4416 63.1232 42.4031 62.7946C42.3367 62.495 42.1888 62.2171 41.9742 61.9885C41.7058 61.6031 41.4678 61.1994 41.262 60.7808C41.0274 60.4001 40.8427 59.9936 40.712 59.5705C40.6055 59.1432 40.5547 58.7052 40.5608 58.2662C40.5608 58.197 40.5318 58.1307 40.4802 58.0818C40.4286 58.0328 40.3587 58.0054 40.2858 58.0054C40.2129 58.0054 40.1429 58.0328 40.0913 58.0818C40.0398 58.1307 40.0108 58.197 40.0108 58.2662H40.0053Z" fill="#50735F"/>
<path d="M44.5861 50.4876C44.7496 50.2182 44.9432 49.9664 45.1636 49.7364C45.3517 49.4664 45.5041 49.1756 45.6173 48.8703C45.7809 48.5684 45.9206 48.2554 46.0353 47.9339C46.1563 47.6026 46.3103 47.2922 46.4505 46.9635C46.5157 46.8239 46.5959 46.6911 46.6897 46.567C46.7802 46.4242 46.861 46.2761 46.9317 46.1236C47.1022 45.7975 47.2837 45.4767 47.4404 45.1454C47.5802 44.8363 47.7023 44.5202 47.8062 44.1985C47.9182 43.8878 48.0775 43.5943 48.2791 43.3273C48.4767 43.0519 48.6427 42.7572 48.7741 42.4482C48.8349 42.2958 48.8854 42.1398 48.9253 41.9813C48.9666 41.8431 49.0876 41.7544 49.1123 41.6057C49.1701 41.2796 48.6393 41.1414 48.5843 41.4727C48.5651 41.5744 48.4634 41.6579 48.4249 41.7596C48.3864 41.8613 48.3671 42.0204 48.3121 42.1561C48.2044 42.4378 48.0623 42.7066 47.8886 42.9569C47.6975 43.2001 47.5352 43.4625 47.4047 43.7394C47.2699 44.0525 47.1847 44.3811 47.0555 44.6941C46.782 45.328 46.4527 45.9388 46.071 46.5201C45.9962 46.6572 45.9318 46.7993 45.8785 46.9453C45.8043 47.1122 45.7136 47.2713 45.6448 47.4409C45.5128 47.7643 45.4193 48.0982 45.2571 48.4086C45.1718 48.573 45.0756 48.7347 44.9986 48.9016C44.9485 49.0712 44.8725 49.2329 44.7731 49.3816C44.525 49.6478 44.3031 49.9351 44.1104 50.2398C44.0776 50.2994 44.0702 50.3688 44.09 50.4334C44.1097 50.498 44.1551 50.5529 44.2165 50.5865C44.2779 50.6202 44.3506 50.6301 44.4195 50.6141C44.4884 50.598 44.5481 50.5574 44.5861 50.5006V50.4876Z" fill="#C58A46"/>
<path d="M29.5859 46.4028C29.6547 46.721 30.0864 46.8619 30.3641 46.9584C30.7546 47.0941 31.1616 47.1932 31.5603 47.3027C32.1102 47.454 32.6272 47.6366 33.1717 47.7697C33.406 47.8468 33.6232 47.9644 33.8124 48.1166C34.0512 48.2658 34.3022 48.3966 34.5631 48.5079C35.0614 48.7308 35.5749 48.9216 36.1002 49.0791C36.3483 49.1664 36.6055 49.2285 36.8674 49.2643C37.1808 49.2686 37.4939 49.2887 37.8051 49.3243C38.0636 49.3791 38.3083 49.4913 38.5613 49.5669C38.8206 49.633 39.0875 49.668 39.356 49.6712C39.5794 49.6982 39.7973 49.7571 40.0022 49.846C40.2771 49.9373 40.5521 50.0182 40.8051 50.1303C41.0537 50.2339 41.3184 50.2982 41.5888 50.3208C41.8686 50.3617 42.1403 50.4426 42.3945 50.5607C42.6766 50.6713 42.9521 50.7967 43.2194 50.9364C43.3074 50.9781 43.3982 51.012 43.4944 51.0485L43.5962 51.0929C43.6264 51.1059 43.7116 51.1737 43.6979 51.1398C43.8134 51.4528 44.3413 51.3146 44.2259 50.9964C44.1104 50.6781 43.6126 50.5451 43.2992 50.3755C43.084 50.2622 42.8597 50.1654 42.6282 50.086C42.386 49.971 42.1303 49.8835 41.8665 49.8251C41.6394 49.81 41.4145 49.7724 41.1956 49.713C40.9371 49.6295 40.6979 49.5069 40.4366 49.426C40.1938 49.3336 39.946 49.2535 39.6942 49.1861C39.4495 49.1391 39.1965 49.1652 38.9517 49.1209C38.6968 49.058 38.4461 48.9805 38.2011 48.8887C37.9243 48.8063 37.6359 48.7649 37.3459 48.7661C37.0763 48.7678 36.8079 48.7336 36.5484 48.6644C36.2487 48.5757 35.9545 48.474 35.6575 48.3827C35.1311 48.2238 34.6304 47.9964 34.1698 47.7071C33.9833 47.5647 33.7815 47.4414 33.5676 47.3393C33.3339 47.2506 33.0809 47.2219 32.8444 47.1436C32.2312 46.9428 31.607 46.7732 30.9883 46.5958C30.8178 46.5463 30.6446 46.5019 30.4796 46.4393C30.3898 46.4091 30.3032 46.3706 30.2211 46.3246L30.1716 46.2959C30.1514 46.2824 30.1329 46.2666 30.1166 46.2489C30.1414 46.2959 30.1469 46.3011 30.1359 46.2489C30.0644 45.9229 29.5392 46.0637 29.6079 46.3898L29.5859 46.4028Z" fill="#C58A46"/>
<path d="M43.9156 50.9963C44.3598 51.8572 44.8509 52.6956 45.3867 53.5083C45.6617 53.9256 45.8817 54.3508 46.1319 54.7734C46.3821 55.196 46.6599 55.509 46.8606 55.9211C47.0778 56.3724 47.3253 56.8158 47.515 57.2749C47.5987 57.4971 47.6951 57.7148 47.8038 57.9271C47.922 58.1436 48.0787 58.3496 48.197 58.5609C48.7184 59.3381 49.2877 60.0854 49.9019 60.799C50.5481 61.6337 51.065 62.5597 51.8267 63.3032C52.0742 63.5431 52.4592 63.1727 52.2117 62.9354C51.5297 62.2754 51.0623 61.4668 50.5041 60.7181C49.9459 59.9695 49.3024 59.2991 48.8019 58.5244C48.5269 58.1328 48.2903 57.718 48.0952 57.2854C47.9083 56.8289 47.6745 56.4011 47.4655 55.9577C47.2662 55.5376 47.0279 55.1351 46.7533 54.7551C46.4784 54.3717 46.2804 53.9439 46.0384 53.5474C45.4692 52.6162 44.8532 51.7215 44.3885 50.7302C44.2428 50.4277 43.7726 50.6963 43.9183 50.9911L43.9156 50.9963Z" fill="#C58A46"/>
<path d="M44.2535 50.5033H44.0748C44.0019 50.5033 43.9319 50.5308 43.8803 50.5797C43.8288 50.6286 43.7998 50.695 43.7998 50.7641C43.7998 50.8333 43.8288 50.8997 43.8803 50.9486C43.9319 50.9975 44.0019 51.025 44.0748 51.025C44.4522 51.0603 44.8268 51.1178 45.1967 51.1972C45.3837 51.2206 45.5734 51.2258 45.7466 51.2467C45.9199 51.2676 46.1674 51.3328 46.3791 51.3667C46.8081 51.4397 47.2288 51.3458 47.655 51.398C47.8282 51.4189 47.996 51.4658 48.1692 51.4841C48.3442 51.4972 48.5169 51.5305 48.6834 51.5832C49.0629 51.711 49.4451 51.6589 49.8301 51.7502C50.1999 51.8469 50.5822 51.8934 50.9658 51.8884C51.843 51.8675 52.7174 51.8675 53.5946 51.8597L56.5946 51.8362C56.6675 51.8362 56.7375 51.8088 56.7891 51.7598C56.8406 51.7109 56.8696 51.6446 56.8696 51.5754C56.8696 51.5062 56.8406 51.4399 56.7891 51.3909C56.7375 51.342 56.6675 51.3145 56.5946 51.3145C54.8292 51.3276 53.0639 51.3145 51.3012 51.3563C50.9071 51.3861 50.5106 51.3606 50.1243 51.2806C49.9441 51.2325 49.7603 51.1976 49.5744 51.1763C49.365 51.1786 49.1559 51.1611 48.9502 51.1241C48.8011 51.0689 48.6475 51.0252 48.491 50.9937C48.304 50.965 48.1197 50.9546 47.941 50.918C47.5296 50.8829 47.1163 50.8724 46.7036 50.8867C46.4704 50.856 46.239 50.8133 46.0106 50.7589C45.7989 50.725 45.5872 50.7146 45.3782 50.6963C44.93 50.6546 44.5065 50.5085 44.0555 50.5033C44.0555 50.6781 44.0555 50.8502 44.0555 51.025H44.237C44.3099 51.025 44.3799 50.9975 44.4315 50.9486C44.483 50.8997 44.512 50.8333 44.512 50.7641C44.512 50.695 44.483 50.6286 44.4315 50.5797C44.3799 50.5308 44.3099 50.5033 44.237 50.5033H44.2535Z" fill="#C58A46"/>
<path d="M32.3911 59.1165C33.0785 58.4618 33.9145 57.9714 34.6927 57.4184C35.0806 57.16 35.4952 56.9398 35.9301 56.761C36.3453 56.5706 36.6973 56.2941 37.1097 56.1011C37.9914 55.6785 38.8462 55.2073 39.6698 54.6899C40.085 54.429 40.4947 54.1995 40.8962 53.9073C41.2977 53.6152 41.6634 53.31 42.0649 53.0309C42.5158 52.7205 42.9695 52.4127 43.3875 52.0632C43.5855 51.8962 43.811 51.7553 44.0062 51.5832C44.1739 51.3982 44.3739 51.242 44.5974 51.1215L44.196 50.9702V51.0354C44.262 51.3641 44.7872 51.2206 44.7239 50.8945V50.8267C44.7121 50.7889 44.6913 50.7541 44.6632 50.725C44.6352 50.6959 44.6005 50.6732 44.5619 50.6587C44.5232 50.6441 44.4816 50.6381 44.4401 50.641C44.3986 50.6439 44.3584 50.6557 44.3224 50.6754C44.1269 50.768 43.95 50.8925 43.8 51.0432C43.6338 51.1988 43.4574 51.3442 43.272 51.4788C42.8623 51.7814 42.4801 52.1075 42.0594 52.397C41.2592 52.9526 40.5195 53.5839 39.6753 54.0769C38.8311 54.5699 37.9539 55.1073 37.052 55.5507C36.854 55.6498 36.645 55.7333 36.458 55.8481C36.271 55.9628 36.0758 56.1089 35.8641 56.2185C35.435 56.4046 35.0165 56.6118 34.6102 56.8393C34.1647 57.1236 33.7357 57.4418 33.2985 57.7392C32.8395 58.0449 32.4065 58.3841 32.0034 58.7539C31.7531 58.9913 32.1436 59.3565 32.3938 59.1191L32.3911 59.1165Z" fill="#C58A46"/>
<path d="M88.5988 37.3374C90.7483 39.5665 88.7216 41.9866 85.8351 40.5855C83.2557 39.3754 83.9312 36 86.7563 36C87.0634 36 87.8618 36.5732 88.5988 37.3374ZM85.4666 38.6112C85.4666 38.9296 86.0193 39.1844 86.6949 39.1844C88.046 39.1844 88.3531 38.1654 87.1248 37.7196C86.2036 37.4011 85.4666 37.7833 85.4666 38.6112Z" fill="#50735F"/>
<path d="M46.4318 1.33744C48.5813 3.5665 46.5546 5.98663 43.6681 4.5855C41.0887 3.37544 41.7642 0 44.5893 0C44.8964 0 45.6948 0.573187 46.4318 1.33744ZM43.2996 2.61119C43.2996 2.92963 43.8524 3.18438 44.5279 3.18438C45.879 3.18438 46.1861 2.16538 44.9578 1.71956C44.0366 1.40113 43.2996 1.78325 43.2996 2.61119Z" fill="#50735F"/>
<path d="M99.7975 7.14526C101.513 8.53513 101.513 9.81809 99.8588 11.6356C98.266 13.3997 95.6929 13.4531 93.9163 11.796C90.1181 8.26785 95.7542 3.88441 99.7975 7.14526ZM94.8965 8.05402C93.4875 9.17661 93.4875 9.97846 94.9578 11.101C96.5506 12.3305 98.1434 12.0098 99.2462 10.2457C100.043 9.06969 100.043 8.6955 99.3687 8.00056C98.3272 6.87798 96.3056 6.93143 94.8965 8.05402Z" fill="#50735F"/>
<path d="M99.4407 58.1784C96.9246 58.4111 88.9235 56.3879 83.7271 59.4155C86.3159 61.4527 85.9938 62.8502 84.8584 64.2606C81.8359 67.9931 78.4502 62.7812 82.2288 59.3461C78.9599 57.2948 75.1149 58.5809 72.0048 60.8042C71.9618 60.8327 71.9131 60.8525 71.8616 60.8622C71.8102 60.872 71.7572 60.8716 71.706 60.861C71.6547 60.8504 71.6063 60.8298 71.5639 60.8007C71.5214 60.7715 71.4857 60.7343 71.4591 60.6915C71.4325 60.6486 71.4155 60.601 71.4092 60.5516C71.4029 60.5022 71.4074 60.4521 71.4225 60.4044C71.4376 60.3568 71.4629 60.3126 71.4969 60.2747C71.5308 60.2368 71.5726 60.2059 71.6197 60.184C75.1042 57.6834 79.3445 56.4608 82.9199 58.8296C85.856 56.8842 89.7025 56.7021 93.1604 56.8498C94.7131 56.9213 96.2401 57.0873 97.75 57.2005C98.2739 57.2396 99.1251 57.1017 99.5952 57.2805C100.353 57.5858 100.36 58.0945 99.4407 58.1784ZM83.0343 59.9091C80.2782 62.2902 81.7961 66.5106 84.185 63.6889C84.7964 62.8882 85.6086 61.9279 83.0343 59.9091Z" fill="#50735F"/>
<path d="M8.64199 10.0052C10.7518 10.6596 12.1779 11.9614 13.5576 13.726C15.4663 16.1718 16.6435 19.2182 15.8404 22.1921C19.395 24.1046 20.7241 28.3817 20.5718 29.9578C20.4326 31.3462 19.3107 30.8299 19.5871 30.3018C20.0959 29.3298 18.9058 24.787 15.597 22.9337C14.4533 26.0299 10.7936 26.0751 9.172 24.9923C7.9605 24.1834 7.84274 21.2442 11.8997 21.1963C12.9374 21.1892 13.9654 21.3847 14.92 21.7707C15.8919 17.6687 12.3046 11.5566 6.981 10.6081C6.52542 10.5268 6.29887 10.618 6.11047 10.3435C6.03879 10.2382 6.01396 10.1104 6.0414 9.98782C6.06885 9.86527 6.14633 9.75802 6.25692 9.68952C6.628 9.45235 8.22549 9.8736 8.64199 10.0052ZM9.36348 23.4064C9.37783 24.8105 11.8901 24.8913 13.0977 24.3575C13.8757 23.9523 14.4581 23.277 14.7225 22.4733C12.945 21.7371 9.59493 21.5 9.36348 23.4064Z" fill="#50735F"/>
<path d="M56.7714 26.0665C57.5714 24.8899 61.4483 22.1504 61.8719 18.7971C59.9505 19.1823 59.3932 18.5358 59.1245 17.5316C58.4199 14.8663 62.1615 15.2863 62.4486 18.1719C64.6232 17.4967 65.3969 15.3614 65.452 13.2053C65.4539 13.1763 65.462 13.148 65.4759 13.1222C65.4899 13.0963 65.5093 13.0734 65.533 13.055C65.5567 13.0366 65.5841 13.0231 65.6136 13.0152C65.6431 13.0074 65.6739 13.0054 65.7043 13.0093C65.7346 13.0133 65.7637 13.0232 65.7898 13.0384C65.8159 13.0536 65.8385 13.0737 65.856 13.0975C65.8735 13.1214 65.8856 13.1484 65.8916 13.1768C65.8976 13.2053 65.8973 13.2347 65.8908 13.2631C65.8337 15.6822 64.8861 17.9661 62.4471 18.6592C62.321 20.639 61.0142 22.3746 59.6893 23.8221C59.0919 24.4701 58.4582 25.0728 57.8561 25.6871C57.6473 25.9004 57.4052 26.3198 57.1486 26.4591C56.7265 26.6773 56.4787 26.4958 56.7714 26.0665ZM61.8849 18.3174C61.7356 16.2578 59.1495 15.3865 59.6445 17.4465C59.809 18.0022 59.9778 18.7029 61.8849 18.3174Z" fill="#50735F"/>
<path d="M37.91 17.1608C37.91 16.5114 37.8629 15.862 37.8073 15.2166C37.6618 13.5931 37.4436 13.2806 37.8287 13.0695C38.8684 12.4891 38.847 15.6915 38.877 17.1608C38.877 17.2824 38.826 17.3991 38.7353 17.4851C38.6447 17.5711 38.5217 17.6195 38.3935 17.6195C38.2652 17.6195 38.1423 17.5711 38.0516 17.4851C37.9609 17.3991 37.91 17.2824 37.91 17.1608Z" fill="#50735F"/>
<path d="M35.7929 16.3978C34.6847 15.4034 34.7703 15.5211 33.7691 14.6809C33.2513 14.4821 33.4824 13.7555 34.1456 13.9341C34.505 14.0072 35.3907 14.8758 35.6517 15.1234C36.7727 16.1949 37.5086 16.6779 37.0808 17.0838C36.6529 17.4896 36.3277 16.8849 35.7929 16.3978Z" fill="#50735F"/>
<path d="M35.485 19.5555C31.0693 18.5002 31.0308 18.6464 30.9453 18.3379C30.6671 17.3841 32.8921 18.0335 35.7246 18.7438C35.8175 18.7891 35.8911 18.8635 35.9329 18.9543C35.9746 19.0452 35.9821 19.1469 35.9539 19.2424C35.9257 19.3378 35.8637 19.4211 35.7782 19.4782C35.6928 19.5352 35.5892 19.5626 35.485 19.5555Z" fill="#50735F"/>
<path d="M37.9314 21.597C37.9755 21.6358 38.0104 21.6829 38.034 21.7354C38.0576 21.7878 38.0693 21.8444 38.0683 21.9014C38.0683 21.9501 37.4393 26.8207 37.435 26.8694C37.453 26.9648 37.4343 27.0631 37.3825 27.1466C37.3306 27.2301 37.249 27.2932 37.1524 27.3246C37.0557 27.3559 36.9504 27.3535 36.8555 27.3177C36.7606 27.2818 36.6824 27.215 36.6349 27.1292C36.4424 26.8247 36.6349 25.8547 36.7719 24.771C37.0286 22.8106 37.0928 20.7974 37.9314 21.597Z" fill="#50735F"/>
<path d="M41.1618 22.6119C41.5041 23.2126 41.8478 23.8133 42.193 24.414C42.3684 24.7184 42.5481 25.0228 42.7278 25.3232C42.869 25.5627 43.0316 25.794 43.1557 26.0416C43.2044 26.1342 43.2445 26.2306 43.2755 26.3298C43.3311 26.4921 43.3568 26.6788 43.1857 26.7803C43.1084 26.8252 43.0195 26.8489 42.9289 26.8489C42.8383 26.8489 42.7495 26.8252 42.6722 26.7803C42.3385 26.5936 41.9448 25.7615 41.1961 24.5074C39.5787 21.8204 39.0909 21.4308 39.6686 21.1142C39.7261 21.0744 39.794 21.0504 39.8649 21.0447C39.9358 21.0389 40.007 21.0518 40.0708 21.0817C40.2513 21.202 40.3981 21.3622 40.4986 21.5485C40.7468 21.8773 40.965 22.2466 41.1618 22.6119Z" fill="#50735F"/>
<path d="M45.5736 22.2058C45.4409 22.1206 41.6244 20.5823 41.4789 20.5214C41.379 20.4633 41.3013 20.3764 41.2574 20.2733C41.2134 20.1703 41.2055 20.0566 41.2347 19.9489C41.2639 19.8413 41.3287 19.7454 41.4196 19.6752C41.5106 19.6051 41.6228 19.5646 41.7399 19.5594C42.3906 19.7675 43.0291 20.0087 43.6524 20.2819C43.2246 20.1196 45.7618 21.0734 46.1598 21.4996C46.2319 21.5802 46.2723 21.6821 46.2743 21.7878C46.2763 21.8936 46.2398 21.9967 46.1708 22.0798C46.1018 22.1629 46.0047 22.2209 45.8959 22.2438C45.787 22.2668 45.6732 22.2533 45.5736 22.2058Z" fill="#50735F"/>
<path d="M40.6013 18.1228C40.1734 17.7169 40.6655 17.3963 42.0732 16.1624C42.3171 15.9513 43.5622 14.7946 43.8873 14.7946C43.9849 14.7978 44.0795 14.8275 44.1598 14.8803C44.24 14.933 44.3026 15.0066 44.34 15.0921C44.3775 15.1777 44.3881 15.2717 44.3709 15.3628C44.3536 15.454 44.309 15.5385 44.2425 15.6063C41.1661 18.1674 41.0506 18.553 40.6013 18.1228Z" fill="#50735F"/>
<path d="M80.0157 19.1426C80.0157 18.6521 79.9802 18.1616 79.9382 17.6742C79.8283 16.448 79.6635 16.2119 79.9544 16.0525C80.7396 15.6141 80.7235 18.0328 80.7461 19.1426C80.7461 19.2344 80.7076 19.3226 80.6391 19.3875C80.5707 19.4525 80.4778 19.489 80.3809 19.489C80.2841 19.489 80.1912 19.4525 80.1227 19.3875C80.0542 19.3226 80.0157 19.2344 80.0157 19.1426Z" fill="#50735F"/>
<path d="M78.4166 18.5663C77.5796 17.8152 77.6442 17.9041 76.888 17.2695C76.497 17.1193 76.6715 16.5706 77.1724 16.7055C77.4438 16.7607 78.1128 17.4167 78.3099 17.6037C79.1566 18.413 79.7124 18.7778 79.3893 19.0843C79.0661 19.3909 78.8205 18.9341 78.4166 18.5663Z" fill="#50735F"/>
<path d="M78.1839 20.9513C74.8489 20.1543 74.8198 20.2646 74.7552 20.0316C74.5451 19.3112 76.2256 19.8017 78.3649 20.3382C78.4351 20.3724 78.4906 20.4286 78.5222 20.4972C78.5538 20.5658 78.5594 20.6427 78.5381 20.7148C78.5168 20.7869 78.4699 20.8498 78.4054 20.8929C78.3409 20.936 78.2626 20.9566 78.1839 20.9513Z" fill="#50735F"/>
<path d="M80.0323 22.4932C80.0656 22.5225 80.092 22.5581 80.1098 22.5977C80.1276 22.6373 80.1365 22.68 80.1357 22.7231C80.1357 22.7599 79.6606 26.4385 79.6574 26.4753C79.6709 26.5474 79.6568 26.6216 79.6177 26.6847C79.5785 26.7477 79.5169 26.7954 79.4439 26.8191C79.3709 26.8428 79.2914 26.841 79.2197 26.8139C79.1481 26.7868 79.089 26.7363 79.0531 26.6715C78.9077 26.4416 79.0531 25.7089 79.1565 24.8904C79.3504 23.4098 79.3989 21.8893 80.0323 22.4932Z" fill="#50735F"/>
<path d="M82.4716 23.2597C82.7301 23.7134 82.9897 24.1671 83.2504 24.6208C83.3829 24.8507 83.5186 25.0806 83.6543 25.3074C83.761 25.4883 83.8838 25.663 83.9775 25.85C84.0143 25.92 84.0446 25.9928 84.068 26.0677C84.11 26.1903 84.1294 26.3313 84.0001 26.408C83.9417 26.4418 83.8746 26.4598 83.8062 26.4598C83.7378 26.4598 83.6707 26.4418 83.6123 26.408C83.3603 26.267 83.063 25.6385 82.4974 24.6913C81.2759 22.6619 80.9075 22.3676 81.3437 22.1285C81.3872 22.0984 81.4385 22.0803 81.492 22.076C81.5456 22.0716 81.5993 22.0813 81.6475 22.104C81.7838 22.1948 81.8948 22.3158 81.9707 22.4565C82.1581 22.7048 82.3229 22.9838 82.4716 23.2597Z" fill="#50735F"/>
<path d="M85.8037 22.953C85.7035 22.8886 82.8209 21.7267 82.711 21.6808C82.6356 21.6369 82.5769 21.5712 82.5437 21.4934C82.5105 21.4156 82.5045 21.3297 82.5266 21.2484C82.5486 21.1671 82.5976 21.0946 82.6663 21.0417C82.735 20.9887 82.8198 20.9581 82.9082 20.9542C83.3996 21.1114 83.8819 21.2935 84.3527 21.4999C84.0295 21.3773 85.9459 22.0977 86.2464 22.4195C86.3009 22.4805 86.3314 22.5574 86.3329 22.6373C86.3345 22.7171 86.3068 22.7951 86.2548 22.8578C86.2027 22.9206 86.1293 22.9643 86.0471 22.9817C85.9649 22.999 85.8789 22.9889 85.8037 22.953Z" fill="#50735F"/>
<path d="M82.0482 19.8691C81.7251 19.5625 82.0967 19.3204 83.1599 18.3884C83.3441 18.229 84.2845 17.3553 84.5301 17.3553C84.6038 17.3578 84.6752 17.3802 84.7358 17.4201C84.7965 17.4599 84.8437 17.5155 84.872 17.5801C84.9003 17.6447 84.9083 17.7157 84.8953 17.7845C84.8822 17.8534 84.8486 17.9172 84.7983 17.9685C82.4748 19.9028 82.3875 20.194 82.0482 19.8691Z" fill="#50735F"/>
</svg>
