<svg width="119" height="119" viewBox="0 0 119 119" fill="none" xmlns="http://www.w3.org/2000/svg">
<path d="M54.3162 34.2396C54.105 34.0949 53.8471 34.0349 53.5938 34.0714C53.5207 34.0909 53.6336 34.2204 53.3802 34.1285L53.6492 34.0084C53.2903 33.932 52.9198 33.9287 52.5596 33.9986L52.1069 33.9721L52.2502 33.9338C51.9262 33.8683 51.5918 33.8745 51.2705 33.9519C51.3894 33.8899 51.6087 33.7529 51.2806 33.7534L50.9996 33.8285C50.9597 33.8031 51.102 33.7499 50.6374 33.814C50.7557 33.8848 50.2556 33.895 50.139 33.7967C50.1921 33.8939 50.4764 33.9324 50.5035 34.0336C50.0365 33.9988 50.1567 34.2679 49.7364 34.2388L49.7897 34.1342C49.514 34.1443 49.2422 34.2017 48.986 34.304L49.0113 34.252C48.3662 34.283 47.9457 34.4106 47.4947 34.2782L47.1575 34.3684C47.2491 34.3168 47.2079 34.2977 47.0567 34.2839C46.7928 34.2882 46.402 34.4591 46.5429 34.4907C45.6781 34.4208 45.4423 34.6646 44.484 34.7403C44.5103 34.6248 44.0918 34.7488 44.25 34.6312L43.9728 34.7204C44.0177 34.7084 43.9653 34.6923 43.9615 34.6782C43.9253 34.6705 43.8877 34.6727 43.8528 34.6847C43.8178 34.6967 43.7867 34.7181 43.763 34.7464L43.7845 34.7256L43.3695 34.7613L43.3647 34.856L43.0536 34.8187C43.2311 34.6718 43.688 34.6911 43.7585 34.5608C43.4102 34.5168 43.0566 34.5687 42.7358 34.7109C42.4645 34.7323 42.1952 34.7501 41.9247 34.7743C41.8816 34.7256 41.9556 34.766 41.689 34.7711C41.4731 34.7746 41.467 34.8304 41.1877 34.8781C41.2419 34.8675 41.2935 34.8465 41.3398 34.8163C40.99 34.8255 40.9479 34.9723 40.7082 35.0666C40.8641 35.039 41.0173 34.998 41.1662 34.9441C41.2103 34.9624 41.1745 34.975 41.1782 34.989L41.5699 34.8662C41.5482 34.9202 41.5015 34.8694 41.7408 34.8747C41.4798 34.9234 41.4122 34.9295 41.1297 34.999C41.0017 35.1056 41.3237 35.0827 41.1509 35.1681C39.7526 35.4789 38.6711 35.6116 37.61 35.787C36.4526 35.9528 35.3236 36.2771 34.2547 36.751C33.7951 36.7646 33.341 36.8555 32.9116 37.02L33.0139 37.0197C32.6507 37.2042 32.4749 37.0645 32.2137 37.27L31.9585 37.4979C31.7903 37.5218 31.3965 37.6482 31.4566 37.5689C31.2312 37.7166 30.6963 37.7994 30.7113 37.9792C30.1583 38.1633 29.8217 38.2443 29.2975 38.4569C29.334 38.4471 29.3285 38.4154 29.3285 38.4154C29.1893 38.4015 29.113 38.6116 28.9397 38.5827C28.9979 38.5189 29.422 38.3482 29.0585 38.4304C28.8427 38.6478 28.0776 38.8043 27.9519 38.7958C27.8272 38.857 27.7113 38.9346 27.6072 39.0266C27.4077 39.08 27.103 39.0892 27.392 38.9426C26.8448 39.2155 26.7673 39.0946 26.7362 39.3048C26.1308 39.6867 25.6162 39.6767 25.0785 40.0978C24.0875 40.4563 23.114 40.8915 22.2685 41.0514L22.2345 41.1268C22.3196 40.9383 21.5379 41.2017 21.7862 40.9816C21.4962 41.1902 21.1669 41.3378 20.8182 41.4153L20.9156 41.2838C21.4101 41.1515 21.0298 41.193 21.6061 40.9725C21.5523 41.008 21.5089 41.0257 21.5353 41.0457C21.8277 40.8892 22.4218 40.6338 22.7177 40.4793L22.6705 40.5733C23.1615 40.3937 23.2665 40.0885 23.7215 39.8312C24.1247 39.7625 23.6772 39.9244 23.8117 40.033C24.3299 39.798 23.9885 39.4223 24.5636 39.4673L24.4561 39.5382C25.103 39.2778 24.2075 39.7343 24.7149 39.6166C25.7212 39.1576 24.2766 39.52 25.1416 39.0506C25.1114 39.1852 25.3298 39.1237 25.5705 39.0895C25.662 38.9023 26.3292 38.5491 26.5784 38.2986C26.5533 38.3626 26.7911 38.317 27.0825 38.1909C26.932 38.3486 26.7932 38.3587 26.4356 38.4965C26.4078 38.5612 26.3253 38.6917 26.4845 38.6792C26.6811 38.3675 27.742 38.0114 27.9121 37.7129C27.7827 37.8258 28.172 37.7277 28.1816 37.7974C28.3354 37.6765 28.5033 37.5749 28.6818 37.4949L28.4008 37.5701C28.9009 37.4362 29.4484 37.0518 30.007 36.821L30.0175 36.8604C30.3887 36.6418 30.7782 36.456 31.1817 36.3049C30.9813 36.4338 31.2253 36.4679 31.3321 36.4846C31.4735 36.5853 30.6121 36.9784 31.1545 36.8785C31.5157 36.6644 31.6329 36.4161 32.2133 36.2669C32.3428 36.1208 31.9022 36.2296 31.7632 36.2728C32.1664 36.0806 32.8534 35.9811 33.0168 35.7928C32.8492 35.8527 32.778 35.8567 32.7751 35.8123C32.7804 35.832 33.2671 35.4005 33.4554 35.3953C33.3774 35.4975 33.4836 35.4329 33.3621 35.5528C33.5567 35.5246 33.7435 35.4572 33.9113 35.3547C33.9527 35.5093 33.3119 35.5452 33.4087 35.7271C34.2978 35.5164 34.4285 35.2735 35.1637 34.9714C35.4727 34.8822 35.7875 34.814 36.1058 34.7676C36.058 34.7803 35.9484 34.8097 35.9981 34.8265C36.7269 34.7821 36.4967 34.6419 37.074 34.6501C37.3604 34.4379 38.0967 34.2861 38.5626 34.2157C38.5109 34.2476 38.5027 34.307 38.4342 34.3434C39.3333 34.1029 40.096 33.8024 41.0152 33.7493L40.9944 33.7729C41.5482 33.682 42.0373 33.5632 42.6615 33.5107C42.507 33.552 42.4589 33.586 42.458 33.6164C43.2745 33.5847 43.8817 33.3108 44.775 33.2736C45.0157 33.3177 45.5346 33.209 45.454 33.3691C46.171 33.2918 45.1559 33.2229 45.8486 33.1671L45.7822 33.1668C46.661 32.9739 47.4589 33.0526 48.2734 32.901C48.5696 32.9528 48.871 32.9683 49.171 32.947C49.3853 32.8437 49.6123 32.7688 49.846 32.7243C50.0501 32.7329 50.2534 32.7388 50.5448 32.7362C50.1731 32.6639 50.7864 32.6715 50.9072 32.6392C50.7098 32.7342 50.9789 32.7495 50.5823 32.8315C51.3583 32.9071 51.0553 32.5514 51.866 32.6327L52.0034 32.7526C51.8497 32.746 51.6958 32.7549 51.5439 32.7792C51.8437 32.8338 52.1504 32.8402 52.4522 32.7982C52.5811 32.7396 51.8385 32.6762 52.4892 32.6437C52.4264 32.8142 52.9525 32.6312 53.2282 32.8286C53.4211 32.7378 53.6393 32.7155 53.8466 32.7656C53.8845 32.7946 53.8401 32.7975 53.8114 32.8142C54.3009 32.8881 53.9842 32.6836 54.4409 32.7361C54.5202 32.7962 54.1513 32.8467 54.3839 32.9171C54.7897 33.0495 54.5019 32.8855 54.9699 32.935C54.8379 32.892 55.0034 32.7453 55.2614 32.7305C55.2855 32.8205 55.2877 32.9524 54.8704 32.9797C55.088 33.039 55.4637 33.1042 55.1046 33.1912C55.6273 33.0514 56.3582 33.0938 56.9433 33.0186C57.0948 33.0899 57.2592 33.1299 57.4265 33.1364C57.7195 33.1062 57.9061 32.9147 58.1432 33.0018C58.2809 32.965 58.0824 32.9097 58.0732 32.8639C58.2186 32.8672 58.3627 32.8768 58.5068 32.8865C58.7583 32.9939 58.1556 32.9805 58.3095 33.0718L58.7044 33.1861C59.0673 33.2035 58.7977 33.0286 58.7032 32.9454C59.0489 33.112 59.1981 32.9606 59.4491 33.0772C58.8867 32.9897 59.6772 33.3446 58.9742 33.2043L59.2518 33.3078C59.2751 33.3949 58.8278 33.3097 58.7561 33.3681C59.1907 33.4958 59.3242 33.4209 59.7349 33.5491C59.5877 33.6517 59.2309 33.4098 58.9898 33.5104C59.4884 33.7084 59.8664 33.6916 59.987 33.8612C59.7241 33.8351 59.3902 33.6112 59.2437 33.7166C59.3164 33.8249 59.4139 33.9141 59.5281 33.9769C59.6424 34.0396 59.77 34.074 59.9003 34.0772C60.082 34.0587 59.8053 33.9249 59.5862 33.86L59.5431 33.9016L59.5388 33.8064C59.7519 33.894 60.1145 33.9325 60.3514 34.0077C60.3918 34.0444 60.4384 34.0738 60.489 34.0944C60.489 34.0944 60.4837 34.0748 60.48 34.0607C60.5046 34.0731 60.5259 34.0911 60.5422 34.1133C60.6135 34.1374 60.6867 34.1551 60.7611 34.1662C60.8185 34.178 60.9003 34.1802 60.9781 34.1895C61.1245 34.1972 61.2677 34.2348 61.399 34.2998L60.9251 34.2278C60.9254 34.3301 61.2354 34.431 61.5638 34.5781C61.8637 34.6635 62.5082 34.8556 62.445 34.6978L62.2056 34.6474C62.3691 34.5042 62.7476 34.9061 62.7468 34.6894C62.6712 34.6499 62.5881 34.627 62.503 34.6221C62.7231 34.6234 62.7183 34.5042 62.3957 34.3676L62.1147 34.4427C61.8517 34.236 61.5975 34.3552 61.2588 34.1807C61.2842 34.1408 61.2222 34.1001 61.3132 34.1029C61.6352 34.2003 61.9706 34.2458 62.3068 34.2377C61.907 34.1278 62.3502 34.1297 62.1444 34.0582C62.7441 34.2292 62.45 33.9403 63.1002 34.1309L62.8132 34.1836C63.3753 34.3826 63.4225 34.2103 63.6946 34.1918C63.9026 34.2717 64.1321 34.5327 64.4997 34.5789C64.9356 34.8238 64.8958 34.5964 65.2813 34.6981C65.1819 34.788 64.8037 34.7024 64.5715 34.6561C64.5956 34.6684 64.6205 34.6788 64.6462 34.6873C64.6237 34.6933 64.5987 34.6789 64.59 34.7024C64.8667 34.8814 65.6426 34.8666 65.2976 34.9951C64.6872 34.7396 64.1375 34.7782 63.4852 34.6696C63.2928 34.6113 63.1047 34.5399 62.9221 34.4557C62.8225 34.5335 62.7718 34.6254 62.9584 34.7713C63.3706 34.7816 63.2819 34.6637 63.787 34.7846C64.1478 34.9002 64.5156 34.993 64.888 35.0625L64.8572 34.9472C65.2755 35.0251 66.0556 35.3074 66.0607 35.1916C65.9873 35.2323 66.1468 35.3222 66.3288 35.3608L66.0727 35.3601C66.1528 35.4682 66.7337 35.6924 66.5221 35.7008C67.0964 35.9116 67.1057 35.7886 67.6458 36.0629C68.0806 36.2478 68.386 35.9824 69.1174 36.353C69.2042 36.5196 68.5308 36.2087 68.811 36.4681C69.192 36.6813 69.623 36.7885 70.0594 36.7788C69.8616 36.636 70.0775 36.6776 70.1053 36.6129L70.3976 36.7938C70.2843 36.8542 70.2483 36.6861 70.0441 36.7106C70.2037 36.8457 70.3824 36.9563 70.5745 37.0387L70.4081 37.047C70.6042 37.1723 70.9076 37.2147 70.8864 37.3378L71.3588 37.4043C71.7035 37.6796 71.8557 37.6298 72.1659 37.7426L71.925 37.551L72.2531 37.7645C72.5147 37.8421 72.0929 37.5483 72.4996 37.7407C72.1635 37.7222 72.8353 38.0275 72.7273 38.1528C72.5505 38.0434 72.2241 37.8476 72.2437 37.9658C72.4239 38.0931 72.5845 38.246 72.7205 38.4197C72.7092 38.3775 72.9912 38.5762 73.0232 38.5496L72.9675 38.0825C73.1768 38.1109 73.2415 38.6117 73.4586 38.7253C73.0683 38.5496 73.5057 38.8001 73.3884 38.8345C73.6237 38.9372 73.8799 39.0283 74.1343 39.135C74.3802 39.2416 74.6161 39.3701 74.8391 39.5188L74.6731 39.506C75.009 39.6361 74.8508 39.7085 75.2691 39.8768C75.4365 39.9284 74.9691 39.6558 75.2625 39.7731C76.7394 40.7895 78.1617 41.8832 79.5234 43.0496C79.3949 43.1321 79.9698 43.5929 80.1683 43.817C80.3241 43.8928 80.2587 43.7385 80.0971 43.6522C80.3506 43.7985 80.5832 43.9785 80.7883 44.1873C80.8053 44.3635 81.0491 44.5544 81.2583 44.7063C81.1442 44.6735 81.1906 44.8358 80.8901 44.4553C80.9569 44.57 80.3011 44.167 80.7846 44.6462C81.0894 44.8153 81.3819 45.0058 81.6598 45.2164C81.9566 45.4514 82.2356 45.708 82.4945 45.9843C82.6982 46.1871 82.8793 46.4113 83.0347 46.6531L82.9202 46.5964C82.9487 46.6523 82.991 46.7001 83.043 46.7352C83.0951 46.7703 83.1552 46.7916 83.2177 46.7969C83.4532 47.0804 83.2136 47.018 83.0991 46.9612C83.6663 47.5958 83.9542 47.6363 84.4816 48.3808C84.5601 48.5617 84.3664 48.502 84.616 48.8269C85.4279 49.7851 86.1153 50.8421 86.662 51.9729L86.7293 52.3255L87.0321 52.5457C87.247 53.1691 87.4857 53.7348 87.7182 54.3113C87.9507 54.8877 88.1834 55.4762 88.3962 56.1363C88.325 56.0167 88.2872 55.8642 88.2179 55.8074C88.3871 56.2261 88.7526 56.5681 88.8502 56.9668C88.803 56.9881 88.7528 57.0015 88.7013 57.0066C88.9369 57.4708 89.1672 57.7014 89.3968 58.2334C89.387 58.3204 89.2499 58.0106 89.2556 58.223L89.3836 58.5442C89.2465 58.3128 89.3426 58.751 89.2976 58.6727C89.293 58.5984 89.2736 58.5257 89.2404 58.4591C89.1702 58.4779 89.2628 58.7905 89.2788 58.985C89.3304 59.1218 89.4075 59.2187 89.4074 59.0832C89.4215 59.3385 89.3653 59.1396 89.2994 59.1633C89.3585 59.4969 89.3949 59.5203 89.5157 59.5332C89.5828 59.4911 89.5828 59.4911 89.5767 59.2548C89.6336 59.5944 89.6681 59.9374 89.6798 60.2816L89.8097 60.4517L89.7992 60.5027C89.8357 60.4929 89.8586 60.5109 89.8744 60.5248L89.8631 60.4826C90.1121 61.0237 90.3056 61.5886 90.4407 62.1688C90.5915 62.8002 90.7357 63.4515 90.9159 64.0239L91.0437 64.9628C90.8416 64.5228 90.7465 63.7619 90.6198 63.5699L90.6725 63.7667C90.6504 63.8419 90.6052 63.4141 90.4969 63.3919L90.4963 63.6933C90.5327 64.1445 90.7796 63.8856 90.6925 64.3367C90.5361 63.752 90.6421 64.5761 90.4814 64.2004C90.442 64.3796 90.5747 64.549 90.7133 64.7409C90.6786 64.6049 90.6537 64.4666 90.6387 64.327C90.7222 64.4252 90.7527 64.9442 90.9075 65.0052C90.9176 65.0623 90.9169 65.1207 90.9054 65.1775C90.9203 65.2663 90.903 65.3574 90.8567 65.4345C90.8673 65.4739 90.8793 65.5189 90.8951 65.5779C90.9657 65.5379 91.1024 65.8237 91.1201 66.0811C91.1374 66.1458 91.0274 65.9372 90.9736 65.9275C90.9235 66.4831 91.0506 66.9583 91.0801 67.586C91.0828 67.4389 91.1206 67.2945 91.1902 67.1649C91.2144 67.2275 91.2318 67.2926 91.2421 67.3589C91.273 67.3506 91.3127 67.4876 91.3426 67.5881L91.257 67.4483C91.2703 67.5973 91.3092 67.7428 91.3721 67.8785C91.4338 67.9403 91.4784 67.9946 91.4129 68.211C91.4006 68.145 91.3717 68.0832 91.3288 68.0316C91.3408 68.1807 91.3624 68.3289 91.3933 68.4753C91.3624 68.4836 91.2858 68.5914 91.2868 68.8653L91.4458 68.7505C91.4217 68.9943 91.4298 69.2403 91.4699 69.4821C91.3003 69.8498 91.7569 70.7911 91.5697 70.9014L91.5083 70.3907C91.4035 70.5844 91.1802 69.9633 91.1279 70.1731L91.3188 70.7968C91.3803 70.205 91.5866 71.3699 91.7375 71.2361C91.7778 71.4995 91.6682 71.6975 91.8128 71.9902C91.8102 72.2169 91.6732 71.8287 91.6819 72.0975C91.7285 72.2718 91.813 72.2161 91.8161 72.4864C91.7952 72.4649 91.7431 72.3824 91.7227 72.43C91.722 72.7315 91.8218 72.6204 91.8886 72.949L91.8889 72.8826C92.0049 73.0233 91.8978 73.287 91.8686 73.3581L92.089 74.1818C92.016 74.0778 91.8914 73.6683 91.8676 73.9397C91.684 73.6695 91.8731 72.7333 91.6033 72.8054C91.556 73.0561 91.7605 73.393 91.6719 73.6246C91.7977 73.6783 91.8498 74.053 91.9257 74.2917L91.8965 74.3628C91.9452 74.871 92.1127 74.3381 92.1453 74.8988C92.1126 74.9678 92.0075 74.8001 92.0455 75.1333C92.0776 75.1971 92.0981 75.3301 92.1618 75.3432L92.1709 75.2534C92.2413 75.1563 92.2611 75.6691 92.2757 75.9153C92.2115 75.7878 92.1382 75.7502 92.1328 75.9776C92.104 75.5545 91.8867 75.6428 91.8618 75.2909C91.9253 75.4155 92.0358 75.7836 92.0744 75.5564C92.1097 75.2608 91.9489 75.0086 91.8707 74.6378L91.8854 74.8839C91.7006 74.9696 91.6781 74.2555 91.4798 74.167C91.4915 74.2783 91.512 74.3663 91.4824 74.3681C91.5236 74.3421 91.4332 73.9927 91.419 73.8158L91.5269 73.9827C91.6067 73.4372 91.4155 73.5666 91.3993 73.0106C91.4754 73.0475 91.6197 73.8344 91.6271 73.3895C91.5334 73.3995 91.5683 73.0347 91.4929 73.0006L91.5891 72.6285C91.5079 72.3248 91.3945 71.9575 91.325 71.7652C91.3929 71.9034 91.4529 72.0452 91.5049 72.1901C91.4092 71.7759 91.6355 71.5526 91.4443 71.2543L91.4293 71.5023C91.4208 71.2854 91.3797 71.0709 91.3073 70.8662C91.2094 70.7478 91.1769 71.0427 91.1859 71.2451C91.1681 71.0661 91.1973 70.7028 91.1044 70.7156C91.1239 70.6413 91.126 70.5635 91.1105 70.4882C91.0951 70.4129 91.0625 70.3422 91.0154 70.2815C91.0207 69.9638 91.0614 70.1608 91.1306 70.1272C91.0615 69.8685 91.0525 69.2835 90.9336 69.3906C90.9193 69.5059 91.0174 69.8502 90.8936 69.7026C91.0037 69.5737 90.8153 69.5337 90.8159 69.3106C90.9865 69.6897 90.8654 68.8093 90.9927 69.0826C90.9622 68.8289 90.8959 68.5809 90.7956 68.346L90.8855 68.3219L90.7873 67.8873C90.885 67.7798 91.0327 68.0054 91.0066 67.5816C90.8336 67.2724 90.6602 67.4122 90.5226 66.8977L90.6658 66.9829C90.6632 66.8269 90.5505 66.3269 90.4732 66.3867C90.4211 66.5418 90.4015 66.706 90.4155 66.8691L90.413 66.8035C90.3069 66.5306 90.3238 67.2913 90.241 66.723C90.4243 66.8456 90.364 65.8887 90.4151 65.5618C90.3349 65.3314 90.2358 65.108 90.1189 64.8939C90.0821 64.9248 90.0996 65.2154 89.9932 65.0992C90.004 64.3854 89.6908 64.0926 89.7115 63.4273C89.7175 63.4498 89.7569 63.4393 89.7087 63.2593L89.7375 63.1643C89.6932 63.0612 89.6641 62.9523 89.651 62.841L89.5587 62.3385C89.584 62.3317 89.5191 62.2466 89.4613 62.1657C89.4718 62.205 89.4831 62.2472 89.482 62.3108L89.4613 62.1657C89.4207 62.1162 89.3943 62.0566 89.3851 61.9933C89.2649 61.9381 89.3577 61.621 89.3367 61.4188C89.3448 61.4607 89.3559 61.502 89.3698 61.5425C89.323 61.1874 89.0945 61.0648 89.1245 60.7043L89.1475 60.6439C89.164 60.7058 89.1798 60.7648 89.1828 60.7761L89.1422 60.6243C89.1031 60.4781 89.1046 60.4837 89.1197 60.5399C89.049 60.2756 88.9971 60.3407 88.8875 59.9423L88.9053 60.1665C88.8808 60.1009 88.8627 60.0331 88.8512 59.964C88.6702 59.5688 88.5332 59.1549 88.4427 58.7297C88.2326 58.5262 88.0706 58.2782 87.9685 58.004L88.1008 58.0259C88.0504 57.8375 88 57.6491 87.9504 57.4636C88.0261 57.5217 87.9693 57.2416 87.8561 56.8863L87.8659 56.9228C87.8613 56.652 87.7638 56.3909 87.5898 56.1833C87.5355 56.1044 87.3984 55.9182 87.4231 55.8754C87.3067 55.8343 87.1961 55.5446 87.0669 55.2869C87.0586 55.2479 87.0484 55.2095 87.0361 55.1716L87.0264 55.2254C86.9857 54.9833 86.7973 54.9433 86.77 54.6162C86.6338 54.1857 87.0062 54.6886 86.8178 54.1756L86.6542 53.9693C86.6346 53.8962 86.6699 53.938 86.6991 53.9573C86.5828 53.7474 86.5886 53.544 86.4396 53.4935C86.5047 53.8042 86.5868 54.1111 86.6855 54.4128C86.426 53.9491 86.2954 53.9448 86.0913 53.5536C86.0523 53.5429 86.1101 53.6239 86.1057 53.6973C85.9901 53.4903 85.9681 53.2732 86.0619 53.3536C85.9809 53.1523 85.8531 53.1473 85.7099 52.8934L85.5459 52.9554C85.3402 52.6322 85.1754 52.2846 85.0553 51.9208C85.2368 52.2277 85.4781 52.4433 85.5995 52.6609C85.7032 52.5307 85.8451 52.7458 85.9926 53.0046C86.0768 53.2313 86.1872 53.4475 86.3215 53.6486C86.2568 53.4069 86.5653 53.8847 86.3904 53.4223C86.1776 53.2232 86.2091 53.0822 86.0644 52.8227C86.0612 52.6307 86.306 52.9719 86.0412 52.4885C86.1021 52.7162 85.766 52.3151 85.9936 52.682C85.8337 52.4733 85.6868 52.2551 85.5538 52.0284C85.4393 51.8482 85.3277 51.6671 85.1226 51.3846C85.4349 51.8765 84.8755 51.2489 84.9974 51.5808C85.0886 51.46 85.5518 52.3362 85.221 51.6625L85.5154 52.0989C85.4842 52.1736 85.1699 51.6853 85.3296 52.1245C85.1437 51.8445 84.9394 51.5771 84.718 51.3241C84.8404 51.3426 84.6172 50.9474 84.6404 50.8539C84.5271 50.7004 84.3512 50.6059 84.3032 50.3928L84.5193 50.6151C84.3598 50.3565 84.4283 50.275 84.298 50.0357C84.1787 49.9049 84.1141 49.9222 84.1221 50.0195C83.897 49.6398 83.5837 49.3351 83.3442 48.9352C83.6727 49.3865 83.5128 48.9353 83.7805 49.2944L83.6189 48.9942C83.1269 48.5505 82.3753 47.902 82.125 47.9118C81.5434 47.3925 81.9351 47.3148 81.1383 46.7899C81.2448 46.8729 81.1676 46.6405 81.2469 46.6555C81.1238 46.4996 80.9847 46.3571 80.832 46.2302L81.0139 46.5611C80.6268 46.2137 80.2589 45.8455 79.9118 45.4581C80.0029 45.5061 79.9297 45.3449 80.1677 45.5253C80.2189 45.4694 79.9611 45.2371 79.8534 45.1273C79.5518 44.9339 79.6399 45.1844 79.3129 44.9526C77.7156 43.4693 75.9991 42.1199 74.1808 40.9181C72.36 39.7204 70.4521 38.6609 68.4731 37.7485L68.5011 37.6958C67.2202 37.2071 65.854 36.6809 64.446 36.1899C63.7448 35.9437 63.029 35.7105 62.3142 35.492C61.9519 35.3871 61.5965 35.2743 61.2337 35.1785L60.692 35.0222C60.6752 35.0267 60.5397 34.9816 60.4956 34.9633L60.3693 34.9188L60.1118 34.834L60.1246 34.8818C59.3523 34.3925 59.5339 35.0037 58.6826 34.5114C58.0353 34.6244 57.195 34.2406 56.4076 34.37L56.3447 34.2813C56.045 34.3458 55.7344 34.3402 55.4371 34.2651C55.2763 34.2368 55.1142 34.2169 54.9514 34.2053L54.8272 34.2023L54.6452 34.2088L54.5203 34.2031L54.4539 34.2028C54.4045 34.2431 54.3578 34.2375 54.3162 34.2396Z" fill="#C58A46"/>
<path d="M89.4613 62.1657C89.5191 62.2466 89.584 62.3317 89.5587 62.3385L89.651 62.841C89.6641 62.9523 89.6932 63.0612 89.7375 63.1643L89.7087 63.2593C89.7569 63.4393 89.7175 63.4498 89.7115 63.4273C89.6908 64.0926 90.004 64.3854 89.9932 65.0992C90.0996 65.2154 90.0821 64.9248 90.1189 64.8939C90.2358 65.108 90.3349 65.3314 90.4151 65.5618C90.364 65.8887 90.4243 66.8456 90.241 66.723C90.3238 67.2913 90.3069 66.5306 90.413 66.8035L90.4156 66.8691C90.4015 66.706 90.4211 66.5418 90.4732 66.3867C90.5505 66.3269 90.6632 66.8269 90.6658 66.9829L90.5226 66.8977C90.6602 67.4122 90.8336 67.2724 91.0066 67.5816C91.0327 68.0054 90.885 67.7798 90.7873 67.8873L90.8855 68.3219L90.7956 68.346C90.8959 68.5809 90.9622 68.8289 90.9927 69.0826C90.8654 68.8093 90.9865 69.6897 90.8158 69.3106C90.8153 69.5337 91.0036 69.5737 90.8936 69.7026C91.0174 69.8502 90.9193 69.5059 90.9336 69.3906C91.0525 69.2835 91.0615 69.8685 91.1307 70.1272C91.0614 70.1608 91.0207 69.9638 91.0154 70.2815C91.0625 70.3422 91.0951 70.4129 91.1105 70.4882C91.126 70.5635 91.1239 70.6413 91.1044 70.7156C91.1973 70.7028 91.1681 71.0661 91.1859 71.2451C91.1769 71.0427 91.2094 70.7478 91.3073 70.8662C91.3797 71.0709 91.4208 71.2854 91.4293 71.5023L91.4443 71.2543C91.6355 71.5526 91.4092 71.7759 91.5049 72.1901C91.4529 72.0452 91.3929 71.9034 91.325 71.7652C91.3945 71.9575 91.5079 72.3248 91.5891 72.6285L91.4929 73.0006C91.5683 73.0347 91.5334 73.3995 91.6271 73.3895C91.6197 73.8344 91.4754 73.0475 91.3993 73.0106C91.4155 73.5666 91.6067 73.4372 91.5269 73.9827L91.419 73.8158C91.4332 73.9927 91.5236 74.3421 91.4824 74.3681C91.512 74.3663 91.4915 74.2783 91.4798 74.167C91.6781 74.2555 91.7006 74.9696 91.8854 74.8839L91.8708 74.6378C91.9489 75.0086 92.1097 75.2608 92.0744 75.5564C92.0358 75.7836 91.9253 75.4155 91.8618 75.2909C91.8867 75.6428 92.104 75.5545 92.1328 75.9776C92.1382 75.7502 92.2115 75.7878 92.2757 75.9153C92.2611 75.6691 92.2413 75.1563 92.1709 75.2534L92.1618 75.3432C92.0981 75.3301 92.0776 75.1971 92.0455 75.1333C92.0075 74.8001 92.1126 74.9678 92.1453 74.8988C92.1127 74.3381 91.9452 74.871 91.8965 74.3628L91.9257 74.2917C91.8498 74.053 91.7977 73.6783 91.6719 73.6246C91.7605 73.393 91.556 73.0561 91.6033 72.8054C91.8731 72.7333 91.684 73.6695 91.8676 73.9397C91.8914 73.6683 92.016 74.0778 92.089 74.1818L91.8686 73.3581C91.8978 73.287 92.0049 73.0233 91.8889 72.8826L91.8886 72.949C91.8218 72.6204 91.722 72.7315 91.7227 72.43C91.7431 72.3824 91.7952 72.4649 91.8161 72.4864C91.813 72.2161 91.7285 72.2718 91.6819 72.0975C91.6732 71.8287 91.8102 72.2169 91.8128 71.9902C91.6682 71.6975 91.7778 71.4995 91.7375 71.2361C91.5866 71.3699 91.3803 70.205 91.3188 70.7968L91.1279 70.1731C91.1802 69.9633 91.4035 70.5844 91.5083 70.3907L91.5697 70.9014C91.7569 70.7911 91.3003 69.8498 91.4699 69.4821C91.4298 69.2403 91.4217 68.9943 91.4458 68.7505L91.2868 68.8653C91.2858 68.5914 91.3624 68.4836 91.3933 68.4753C91.3624 68.3289 91.3408 68.1807 91.3288 68.0316C91.3717 68.0832 91.4006 68.145 91.4129 68.211C91.4784 67.9946 91.4338 67.9403 91.3721 67.8785C91.3092 67.7428 91.2703 67.5973 91.257 67.4483L91.3426 67.5881C91.3127 67.4876 91.273 67.3506 91.2421 67.3589C91.2318 67.2926 91.2144 67.2275 91.1902 67.1649C91.1206 67.2945 91.0828 67.4389 91.0801 67.586C91.0506 66.9583 90.9235 66.4831 90.9736 65.9275C91.0274 65.9372 91.1374 66.1458 91.1201 66.0811C91.1024 65.8237 90.9657 65.5379 90.8951 65.5779C90.8793 65.5189 90.8673 65.4739 90.8567 65.4345C90.903 65.3574 90.9203 65.2663 90.9054 65.1775C90.9169 65.1207 90.9176 65.0623 90.9075 65.0052C90.7527 64.9442 90.7222 64.4252 90.6387 64.327C90.6537 64.4666 90.6786 64.6049 90.7133 64.7409C90.5747 64.549 90.442 64.3796 90.4814 64.2004C90.6421 64.5761 90.5361 63.752 90.6925 64.3367C90.7796 63.8856 90.5327 64.1445 90.4963 63.6933L90.4969 63.3919C90.6052 63.4141 90.6504 63.8419 90.6725 63.7667L90.6198 63.5699C90.7465 63.7619 90.8416 64.5228 91.0437 64.9628L90.9159 64.0239C90.7357 63.4515 90.5915 62.8002 90.4407 62.1688C90.3056 61.5886 90.1121 61.0237 89.8631 60.4826L89.8744 60.5248C89.8586 60.5109 89.8357 60.4929 89.7992 60.5027L89.8097 60.4517L89.6798 60.2816C89.6681 59.9374 89.6336 59.5944 89.5767 59.2548C89.5828 59.4911 89.5828 59.4911 89.5157 59.5332C89.3949 59.5203 89.3585 59.4969 89.2994 59.1633C89.3653 59.1396 89.4215 59.3385 89.4074 59.0832C89.4075 59.2187 89.3304 59.1218 89.2788 58.985C89.2628 58.7905 89.1702 58.4778 89.2404 58.4591C89.2736 58.5257 89.293 58.5984 89.2976 58.6727C89.3426 58.751 89.2465 58.3128 89.3836 58.5442L89.2556 58.223C89.2499 58.0106 89.387 58.3204 89.3968 58.2334C89.1672 57.7014 88.9369 57.4708 88.7013 57.0066C88.7528 57.0015 88.803 56.9881 88.8502 56.9668C88.7526 56.5681 88.3871 56.2261 88.2179 55.8074C88.2872 55.8642 88.325 56.0167 88.3962 56.1363C88.1834 55.4762 87.9507 54.8877 87.7182 54.3113C87.4857 53.7348 87.247 53.1691 87.0321 52.5457L86.7293 52.3255L86.662 51.9729C86.1154 50.8421 85.4279 49.7851 84.616 48.8269C84.3664 48.502 84.5601 48.5617 84.4816 48.3808C83.9542 47.6363 83.6663 47.5958 83.0991 46.9612C83.2136 47.018 83.4532 47.0804 83.2177 46.7969C83.1552 46.7916 83.0951 46.7703 83.043 46.7352C82.991 46.7001 82.9487 46.6523 82.9202 46.5964L83.0347 46.6531C82.8793 46.4113 82.6982 46.1871 82.4945 45.9843C82.2356 45.708 81.9566 45.4514 81.6598 45.2164C81.3819 45.0058 81.0894 44.8153 80.7846 44.6462C80.3011 44.167 80.9569 44.57 80.8901 44.4553C81.1906 44.8358 81.1442 44.6735 81.2583 44.7063C81.0491 44.5544 80.8053 44.3635 80.7883 44.1873C80.5832 43.9785 80.3506 43.7985 80.0971 43.6522C80.2587 43.7385 80.3241 43.8928 80.1683 43.817C79.9698 43.5929 79.3949 43.1321 79.5234 43.0496C78.1617 41.8832 76.7394 40.7895 75.2625 39.7731C74.9691 39.6558 75.4365 39.9284 75.2691 39.8768C74.8508 39.7085 75.009 39.6361 74.6731 39.506L74.8391 39.5188C74.6161 39.3701 74.3802 39.2416 74.1343 39.135C73.8799 39.0283 73.6237 38.9372 73.3884 38.8345C73.5057 38.8001 73.0683 38.5496 73.4586 38.7253C73.2415 38.6117 73.1768 38.1109 72.9675 38.0825L73.0232 38.5496C72.9912 38.5762 72.7092 38.3775 72.7205 38.4197C72.5845 38.246 72.4239 38.0931 72.2437 37.9658C72.2241 37.8476 72.5505 38.0434 72.7273 38.1528C72.8353 38.0275 72.1635 37.7222 72.4996 37.7407C72.0929 37.5483 72.5147 37.8421 72.2531 37.7645L71.925 37.551L72.1659 37.7426C71.8557 37.6298 71.7035 37.6796 71.3588 37.4043L70.8864 37.3378C70.9076 37.2147 70.6042 37.1723 70.4081 37.047L70.5745 37.0387C70.3824 36.9563 70.2037 36.8457 70.0441 36.7106C70.2483 36.6861 70.2843 36.8542 70.3976 36.7938L70.1053 36.6129C70.0775 36.6776 69.8616 36.636 70.0594 36.7788C69.623 36.7885 69.192 36.6813 68.811 36.4681C68.5308 36.2087 69.2042 36.5196 69.1174 36.353C68.386 35.9824 68.0806 36.2478 67.6458 36.0629C67.1057 35.7886 67.0964 35.9116 66.5221 35.7008C66.7337 35.6924 66.1528 35.4682 66.0727 35.3601L66.3288 35.3608C66.1468 35.3222 65.9873 35.2323 66.0607 35.1916C66.0556 35.3074 65.2755 35.0251 64.8572 34.9472L64.888 35.0625C64.5156 34.993 64.1478 34.9002 63.787 34.7846C63.2819 34.6637 63.3706 34.7816 62.9584 34.7713C62.7718 34.6254 62.8225 34.5335 62.9221 34.4557C63.1047 34.5399 63.2928 34.6113 63.4852 34.6696C64.1375 34.7782 64.6872 34.7396 65.2976 34.9951C65.6426 34.8666 64.8667 34.8814 64.59 34.7024C64.5987 34.6789 64.6237 34.6933 64.6462 34.6873C64.6205 34.6788 64.5956 34.6684 64.5715 34.6561C64.8037 34.7024 65.1819 34.788 65.2813 34.6981C64.8958 34.5964 64.9356 34.8238 64.4997 34.5789C64.1321 34.5327 63.9026 34.2717 63.6946 34.1918C63.4226 34.2103 63.3753 34.3826 62.8132 34.1836L63.1002 34.1309C62.45 33.9403 62.7441 34.2292 62.1444 34.0582C62.3502 34.1297 61.907 34.1278 62.3068 34.2377C61.9706 34.2458 61.6352 34.2003 61.3132 34.1029C61.2222 34.1001 61.2842 34.1408 61.2588 34.1807C61.5975 34.3552 61.8517 34.236 62.1147 34.4427L62.3957 34.3676C62.7183 34.5042 62.7231 34.6234 62.503 34.6221C62.5881 34.627 62.6712 34.6499 62.7468 34.6894C62.7476 34.9061 62.3691 34.5042 62.2056 34.6474L62.445 34.6978C62.5082 34.8556 61.8637 34.6635 61.5638 34.5781C61.2354 34.431 60.9254 34.3301 60.9251 34.2278L61.399 34.2998C61.2677 34.2348 61.1245 34.1972 60.9781 34.1895C60.9003 34.1802 60.8185 34.178 60.7611 34.1662C60.6867 34.1551 60.6135 34.1374 60.5422 34.1133C60.5259 34.0911 60.5046 34.0731 60.48 34.0607C60.4837 34.0748 60.489 34.0944 60.489 34.0944C60.4384 34.0738 60.3918 34.0444 60.3514 34.0077C60.1145 33.9325 59.7519 33.894 59.5388 33.8064L59.5431 33.9016L59.5862 33.86C59.8053 33.9249 60.082 34.0587 59.9003 34.0772C59.77 34.074 59.6424 34.0396 59.5281 33.9769C59.4139 33.9141 59.3164 33.8249 59.2437 33.7166C59.3902 33.6112 59.7241 33.8351 59.987 33.8612C59.8664 33.6916 59.4884 33.7084 58.9899 33.5104C59.2309 33.4098 59.5877 33.6517 59.7349 33.5491C59.3242 33.4209 59.1907 33.4958 58.7561 33.3681C58.8278 33.3097 59.2751 33.3949 59.2518 33.3078L58.9742 33.2043C59.6772 33.3446 58.8867 32.9897 59.4491 33.0772C59.1981 32.9606 59.0489 33.112 58.7032 32.9454C58.7977 33.0286 59.0673 33.2035 58.7044 33.1861L58.3095 33.0718C58.1556 32.9805 58.7583 32.9939 58.5068 32.8865C58.3627 32.8768 58.2186 32.8672 58.0732 32.8639C58.0824 32.9097 58.2809 32.965 58.1432 33.0018C57.9061 32.9147 57.7195 33.1062 57.4265 33.1364C57.2592 33.1299 57.0948 33.0899 56.9433 33.0186C56.3582 33.0938 55.6273 33.0514 55.1046 33.1912C55.4637 33.1042 55.088 33.039 54.8704 32.9797C55.2877 32.9524 55.2855 32.8205 55.2614 32.7305C55.0034 32.7453 54.8379 32.892 54.9699 32.935C54.5019 32.8855 54.7897 33.0495 54.3839 32.9171C54.1513 32.8467 54.5202 32.7962 54.4409 32.7361C53.9842 32.6836 54.3009 32.8881 53.8114 32.8142C53.8401 32.7975 53.8845 32.7946 53.8466 32.7656C53.6393 32.7155 53.4211 32.7378 53.2282 32.8286C52.9525 32.6312 52.4264 32.8142 52.4892 32.6437C51.8385 32.6762 52.5811 32.7396 52.4522 32.7982C52.1504 32.8402 51.8437 32.8338 51.5438 32.7792C51.6958 32.7549 51.8497 32.746 52.0034 32.7526L51.866 32.6327C51.0553 32.5514 51.3583 32.9071 50.5823 32.8315C50.9789 32.7495 50.7098 32.7342 50.9072 32.6392C50.7864 32.6715 50.1731 32.6639 50.5448 32.7362C50.2534 32.7388 50.0501 32.7329 49.846 32.7243C49.6123 32.7688 49.3853 32.8437 49.171 32.947C48.871 32.9683 48.5696 32.9528 48.2734 32.901C47.4589 33.0526 46.661 32.9739 45.7822 33.1668L45.8486 33.1671C45.1559 33.2229 46.171 33.2918 45.454 33.3691C45.5346 33.209 45.0157 33.3177 44.775 33.2736C43.8817 33.3108 43.2745 33.5847 42.458 33.6164C42.4589 33.586 42.507 33.552 42.6615 33.5107C42.0373 33.5632 41.5482 33.682 40.9944 33.7729L41.0152 33.7493C40.096 33.8024 39.3333 34.1029 38.4342 34.3434C38.5027 34.307 38.5109 34.2476 38.5626 34.2157C38.0967 34.2861 37.3604 34.4379 37.074 34.6501C36.4967 34.6419 36.7269 34.7821 35.9981 34.8265C35.9484 34.8097 36.058 34.7803 36.1058 34.7676C35.7875 34.814 35.4727 34.8822 35.1637 34.9714C34.4285 35.2735 34.2978 35.5164 33.4087 35.7271C33.3119 35.5452 33.9527 35.5093 33.9113 35.3547C33.7435 35.4572 33.5567 35.5246 33.3621 35.5528C33.4836 35.4329 33.3774 35.4975 33.4554 35.3953C33.2671 35.4005 32.7804 35.832 32.7751 35.8123C32.778 35.8567 32.8492 35.8527 33.0168 35.7928C32.8534 35.9811 32.1664 36.0806 31.7632 36.2728C31.9022 36.2296 32.3428 36.1208 32.2133 36.2669C31.6329 36.4161 31.5157 36.6644 31.1545 36.8785C30.6121 36.9784 31.4735 36.5853 31.3321 36.4846C31.2253 36.4679 30.9813 36.4338 31.1817 36.3049C30.7782 36.456 30.3887 36.6418 30.0175 36.8604L30.007 36.821C29.4484 37.0518 28.9009 37.4362 28.4008 37.5701L28.6818 37.4949C28.5033 37.5749 28.3354 37.6765 28.1816 37.7974C28.172 37.7277 27.7827 37.8258 27.9121 37.7129C27.742 38.0114 26.6811 38.3675 26.4845 38.6792C26.3253 38.6917 26.4078 38.5612 26.4356 38.4965C26.7932 38.3587 26.932 38.3486 27.0825 38.1909C26.7911 38.317 26.5533 38.3626 26.5784 38.2986C26.3292 38.5491 25.662 38.9023 25.5705 39.0895C25.3298 39.1237 25.1114 39.1852 25.1416 39.0506C24.2766 39.52 25.7212 39.1576 24.7149 39.6166C24.2075 39.7343 25.103 39.2778 24.4561 39.5382L24.5636 39.4673C23.9885 39.4223 24.3299 39.798 23.8117 40.033C23.6772 39.9244 24.1247 39.7625 23.7215 39.8312C23.2665 40.0885 23.1615 40.3937 22.6705 40.5733L22.7177 40.4793C22.4218 40.6338 21.8277 40.8892 21.5353 41.0457C21.5089 41.0257 21.5523 41.008 21.6061 40.9725C21.0298 41.193 21.4101 41.1515 20.9156 41.2838L20.8182 41.4153C21.1669 41.3378 21.4962 41.1902 21.7862 40.9816C21.5379 41.2017 22.3196 40.9383 22.2345 41.1268L22.2685 41.0514C23.114 40.8915 24.0875 40.4563 25.0785 40.0978C25.6162 39.6767 26.1308 39.6867 26.7362 39.3048C26.7673 39.0946 26.8448 39.2155 27.392 38.9426C27.103 39.0892 27.4077 39.08 27.6072 39.0266C27.7113 38.9346 27.8272 38.857 27.9519 38.7958C28.0776 38.8043 28.8427 38.6478 29.0585 38.4304C29.422 38.3482 28.9979 38.5189 28.9397 38.5827C29.113 38.6116 29.1893 38.4015 29.3285 38.4154C29.3285 38.4154 29.334 38.4471 29.2975 38.4569C29.8217 38.2443 30.1583 38.1633 30.7113 37.9792C30.6963 37.7994 31.2312 37.7166 31.4566 37.5689C31.3965 37.6482 31.7903 37.5218 31.9585 37.4979L32.2137 37.27C32.4749 37.0645 32.6507 37.2042 33.0139 37.0197L32.9116 37.02C33.341 36.8555 33.7951 36.7646 34.2547 36.751C35.3236 36.2771 36.4526 35.9528 37.61 35.787C38.6711 35.6116 39.7526 35.4789 41.1509 35.1681C41.3237 35.0827 41.0017 35.1056 41.1297 34.999C41.4122 34.9295 41.4798 34.9234 41.7408 34.8747C41.5015 34.8694 41.5482 34.9202 41.5699 34.8662L41.1782 34.989C41.1745 34.975 41.2103 34.9624 41.1662 34.9441C41.0173 34.998 40.8641 35.039 40.7082 35.0666C40.9479 34.9723 40.99 34.8255 41.3398 34.8163C41.2935 34.8465 41.2419 34.8675 41.1877 34.8781C41.467 34.8304 41.4731 34.7746 41.689 34.7711C41.9556 34.766 41.8816 34.7256 41.9247 34.7743C42.1952 34.7501 42.4645 34.7323 42.7358 34.7109C43.0566 34.5687 43.4102 34.5168 43.7585 34.5608C43.688 34.6911 43.2311 34.6718 43.0536 34.8187L43.3647 34.856L43.3695 34.7613L43.7845 34.7256L43.763 34.7464C43.7867 34.7181 43.8178 34.6967 43.8528 34.6847C43.8877 34.6727 43.9253 34.6705 43.9615 34.6782C43.9653 34.6923 44.0177 34.7084 43.9728 34.7204L44.25 34.6312C44.0918 34.7488 44.5103 34.6248 44.484 34.7403C45.4423 34.6646 45.6781 34.4208 46.5429 34.4907C46.402 34.4591 46.7928 34.2882 47.0567 34.2839C47.2079 34.2977 47.2491 34.3168 47.1575 34.3684L47.4947 34.2782C47.9457 34.4106 48.3662 34.283 49.0113 34.252L48.986 34.304C49.2422 34.2017 49.514 34.1443 49.7897 34.1342L49.7364 34.2388C50.1567 34.2679 50.0365 33.9988 50.5035 34.0336C50.4764 33.9324 50.1921 33.8939 50.139 33.7967C50.2556 33.895 50.7557 33.8848 50.6374 33.814C51.102 33.7499 50.9597 33.8031 50.9996 33.8285L51.2806 33.7534C51.6087 33.7529 51.3894 33.8899 51.2705 33.9519C51.5918 33.8745 51.9262 33.8683 52.2502 33.9338L52.1069 33.9721L52.5596 33.9986C52.9198 33.9287 53.2903 33.932 53.6492 34.0084L53.3802 34.1285C53.6336 34.2204 53.5207 34.0909 53.5938 34.0714C53.8471 34.0349 54.105 34.0949 54.3162 34.2396C54.3578 34.2375 54.4045 34.2431 54.4539 34.2028L54.5203 34.2031L54.6452 34.2088L54.8272 34.2023L54.9514 34.2053C55.1142 34.2169 55.2763 34.2368 55.4371 34.2651C55.7344 34.3402 56.045 34.3458 56.3447 34.2813L56.4076 34.37C57.195 34.2406 58.0353 34.6244 58.6826 34.5114C59.5339 35.0037 59.3523 34.3925 60.1246 34.8818L60.1118 34.834L60.3693 34.9188L60.4956 34.9633C60.5397 34.9816 60.6752 35.0267 60.692 35.0222L61.2337 35.1785C61.5965 35.2743 61.9519 35.3871 62.3142 35.492C63.029 35.7105 63.7448 35.9437 64.446 36.1899C65.854 36.6809 67.2202 37.2071 68.5011 37.6958L68.4731 37.7485C70.4521 38.6609 72.36 39.7204 74.1808 40.9181C75.9991 42.1199 77.7156 43.4693 79.3129 44.9526C79.6399 45.1844 79.5518 44.9339 79.8534 45.1273C79.9611 45.2371 80.2189 45.4694 80.1677 45.5253C79.9297 45.3449 80.0029 45.5061 79.9118 45.4581C80.2589 45.8455 80.6268 46.2137 81.0139 46.5611L80.832 46.2302C80.9847 46.3571 81.1238 46.4996 81.2469 46.6555C81.1676 46.6405 81.2448 46.8729 81.1383 46.7899C81.9351 47.3148 81.5434 47.3925 82.1249 47.9118C82.3753 47.902 83.1269 48.5505 83.6189 48.9942L83.7805 49.2944C83.5128 48.9353 83.6727 49.3865 83.3442 48.9352C83.5837 49.3351 83.897 49.6398 84.1221 50.0195C84.1141 49.9222 84.1787 49.9049 84.298 50.0357C84.4283 50.275 84.3598 50.3565 84.5193 50.6151L84.3032 50.3928C84.3512 50.6059 84.5271 50.7004 84.6404 50.8539C84.6172 50.9474 84.8404 51.3426 84.718 51.3241C84.9394 51.5771 85.1437 51.8445 85.3296 52.1245C85.1699 51.6853 85.4842 52.1736 85.5154 52.0989L85.221 51.6625C85.5518 52.3362 85.0886 51.46 84.9974 51.5808C84.8755 51.2489 85.4349 51.8765 85.1226 51.3846C85.3277 51.6671 85.4393 51.8482 85.5538 52.0284C85.6868 52.2551 85.8337 52.4733 85.9936 52.682C85.766 52.3151 86.1021 52.7162 86.0412 52.4885C86.306 52.9719 86.0612 52.6307 86.0644 52.8227C86.2091 53.0822 86.1776 53.2232 86.3904 53.4223C86.5653 53.8847 86.2568 53.4069 86.3215 53.6486C86.1872 53.4475 86.0768 53.2313 85.9926 53.0046C85.8451 52.7458 85.7032 52.5307 85.5995 52.6609C85.4781 52.4433 85.2368 52.2277 85.0553 51.9208C85.1754 52.2846 85.3402 52.6322 85.5459 52.9554L85.7099 52.8934C85.8531 53.1473 85.9809 53.1523 86.0619 53.3536C85.9681 53.2732 85.9901 53.4903 86.1057 53.6973C86.1101 53.6239 86.0523 53.5429 86.0913 53.5536C86.2954 53.9448 86.426 53.9491 86.6855 54.4128C86.5868 54.1111 86.5047 53.8042 86.4396 53.4935C86.5886 53.544 86.5828 53.7474 86.6991 53.9573C86.6699 53.938 86.6346 53.8962 86.6542 53.9693L86.8178 54.1756C87.0062 54.6886 86.6338 54.1857 86.77 54.6162C86.7973 54.9433 86.9857 54.9833 87.0264 55.2254L87.0361 55.1716C87.0484 55.2095 87.0586 55.248 87.0669 55.2869C87.1961 55.5446 87.3067 55.8343 87.4231 55.8754C87.3984 55.9182 87.5355 56.1044 87.5898 56.1833C87.7638 56.3909 87.8613 56.652 87.8659 56.9228L87.8561 56.8863C87.9693 57.2416 88.0261 57.5217 87.9504 57.4636C88 57.6491 88.0504 57.8375 88.1008 58.0259L87.9685 58.004C88.0706 58.2782 88.2326 58.5262 88.4427 58.7297C88.5332 59.1549 88.6702 59.5688 88.8512 59.964C88.8627 60.0331 88.8808 60.1009 88.9053 60.1665L88.8875 59.9423C88.9971 60.3407 89.049 60.2756 89.1197 60.5399C89.1046 60.4837 89.1031 60.4781 89.1422 60.6243L89.1828 60.7761C89.1798 60.7648 89.164 60.7058 89.1475 60.6439L89.1245 60.7043C89.0945 61.0648 89.323 61.1874 89.3698 61.5425C89.3559 61.502 89.3448 61.4607 89.3367 61.4188C89.3577 61.621 89.2649 61.9381 89.3851 61.9933C89.3943 62.0566 89.4207 62.1162 89.4613 62.1657ZM89.4613 62.1657C89.4718 62.205 89.4831 62.2472 89.482 62.3108L89.4613 62.1657Z" stroke="#C58A46" stroke-width="0.5"/>
<path d="M92.2726 78.0215C92.357 77.9989 92.4549 78.0271 92.4149 77.9226C92.4085 77.8987 92.2728 77.887 92.3563 77.8615L92.4754 77.9576C92.5055 77.9312 92.5254 77.8941 92.5318 77.853C92.5391 77.7732 92.5397 77.6927 92.5337 77.6125L92.5924 77.5168L92.6245 77.569C92.6699 77.5024 92.7715 77.4656 92.695 77.3485C92.7391 77.4007 92.8437 77.5103 92.8763 77.4408L92.8515 77.3482C92.8768 77.3415 92.9085 77.4034 92.909 77.2817C92.8287 77.2743 92.8803 77.1742 92.9942 77.1949C92.8975 77.1599 92.8208 77.1997 92.7245 77.155C92.8222 77.0809 92.5598 76.9783 92.6606 76.9162L92.7481 76.9728C92.7662 76.9398 92.7749 76.9017 92.7731 76.8631C92.7713 76.8245 92.7591 76.7869 92.7379 76.7547L92.782 76.7845C92.8885 76.676 92.8205 76.5342 93.0128 76.5212L92.9864 76.4226C92.9913 76.4309 92.9978 76.4382 93.0054 76.4438C93.013 76.4495 93.0216 76.4535 93.0306 76.4556C93.0396 76.4577 93.0489 76.4578 93.0579 76.4559C93.0668 76.4541 93.0753 76.4503 93.0827 76.4449C93.1237 76.3955 93.0324 76.2567 92.9822 76.2606C93.1947 76.1429 93.0259 75.9961 93.1634 75.8121C93.2629 75.8687 93.2366 75.7477 93.3119 75.8268L93.2887 75.7402C93.2887 75.7402 93.3168 75.7551 93.3289 75.755C93.3409 75.755 93.3405 75.7199 93.3121 75.6923L93.3169 75.7103L93.374 75.631L93.2898 75.5863L93.3937 75.5585C93.4843 75.6495 93.3715 75.7116 93.4713 75.7809C93.4994 75.7734 93.6793 75.7253 93.5667 75.5634L93.6998 75.419C93.7556 75.4361 93.7038 75.434 93.7644 75.4017C93.8251 75.3695 93.7485 75.342 93.7899 75.2829C93.7881 75.3009 93.793 75.319 93.8035 75.3337C93.8798 75.2813 93.7699 75.2083 93.7499 75.1336C93.7282 75.165 93.7482 75.2173 93.7486 75.2524C93.7489 75.2875 93.7241 75.2397 93.7085 75.2375L93.7196 75.3465C93.6762 75.3197 93.7364 75.342 93.669 75.3601C93.6904 75.3159 93.7041 75.2678 93.7093 75.2181C93.6464 75.1517 93.5857 75.2064 93.5512 75.1452C93.7062 74.4862 94.3353 74.3947 94.2444 73.6606C94.354 73.6313 94.5219 73.516 94.4847 73.4332L94.4482 73.4429C94.4186 73.3325 94.6196 73.3971 94.5371 73.2688L94.4413 73.1472C94.4891 73.1344 94.5294 73.0372 94.5775 73.082C94.5535 72.9924 94.6877 72.9309 94.5152 72.849C94.5871 72.7588 94.6485 72.6597 94.6982 72.5537C94.7042 72.5622 94.7123 72.5689 94.7214 72.5731C94.7909 72.5737 94.6489 72.4709 94.7477 72.4797C94.7769 72.5102 94.7375 72.6104 94.8222 72.5557C94.7317 72.4424 94.9325 72.3374 95.0019 72.3381C95.0033 72.294 94.9916 72.2501 94.9684 72.2126C95.0078 72.1797 95.1398 72.1668 95.1337 72.2452C95.152 72.0995 95.2868 72.1531 95.1279 72.0548C95.076 71.8607 95.3321 71.8497 95.2401 71.6408C95.3784 71.4208 95.5751 71.2493 95.8067 71.1468L95.7646 71.1133C95.872 71.1997 96.0536 71.0679 96.1001 71.1739C96.0424 71.071 96.1549 70.9961 96.2276 70.9638L96.2833 71.0257C96.1407 71.0894 96.2953 71.0705 96.1944 71.1775C96.1896 71.1596 96.188 71.1536 96.1699 71.1424C96.1538 71.2171 96.0697 71.342 96.0544 71.4197L95.997 71.3743C95.907 71.4656 96.1047 71.6078 96.0945 71.7386C95.9568 71.7754 96.04 71.6924 95.8863 71.6471C95.8304 71.7644 96.3002 71.9331 95.9943 71.9382L95.9855 71.9053C95.8946 72.0384 95.9415 71.8083 95.7989 71.872C95.7055 72.1082 96.0826 71.9081 96.0651 72.1464C95.9696 72.0823 95.9154 72.1161 95.8339 72.1379C95.9449 72.2265 95.9287 72.4133 96.0272 72.5341C96.0139 72.5278 95.9995 72.5245 95.9851 72.5246C95.9706 72.5247 95.9565 72.5281 95.9436 72.5346C95.9307 72.5411 95.9194 72.5505 95.9104 72.5622C95.9015 72.5739 95.8952 72.5876 95.8919 72.6023C95.8286 72.5233 95.8687 72.5157 95.9266 72.4394C95.8881 72.4081 95.8168 72.344 95.7541 72.3576C95.9173 72.5059 95.7456 72.7086 95.9209 72.8569C95.8844 72.7995 95.7948 72.8587 95.7322 72.8274C95.796 72.8968 95.7666 72.9558 95.7754 72.9887L95.84 72.949C95.7219 73.0254 95.8332 73.2388 95.7949 73.377L95.7596 73.3576C95.7515 73.4622 95.8228 73.5935 95.7636 73.6765C95.7437 73.6019 95.6084 73.6029 95.5538 73.6015C95.411 73.5629 95.4149 73.3187 95.2879 73.407C95.3207 73.5295 95.4923 73.6531 95.4035 73.7601C95.478 73.8361 95.5528 73.7554 95.5637 73.7172C95.5736 73.833 95.4093 73.9281 95.5079 74.0265C95.518 73.9854 95.5441 73.9817 95.581 74.007C95.5629 73.9958 95.7593 74.2345 95.6946 74.2518C95.6349 74.1973 95.6509 74.2347 95.5916 74.1705C95.5213 74.1893 95.5509 74.255 95.5681 74.308C95.4193 74.2358 95.6129 74.1712 95.4207 74.0947C95.292 74.2667 95.4536 74.3866 95.4734 74.5957C95.4288 74.6653 95.4207 74.725 95.348 74.7797C95.348 74.7797 95.356 74.7423 95.3368 74.7379C95.1448 74.8308 95.3394 74.8716 95.1563 74.9302C95.2537 75.0577 95.1704 75.208 95.1028 75.2932C95.0964 75.2693 95.0383 75.2433 95.0263 75.2209C94.981 75.4346 95.0477 75.6727 94.8621 75.812L94.8573 75.7941C94.8219 75.9231 94.7683 76.0453 94.6983 76.1566C94.7 76.1397 94.6962 76.1226 94.6873 76.108C94.6785 76.0935 94.6652 76.0824 94.6498 76.0768C94.4887 76.2063 94.6052 76.4279 94.4597 76.582C94.3726 76.6053 94.37 76.7308 94.2405 76.6407C94.1757 76.7924 94.4295 76.6605 94.3495 76.8003L94.3635 76.7965C94.3748 77.0303 94.1724 77.1292 94.1834 77.3503C94.0979 77.3612 94.0206 77.4059 93.9668 77.4754C94.0162 77.537 94.0478 77.612 94.0577 77.6911C94.0154 77.7253 93.9786 77.7664 93.9487 77.813C94.0668 77.7814 93.9844 77.8899 94.004 77.9294C93.9399 77.8474 93.8916 77.8923 93.8677 77.7803C93.7062 77.8971 94.0613 77.9973 93.915 78.126L93.7938 78.1009C93.8332 78.0903 93.7987 78.0292 93.8076 77.9948C93.7683 78.0053 93.673 78.0884 93.7211 78.1779C93.7691 78.2675 93.8717 78.0992 93.8623 78.2553C93.6942 78.2011 93.8819 78.2501 93.692 78.2721C93.7081 78.2801 93.7224 78.2917 93.7339 78.306C93.7454 78.3204 93.7539 78.3371 93.7587 78.355C93.7635 78.373 93.7645 78.3917 93.7617 78.4099C93.7589 78.4281 93.7523 78.4452 93.7424 78.4602C93.7171 78.467 93.7123 78.4491 93.697 78.4371C93.6275 78.5485 93.8202 78.5258 93.7783 78.6394C93.7249 78.6537 93.6676 78.5186 93.6038 78.5613C93.4829 78.616 93.6261 78.6449 93.5506 78.7227C93.604 78.7084 93.7239 78.8075 93.7125 78.8778C93.6259 78.8465 93.4987 78.7878 93.5181 78.6802C93.4366 78.702 93.3478 78.7641 93.2954 78.647C93.3658 78.8201 93.2881 78.9689 93.3412 79.1787C93.2879 79.1706 93.2569 79.2012 93.2268 79.2573C93.2523 79.3529 93.4191 79.5258 93.3432 79.5461C93.3784 79.6103 93.4234 79.5759 93.4651 79.5967L93.4485 79.7259C93.3586 79.75 93.3721 79.564 93.287 79.5612L93.1926 79.6248C93.1896 79.7376 93.3301 79.7448 93.3999 79.7581C93.3324 79.7762 93.3336 79.8143 93.3384 79.8546C93.3431 79.8949 93.3378 79.9539 93.284 79.9779C93.3367 79.871 93.2777 79.8644 93.2248 79.8466C93.1718 79.8288 93.1426 79.7982 93.1888 79.7122C93.1587 79.7257 93.1298 79.742 93.1025 79.7609C93.0628 79.7363 93.0825 79.6863 93.0721 79.6474C93.0732 79.6118 93.0637 79.5763 93.0449 79.5459C92.9569 79.6111 93.003 79.7267 92.9045 79.8203C92.8228 79.695 93.0195 79.6871 92.933 79.5439C92.7783 79.6077 92.7986 79.7846 92.6774 79.7146C92.6896 79.625 92.8578 79.6344 92.7712 79.5136C92.687 79.4913 92.5478 79.3877 92.5244 79.5252C92.5467 79.6088 92.6278 79.5967 92.666 79.5481L92.6336 79.5056L92.7033 79.5637C92.6415 79.5803 92.6257 79.7125 92.579 79.7634C92.5713 79.7577 92.5624 79.7543 92.5532 79.7534C92.544 79.7525 92.5347 79.7542 92.5265 79.7582C92.5327 79.7655 92.5396 79.7723 92.5469 79.7784C92.5363 79.7771 92.526 79.7733 92.5168 79.7672C92.4694 79.8151 92.4619 80.0123 92.3781 79.9803L92.4449 79.8473C92.3876 79.757 92.3221 79.7937 92.241 79.7834C92.1956 79.8054 92.1596 79.8439 92.1394 79.8921C92.1192 79.9403 92.1161 79.995 92.1307 80.0465L92.1701 79.9912C92.1947 80.2182 92.0361 79.963 92.0972 80.2027C92.116 80.2168 92.1309 80.1936 92.1454 80.1578C92.118 80.2579 92.1467 80.3878 92.2399 80.3757C92.2484 80.3062 92.2505 80.2352 92.2534 80.1673C92.3629 80.25 92.3403 80.0192 92.4506 80.0377C92.4642 80.0885 92.4963 80.0959 92.477 80.1362C92.4261 80.1593 92.3812 80.1944 92.3456 80.2388C92.3101 80.2832 92.2847 80.3359 92.2716 80.3928C92.3696 80.309 92.3067 80.5242 92.3625 80.4964C92.2042 80.6252 92.3501 80.7653 92.1581 80.9255L92.2025 80.7088C92.043 80.7995 92.0636 81.034 91.9987 81.2081C91.9874 81.2137 91.9747 81.2154 91.9622 81.2131C91.9497 81.2107 91.9381 81.2043 91.9289 81.1948C91.8636 81.0747 91.7984 80.9097 91.7254 80.9293C91.5856 80.6883 91.5961 80.9639 91.4621 80.8909C91.5088 80.7728 91.63 80.8204 91.7022 80.8427C91.6947 80.8323 91.6861 80.8228 91.6765 80.8144C91.6765 80.8144 91.6906 80.8106 91.6962 80.8091C91.621 80.6404 91.3563 80.7657 91.487 80.5675C91.6389 80.7412 91.7879 80.679 91.9075 80.6534C91.9319 80.6232 91.9534 80.5907 91.9719 80.5562C92.0253 80.5419 92.0776 80.4671 92.1237 80.5155C92.1269 80.3991 92.096 80.2834 92.035 80.1841C91.9746 80.3635 92.0057 80.4799 91.8988 80.5757C91.8179 80.4758 91.7107 80.4693 91.6212 80.4388L91.6259 80.5687C91.5047 80.5436 91.2874 80.3393 91.2551 80.4663C91.2624 80.4536 91.2666 80.4391 91.2673 80.4241C91.268 80.409 91.2652 80.3939 91.2591 80.3801C91.253 80.3663 91.2439 80.3541 91.2324 80.3447C91.221 80.3353 91.2076 80.3289 91.1935 80.326L91.2947 80.299C91.2908 80.1944 91.1465 80.0602 91.2204 80.0213C91.0809 79.905 91.0237 80.0067 90.914 79.8217C90.8226 79.7053 90.5433 79.956 90.4424 79.759C90.5056 79.6462 90.6142 79.7931 90.6457 79.6407C90.5299 79.4893 90.4186 79.535 90.2701 79.5652C90.2752 79.6406 90.2021 79.6377 90.1483 79.6841L90.1243 79.5946C90.2147 79.5384 90.1387 79.6483 90.2367 79.6093C90.243 79.5807 90.2423 79.5506 90.2346 79.5219C90.2269 79.4932 90.2125 79.4667 90.1928 79.4451L90.2771 79.4225C90.2603 79.3598 90.1431 79.372 90.2387 79.2792L90.0501 79.2945C90.0543 79.1526 89.9462 79.2103 89.8616 79.1753L89.8622 79.2679L89.8359 79.1694C89.7504 79.1539 89.7807 79.2897 89.6925 79.2077C89.8471 79.1664 89.6975 79.0688 89.8285 78.973C89.8582 79.0162 89.897 79.105 89.9613 79.0302C89.9385 79.0011 89.9691 78.8906 89.9969 78.8031C89.982 78.8263 89.9512 78.7449 89.9199 78.7629L89.6602 79.0532C89.5703 79.0773 89.846 78.7571 89.8015 78.7146C89.903 78.7674 89.8217 78.6772 89.9048 78.639C89.7756 78.5839 89.583 78.5619 89.5201 78.4507L89.6044 78.4282C89.4925 78.4037 89.6278 78.3355 89.4874 78.3059C89.4236 78.3038 89.5322 78.3835 89.4311 78.3657C89.1859 78.0122 88.9757 77.6204 88.7473 77.3072C88.8747 77.2315 88.7464 77.1122 88.7433 77.0331C88.6794 77.031 88.646 77.0975 88.7002 77.1086C88.6646 77.1043 88.6302 77.0907 88.6002 77.0691C88.5703 77.0475 88.5457 77.0186 88.5286 76.9849C88.6102 76.8959 88.5472 76.852 88.4862 76.8267C88.5453 76.8109 88.6032 76.7346 88.6106 76.8638C88.6255 76.8182 88.8482 76.8738 88.7802 76.732C88.685 76.7335 88.5901 76.7129 88.5021 76.6718C88.4141 76.6307 88.3351 76.57 88.2707 76.494C88.2436 76.3924 88.1601 76.3956 88.1931 76.3163L88.2465 76.3021C88.2305 76.2423 88.1763 76.276 88.1293 76.2918C88.0888 76.2194 88.227 76.1729 88.2848 76.1638C88.1469 76.0311 87.9678 76.1046 87.8733 75.9315C87.887 75.8703 88.0067 75.8223 87.9437 75.7559C87.7135 75.5999 87.5254 75.3828 87.3991 75.1273L87.4334 74.9965L87.2591 75.0431C87.1742 74.7491 87.0408 74.4716 86.8652 74.2238C86.9037 74.2327 86.9149 74.2745 86.9583 74.2565C86.8817 74.1842 86.6564 74.2541 86.6293 74.1525C86.5927 74.1847 86.7113 74.0762 86.7446 74.0545C86.6323 73.9949 86.4656 74.0587 86.3453 73.9917C86.3618 73.9521 86.4372 73.9863 86.4526 73.9086L86.386 73.8624C86.4691 73.869 86.4339 73.76 86.4616 73.7622C86.4893 73.7644 86.4559 73.8085 86.4752 73.813C86.4944 73.8174 86.4874 73.7009 86.4939 73.6352C86.4854 73.6296 86.4758 73.6263 86.466 73.6254C86.4562 73.6245 86.4464 73.6261 86.4374 73.63C86.4284 73.634 86.4205 73.6402 86.4144 73.6482C86.4083 73.6561 86.4042 73.6656 86.4023 73.6757C86.4076 73.5943 86.4385 73.6308 86.4887 73.5822C86.4663 73.4986 86.4302 73.521 86.3498 73.5809C86.2695 73.6408 86.2956 73.637 86.2846 73.72C86.2868 73.6042 86.2311 73.5199 86.2694 73.4041L86.1851 73.4266L86.1963 73.4012L86.1409 73.4416C85.8327 73.4153 85.7071 73.0586 85.4395 72.9253L85.339 72.7186C85.4944 72.7251 85.5704 72.8967 85.6571 72.8831L85.6166 72.8556C85.636 72.8152 85.6627 72.9264 85.7431 72.8665L85.7492 72.7657C85.7173 72.6463 85.5375 72.8863 85.6024 72.6898C85.7211 72.7732 85.6403 72.5837 85.7647 72.5984C85.7941 72.5169 85.6897 72.5544 85.5877 72.5785C85.6141 72.5985 85.6334 72.6272 85.6426 72.6598C85.5779 72.6771 85.554 72.5427 85.4387 72.6184C85.4333 72.6119 85.4293 72.6042 85.4271 72.5959C85.4248 72.5876 85.4245 72.579 85.4259 72.5706C85.4179 72.5408 85.4365 72.4974 85.4622 72.4585L85.4354 72.4369C85.3811 72.493 85.2715 72.4999 85.2511 72.435C85.2463 72.4171 85.327 72.4147 85.3672 72.3847C85.3967 72.1913 85.2985 72.128 85.2553 71.9667C85.2453 72.0368 85.2196 72.1028 85.1804 72.1595C85.1638 72.1555 85.1487 72.1461 85.1371 72.1327C85.1243 72.1397 85.1099 72.1434 85.0953 72.1434C85.0806 72.1434 85.0661 72.1398 85.0528 72.1329L85.1259 72.1133C85.0994 72.082 85.0814 72.0484 85.032 72.0552C84.9827 72.0621 84.9421 72.0793 84.9896 71.9866C85.0011 71.9918 85.0135 71.9943 85.0259 71.9937C85.0383 71.9932 85.0503 71.9897 85.061 71.9835C85.0472 71.9506 85.025 71.9222 84.9969 71.9015C85.0426 71.8546 85.0687 71.7902 85.0694 71.7221L84.9508 71.853C84.9474 71.6939 84.9377 71.7253 84.9013 71.6679C85.0184 71.4637 84.6302 71.4876 84.7668 71.3455L84.8358 71.4454C84.913 71.3288 85.1168 71.3702 85.1435 71.2671L84.9705 71.2174C84.9482 71.4153 84.7365 71.232 84.6296 71.3502C84.5843 71.3047 84.6643 71.1873 84.537 71.1958C84.5211 71.136 84.6579 71.1634 84.6379 71.0888C84.618 71.0141 84.5295 71.1338 84.5119 71.0681C84.5412 71.0604 84.5682 71.0456 84.5906 71.0246C84.5699 70.947 84.5063 71.0472 84.4309 70.9906C84.3298 71.0176 84.4046 70.892 84.4247 70.8546L84.2165 70.7631C84.2811 70.7459 84.3991 70.7815 84.4064 70.6963C84.5638 70.6542 84.4554 71.0032 84.67 70.837C84.6962 70.7436 84.5055 70.785 84.5755 70.6639C84.4746 70.7261 84.4165 70.6552 84.3431 70.6397L84.364 70.6053C84.2999 70.5008 84.1888 70.7386 84.1396 70.6109C84.1597 70.5736 84.2541 70.5547 84.2096 70.4898C84.1815 70.4973 84.1462 70.478 84.1084 70.5169L84.1148 70.5408C84.0609 70.6096 84.0246 70.4849 84.0002 70.4275C84.0564 70.4124 84.121 70.3951 84.1183 70.3286C84.1587 70.4234 84.3291 70.2723 84.3663 70.3551C84.3129 70.3694 84.2046 70.3248 84.1836 70.404C84.1627 70.4832 84.3076 70.4732 84.3878 70.5253L84.3726 70.4686C84.5209 70.3361 84.5701 70.5086 84.7343 70.4134C84.728 70.3895 84.6995 70.3844 84.7216 70.3656C84.6878 70.3971 84.7753 70.4313 84.7949 70.4708L84.7021 70.4956C84.6597 70.6862 84.8165 70.529 84.8428 70.6724C84.7829 70.7076 84.6362 70.5869 84.6449 70.7093C84.7196 70.6509 84.7082 70.766 84.768 70.7308L84.7097 70.884C84.79 70.915 84.8728 70.9379 84.9568 70.9523C84.8809 70.9726 84.8645 70.945 84.7959 70.9473C84.8881 70.9994 84.7309 71.1887 84.8823 71.1578L84.8808 71.0846C84.922 71.1599 84.9557 71.1733 85.0075 71.1755C85.0387 71.1625 85.064 71.138 85.0788 71.1064C85.0936 71.0748 85.0968 71.0382 85.088 71.0035C85.0984 71.0424 85.1011 71.1536 85.1722 71.093C85.1448 71.1707 85.1954 71.1796 85.2604 71.1526C85.2639 71.2445 85.2262 71.2162 85.1732 71.2655C85.2377 71.2931 85.2636 71.4461 85.3609 71.3369C85.3682 71.2966 85.2807 71.2624 85.3795 71.2263C85.2983 71.3281 85.4442 71.209 85.4549 71.283C85.3056 71.2877 85.4358 71.448 85.3262 71.455C85.3526 71.5535 85.4333 71.5063 85.4911 71.5421L85.4208 71.6057L85.509 71.6653C85.4366 71.755 85.3158 71.7873 85.3389 71.8963C85.4795 71.8587 85.596 71.7316 85.7212 71.7941L85.6091 71.8593C85.6203 71.9011 85.7077 71.9801 85.768 71.9127C85.7993 71.8601 85.8113 71.7967 85.8015 71.7342L85.8063 71.7521C85.891 71.7646 85.8676 71.5533 85.9397 71.6652C85.7963 71.7484 85.8602 71.9873 85.8231 72.1188C85.8977 72.1387 85.9747 72.1441 86.0503 72.1348C86.0804 72.1011 86.0633 72.0257 86.1444 71.9912C86.1385 72.2168 86.3823 72.1036 86.3511 72.3359C86.337 72.3397 86.3145 72.3457 86.3506 72.3904L86.3272 72.4383C86.3565 72.4464 86.3874 72.4606 86.389 72.4889L86.4503 72.5941C86.4318 72.6151 86.4728 72.5881 86.5161 72.5925C86.5144 72.5802 86.5111 72.5682 86.5065 72.5567L86.5161 72.5925C86.5442 72.585 86.5695 72.5782 86.5675 72.6044C86.655 72.549 86.5757 72.7142 86.5825 72.7731C86.5752 72.7645 86.5652 72.7592 86.5544 72.7583C86.5792 72.8508 86.7475 72.7482 86.7052 72.8939L86.6842 72.9283C86.6803 72.9134 86.6771 72.9014 86.661 72.9089L86.6706 72.9448C86.681 72.9836 86.6794 72.9776 86.6754 72.9627C86.7179 73.0089 86.7553 72.9573 86.8158 73.0371L86.8171 72.9632C86.8312 72.9726 86.8423 72.9865 86.8487 73.0027C86.9186 73.016 87.0633 73.0957 87.0676 73.2129C87.2137 73.1962 87.2552 73.1371 87.3679 73.2094L87.2694 73.2805L87.3315 73.4111C87.2837 73.4239 87.292 73.5113 87.334 73.5896C87.264 73.7331 87.4013 73.7284 87.4539 73.7335C87.5065 73.7387 87.563 73.7363 87.5357 73.7692C87.6165 73.722 87.6545 73.7854 87.7139 73.8272C87.7141 73.8376 87.7168 73.8479 87.7218 73.857L87.7379 73.8271C87.7298 73.9093 87.8668 73.8246 87.8373 73.9509C87.8693 74.0704 87.675 74.0423 87.7174 74.1782L87.8005 74.1847C87.7936 74.2154 87.7828 74.2087 87.7659 74.2132C87.8117 74.249 87.7601 74.3491 87.8702 74.2877C87.8789 74.1921 87.8743 74.0952 87.8565 74.0002C87.9608 74.0747 88.06 74.0065 88.1374 74.0818C88.1655 74.0743 88.1443 74.0512 88.1519 74.0235C88.2004 74.0585 88.1839 74.143 88.1212 74.1565C88.1356 74.2103 88.2405 74.1406 88.2882 74.1951L88.4236 74.082C88.5371 74.1125 88.5269 74.2656 88.5445 74.3537C88.494 74.2776 88.3579 74.298 88.319 74.254C88.1056 74.4807 88.0932 74.1192 87.99 74.15C87.9855 74.2345 87.8551 74.1861 87.8951 74.2906C88.0143 74.2747 87.9705 74.3473 88.0182 74.4017C87.9735 74.4936 87.8692 74.4415 87.9582 74.5489C87.9546 74.4795 88.124 74.5046 88.0354 74.4323C88.232 74.4917 88.2078 74.5589 88.3634 74.6453C88.262 74.5476 88.5124 74.6054 88.5082 74.4882C88.4093 74.5914 88.2944 74.3758 88.3628 74.5527L88.2577 74.4752C88.3035 74.4213 88.4078 74.5182 88.4019 74.3726C88.5263 74.4097 88.4973 74.4815 88.647 74.4894C88.5647 74.5306 88.6216 74.6306 88.5697 74.6957C88.6046 74.7248 88.7086 74.6969 88.6808 74.7844L88.5881 74.7644C88.6269 74.8308 88.5546 74.8981 88.5738 74.9698C88.5929 75.0415 88.6665 74.945 88.6951 74.9053C88.7254 75.0188 88.8687 75.0477 88.8902 75.1731C88.8165 75.0552 88.7689 75.2376 88.7024 75.1466L88.7139 75.2459C88.9149 75.2881 89.1837 75.3922 89.3633 75.3089C89.5458 75.4169 89.2513 75.566 89.5656 75.626C89.5282 75.6104 89.4755 75.7173 89.4277 75.73C89.4381 75.7689 89.4565 75.8375 89.5135 75.8479L89.5422 75.7186C89.6709 75.761 89.6884 75.9387 89.7593 76.0349C89.7256 76.0439 89.6926 76.1008 89.6216 76.0718C89.5633 76.1129 89.6142 76.1793 89.6294 76.2136C89.7289 76.2478 89.8045 76.1252 89.9004 76.1795C90.427 77.101 91.0377 77.8751 91.571 78.6412L91.5276 78.6816C91.5978 78.73 91.68 78.8008 91.7329 78.841C91.7329 78.841 91.7329 78.841 91.7526 78.8358C91.7725 78.8656 91.7891 78.8977 91.8022 78.9313C91.8218 78.9446 91.8446 78.9516 91.8676 78.9511C91.8906 78.9507 91.9127 78.9429 91.9311 78.9288L91.9038 78.8945C92.0016 78.9899 91.9632 78.9138 91.9135 78.8631C91.8954 78.8433 91.8786 78.8221 91.8634 78.7997L91.8887 78.8154L91.9433 78.8167C91.7979 78.5773 92.0913 78.582 91.996 78.3611L92.0763 78.3908C91.9622 78.1557 92.3563 78.2103 92.2726 78.0215Z" fill="#C58A46"/>
<path d="M86.5161 72.5925C86.4728 72.5881 86.4318 72.6151 86.4503 72.5941L86.389 72.4889C86.3874 72.4606 86.3565 72.4464 86.3272 72.4383L86.3506 72.3904C86.3145 72.3457 86.337 72.3397 86.3511 72.3359C86.3823 72.1036 86.1385 72.2168 86.1444 71.9912C86.0633 72.0257 86.0804 72.1011 86.0503 72.1348C85.9747 72.1441 85.8977 72.1387 85.8231 72.1188C85.8602 71.9873 85.7963 71.7484 85.9397 71.6652C85.8676 71.5533 85.891 71.7646 85.8063 71.7521L85.8015 71.7342C85.8113 71.7967 85.7993 71.8601 85.768 71.9127C85.7077 71.9801 85.6203 71.9011 85.6091 71.8593L85.7212 71.7941C85.596 71.7316 85.4795 71.8587 85.3389 71.8963C85.3158 71.7873 85.4366 71.755 85.509 71.6653L85.4208 71.6057L85.4911 71.5421C85.4333 71.5063 85.3526 71.5535 85.3262 71.455C85.4358 71.448 85.3056 71.2877 85.4549 71.283C85.4442 71.209 85.2983 71.3281 85.3795 71.2263C85.2807 71.2624 85.3682 71.2966 85.3609 71.3369C85.2636 71.4461 85.2377 71.2931 85.1732 71.2655C85.2262 71.2162 85.2639 71.2445 85.2604 71.1526C85.1954 71.1796 85.1448 71.1707 85.1722 71.093C85.1011 71.1536 85.0984 71.0424 85.088 71.0035C85.0968 71.0382 85.0936 71.0748 85.0788 71.1064C85.064 71.138 85.0387 71.1625 85.0075 71.1755C84.9557 71.1733 84.922 71.1599 84.8808 71.0846L84.8823 71.1578C84.7309 71.1887 84.8881 70.9994 84.7959 70.9473C84.8645 70.945 84.8809 70.9726 84.9568 70.9523C84.8728 70.9379 84.79 70.915 84.7097 70.884L84.768 70.7308C84.7082 70.766 84.7196 70.6509 84.6449 70.7093C84.6362 70.5869 84.7829 70.7076 84.8428 70.6724C84.8165 70.529 84.6597 70.6862 84.7021 70.4956L84.7949 70.4708C84.7753 70.4313 84.6878 70.3971 84.7216 70.3656C84.6995 70.3844 84.728 70.3895 84.7343 70.4134C84.5701 70.5086 84.5209 70.3361 84.3726 70.4686L84.3878 70.5253C84.3076 70.4732 84.1627 70.4832 84.1836 70.404C84.2046 70.3248 84.3129 70.3694 84.3663 70.3551C84.3291 70.2723 84.1587 70.4234 84.1183 70.3286C84.121 70.3951 84.0564 70.4124 84.0002 70.4275C84.0246 70.4849 84.0609 70.6096 84.1148 70.5408L84.1084 70.5169C84.1462 70.478 84.1815 70.4973 84.2096 70.4898C84.2541 70.5547 84.1597 70.5736 84.1396 70.6109C84.1888 70.7386 84.2999 70.5008 84.364 70.6053L84.3431 70.6397C84.4165 70.6552 84.4746 70.7261 84.5755 70.6639C84.5055 70.785 84.6962 70.7436 84.67 70.837C84.4554 71.0032 84.5638 70.6542 84.4064 70.6963C84.3991 70.7815 84.2811 70.7459 84.2165 70.7631L84.4247 70.8546C84.4046 70.892 84.3298 71.0176 84.4309 70.9906C84.5063 71.0472 84.5699 70.947 84.5906 71.0246C84.5682 71.0456 84.5412 71.0604 84.5119 71.0681C84.5295 71.1338 84.618 71.0141 84.6379 71.0888C84.6579 71.1634 84.5211 71.136 84.537 71.1958C84.6643 71.1873 84.5843 71.3047 84.6296 71.3502C84.7365 71.232 84.9482 71.4153 84.9705 71.2174L85.1435 71.2671C85.1168 71.3702 84.913 71.3288 84.8358 71.4454L84.7668 71.3455C84.6302 71.4876 85.0184 71.4637 84.9013 71.6679C84.9377 71.7253 84.9474 71.6939 84.9508 71.853L85.0694 71.7221C85.0687 71.7902 85.0426 71.8546 84.9969 71.9015C85.025 71.9222 85.0472 71.9506 85.061 71.9835C85.0503 71.9897 85.0383 71.9932 85.0259 71.9937C85.0135 71.9943 85.0011 71.9918 84.9896 71.9866C84.9421 72.0793 84.9827 72.0621 85.032 72.0552C85.0814 72.0484 85.0994 72.082 85.1259 72.1133L85.0528 72.1329C85.0661 72.1398 85.0806 72.1434 85.0953 72.1434C85.1099 72.1434 85.1243 72.1397 85.1371 72.1327C85.1487 72.1461 85.1638 72.1555 85.1804 72.1595C85.2196 72.1028 85.2453 72.0368 85.2553 71.9667C85.2985 72.128 85.3967 72.1913 85.3672 72.3847C85.327 72.4147 85.2463 72.4171 85.2511 72.435C85.2715 72.4999 85.3811 72.493 85.4354 72.4369L85.4622 72.4585C85.4365 72.4974 85.4179 72.5408 85.4259 72.5706C85.4245 72.579 85.4248 72.5876 85.4271 72.5959C85.4293 72.6042 85.4333 72.6119 85.4387 72.6184C85.554 72.5427 85.5779 72.6771 85.6426 72.6598C85.6334 72.6272 85.6141 72.5985 85.5877 72.5785C85.6897 72.5544 85.7941 72.5169 85.7647 72.5984C85.6403 72.5837 85.7211 72.7732 85.6024 72.6898C85.5375 72.8863 85.7173 72.6463 85.7492 72.7657L85.7431 72.8665C85.6627 72.9264 85.6359 72.8152 85.6166 72.8556L85.6571 72.8831C85.5704 72.8967 85.4944 72.7251 85.339 72.7186L85.4395 72.9253C85.7071 73.0586 85.8327 73.4153 86.1409 73.4416L86.1963 73.4012L86.1851 73.4266L86.2694 73.4041C86.2311 73.5199 86.2868 73.6042 86.2846 73.72C86.2956 73.637 86.2695 73.6408 86.3498 73.5809C86.4302 73.521 86.4663 73.4986 86.4887 73.5822C86.4385 73.6308 86.4076 73.5943 86.4023 73.6757C86.4042 73.6656 86.4083 73.6561 86.4144 73.6482C86.4205 73.6402 86.4284 73.634 86.4374 73.63C86.4464 73.6261 86.4562 73.6245 86.466 73.6254C86.4758 73.6263 86.4854 73.6296 86.4939 73.6352C86.4874 73.7009 86.4944 73.8174 86.4752 73.813C86.4559 73.8085 86.4893 73.7644 86.4616 73.7622C86.4339 73.76 86.4691 73.869 86.386 73.8624L86.4526 73.9086C86.4372 73.9863 86.3618 73.9521 86.3453 73.9917C86.4656 74.0587 86.6323 73.9949 86.7446 74.0545C86.7113 74.0762 86.5927 74.1847 86.6293 74.1525C86.6564 74.2541 86.8817 74.1842 86.9583 74.2565C86.9149 74.2745 86.9037 74.2327 86.8652 74.2238C87.0408 74.4716 87.1742 74.7491 87.2591 75.0431L87.4334 74.9965L87.3991 75.1273C87.5254 75.3828 87.7135 75.5999 87.9437 75.7559C88.0067 75.8223 87.887 75.8703 87.8733 75.9315C87.9678 76.1046 88.1469 76.0311 88.2848 76.1638C88.227 76.1729 88.0888 76.2194 88.1293 76.2918C88.1763 76.276 88.2305 76.2423 88.2465 76.3021L88.1931 76.3163C88.1601 76.3956 88.2436 76.3924 88.2707 76.494C88.3351 76.57 88.4141 76.6307 88.5021 76.6718C88.5901 76.7129 88.685 76.7335 88.7802 76.732C88.8482 76.8738 88.6255 76.8182 88.6106 76.8638C88.6032 76.7346 88.5453 76.8109 88.4862 76.8267C88.5472 76.852 88.6102 76.8959 88.5286 76.9849C88.5457 77.0186 88.5703 77.0475 88.6002 77.0691C88.6302 77.0907 88.6646 77.1043 88.7002 77.1086C88.646 77.0975 88.6794 77.031 88.7433 77.0331C88.7464 77.1122 88.8747 77.2315 88.7473 77.3072C88.9757 77.6204 89.1859 78.0122 89.4311 78.3657C89.5322 78.3835 89.4236 78.3038 89.4874 78.3059C89.6278 78.3355 89.4925 78.4037 89.6044 78.4282L89.5201 78.4507C89.583 78.5619 89.7756 78.5839 89.9048 78.639C89.8217 78.6772 89.903 78.7674 89.8015 78.7146C89.846 78.7571 89.5703 79.0773 89.6602 79.0532L89.9199 78.7629C89.9512 78.7449 89.982 78.8263 89.9969 78.8031C89.9691 78.8906 89.9385 79.0011 89.9613 79.0302C89.897 79.105 89.8582 79.0162 89.8285 78.973C89.6975 79.0688 89.8471 79.1664 89.6925 79.2077C89.7807 79.2897 89.7504 79.1539 89.8359 79.1694L89.8622 79.2679L89.8616 79.1753C89.9462 79.2103 90.0543 79.1526 90.0501 79.2945L90.2387 79.2792C90.1431 79.372 90.2603 79.3598 90.2771 79.4225L90.1928 79.4451C90.2125 79.4667 90.2269 79.4932 90.2346 79.5219C90.2423 79.5506 90.243 79.5807 90.2367 79.6093C90.1387 79.6483 90.2147 79.5384 90.1243 79.5946L90.1483 79.6841C90.2021 79.6377 90.2752 79.6406 90.2701 79.5652C90.4186 79.535 90.5299 79.4893 90.6457 79.6407C90.6142 79.7931 90.5056 79.6462 90.4424 79.759C90.5433 79.956 90.8226 79.7053 90.914 79.8217C91.0237 80.0067 91.0808 79.905 91.2204 80.0213C91.1465 80.0602 91.2908 80.1944 91.2947 80.299L91.1935 80.326C91.2076 80.3289 91.221 80.3353 91.2324 80.3447C91.2439 80.3541 91.253 80.3663 91.2591 80.3801C91.2652 80.3939 91.268 80.409 91.2673 80.4241C91.2666 80.4391 91.2624 80.4536 91.2551 80.4663C91.2874 80.3393 91.5047 80.5436 91.6259 80.5687L91.6212 80.4388C91.7107 80.4693 91.8179 80.4758 91.8988 80.5757C92.0057 80.4799 91.9746 80.3635 92.035 80.1841C92.096 80.2834 92.1269 80.3991 92.1237 80.5155C92.0776 80.4671 92.0253 80.5419 91.9719 80.5562C91.9534 80.5907 91.9319 80.6232 91.9075 80.6534C91.7879 80.679 91.6389 80.7412 91.487 80.5675C91.3563 80.7657 91.621 80.6404 91.6962 80.8091C91.6906 80.8106 91.6765 80.8144 91.6765 80.8144C91.6861 80.8228 91.6947 80.8323 91.7022 80.8427C91.63 80.8204 91.5088 80.7728 91.4621 80.8909C91.5961 80.9639 91.5856 80.6883 91.7254 80.9293C91.7984 80.9097 91.8636 81.0747 91.9289 81.1948C91.9381 81.2043 91.9497 81.2107 91.9622 81.2131C91.9747 81.2154 91.9874 81.2137 91.9987 81.2081C92.0636 81.034 92.043 80.7995 92.2025 80.7088L92.1581 80.9255C92.3501 80.7653 92.2042 80.6252 92.3625 80.4964C92.3067 80.5242 92.3696 80.309 92.2716 80.3928C92.2847 80.3359 92.3101 80.2832 92.3456 80.2388C92.3812 80.1944 92.4261 80.1593 92.477 80.1362C92.4963 80.0959 92.4642 80.0885 92.4506 80.0377C92.3403 80.0192 92.3629 80.25 92.2534 80.1673C92.2505 80.2352 92.2484 80.3062 92.2399 80.3757C92.1467 80.3878 92.118 80.2579 92.1454 80.1578C92.1309 80.1936 92.116 80.2168 92.0972 80.2027C92.0361 79.963 92.1947 80.2182 92.1701 79.9912L92.1307 80.0465C92.1161 79.995 92.1192 79.9403 92.1394 79.8921C92.1596 79.8439 92.1956 79.8054 92.241 79.7834C92.3221 79.7937 92.3876 79.757 92.4449 79.8473L92.3781 79.9803C92.4619 80.0123 92.4694 79.8151 92.5168 79.7672C92.526 79.7733 92.5363 79.7771 92.5469 79.7784C92.5396 79.7723 92.5327 79.7655 92.5265 79.7582C92.5347 79.7542 92.544 79.7525 92.5532 79.7534C92.5624 79.7543 92.5713 79.7577 92.579 79.7634C92.6257 79.7125 92.6415 79.5803 92.7033 79.5637L92.6336 79.5056L92.666 79.5481C92.6278 79.5967 92.5467 79.6088 92.5244 79.5252C92.5478 79.3877 92.687 79.4913 92.7712 79.5136C92.8578 79.6344 92.6896 79.625 92.6774 79.7146C92.7986 79.7846 92.7783 79.6077 92.933 79.5439C93.0195 79.6871 92.8228 79.695 92.9045 79.8203C93.003 79.7267 92.9569 79.6111 93.0449 79.5459C93.0637 79.5763 93.0732 79.6118 93.0721 79.6474C93.0825 79.6863 93.0628 79.7363 93.1025 79.7609C93.1298 79.742 93.1587 79.7257 93.1888 79.7122C93.1426 79.7982 93.1718 79.8288 93.2248 79.8466C93.2777 79.8644 93.3367 79.871 93.284 79.9779C93.3378 79.9539 93.3431 79.8949 93.3384 79.8546C93.3336 79.8143 93.3324 79.7762 93.3999 79.7581C93.3301 79.7448 93.1896 79.7376 93.1926 79.6248L93.287 79.5612C93.3721 79.564 93.3586 79.75 93.4485 79.7259L93.4651 79.5967C93.4234 79.5759 93.3784 79.6103 93.3432 79.5461C93.4191 79.5258 93.2523 79.3529 93.2268 79.2573C93.2569 79.2012 93.2879 79.1706 93.3412 79.1787C93.2881 78.9689 93.3658 78.8201 93.2954 78.647C93.3478 78.7641 93.4366 78.702 93.5181 78.6802C93.4987 78.7878 93.6259 78.8465 93.7125 78.8778C93.7239 78.8075 93.604 78.7084 93.5506 78.7227C93.6261 78.6449 93.4829 78.616 93.6038 78.5613C93.6676 78.5186 93.7249 78.6537 93.7783 78.6394C93.8202 78.5258 93.6275 78.5485 93.697 78.4371C93.7123 78.4491 93.7171 78.467 93.7424 78.4602C93.7523 78.4452 93.7589 78.4281 93.7617 78.4099C93.7645 78.3917 93.7635 78.373 93.7587 78.355C93.7539 78.3371 93.7454 78.3204 93.7339 78.306C93.7224 78.2917 93.7081 78.2801 93.692 78.2721C93.8819 78.2501 93.6942 78.2011 93.8623 78.2553C93.8717 78.0992 93.7691 78.2675 93.7211 78.1779C93.673 78.0884 93.7683 78.0053 93.8076 77.9948C93.7987 78.0292 93.8332 78.0903 93.7938 78.1009L93.915 78.126C94.0613 77.9973 93.7062 77.8971 93.8677 77.7803C93.8916 77.8923 93.9399 77.8474 94.004 77.9294C93.9844 77.8899 94.0668 77.7814 93.9487 77.813C93.9786 77.7664 94.0154 77.7253 94.0577 77.6911C94.0478 77.612 94.0162 77.537 93.9668 77.4754C94.0206 77.4059 94.0979 77.3612 94.1834 77.3503C94.1724 77.1292 94.3748 77.0303 94.3635 76.7965L94.3495 76.8003C94.4295 76.6605 94.1757 76.7924 94.2405 76.6407C94.37 76.7308 94.3726 76.6053 94.4597 76.582C94.6052 76.4279 94.4887 76.2063 94.6498 76.0768C94.6652 76.0824 94.6785 76.0935 94.6873 76.108C94.6962 76.1226 94.7 76.1397 94.6983 76.1566C94.7683 76.0453 94.8219 75.9231 94.8573 75.7941L94.8621 75.812C95.0477 75.6727 94.981 75.4346 95.0263 75.2209C95.0383 75.2433 95.0964 75.2693 95.1028 75.2932C95.1704 75.208 95.2537 75.0577 95.1563 74.9302C95.3394 74.8716 95.1448 74.8308 95.3368 74.7379C95.356 74.7423 95.348 74.7797 95.348 74.7797C95.4207 74.725 95.4288 74.6653 95.4734 74.5957C95.4536 74.3866 95.292 74.2667 95.4207 74.0947C95.6129 74.1712 95.4193 74.2358 95.5681 74.308C95.5509 74.255 95.5213 74.1893 95.5916 74.1705C95.6509 74.2347 95.6349 74.1973 95.6946 74.2518C95.7593 74.2345 95.5629 73.9958 95.581 74.007C95.5441 73.9817 95.518 73.9854 95.5079 74.0265C95.4093 73.9281 95.5736 73.833 95.5637 73.7172C95.5528 73.7554 95.478 73.8361 95.4035 73.7601C95.4923 73.6531 95.3207 73.5295 95.2879 73.407C95.4149 73.3187 95.411 73.5629 95.5538 73.6015C95.6084 73.6029 95.7437 73.6019 95.7636 73.6765C95.8228 73.5935 95.7515 73.4622 95.7596 73.3576L95.7949 73.377C95.8332 73.2388 95.7219 73.0254 95.84 72.949L95.7754 72.9887C95.7666 72.9558 95.796 72.8968 95.7322 72.8274C95.7948 72.8587 95.8844 72.7995 95.9209 72.8569C95.7456 72.7086 95.9173 72.5059 95.7541 72.3576C95.8168 72.344 95.8881 72.4081 95.9266 72.4394C95.8687 72.5157 95.8286 72.5233 95.8919 72.6023C95.8952 72.5876 95.9015 72.5739 95.9104 72.5622C95.9194 72.5505 95.9307 72.5411 95.9436 72.5346C95.9565 72.5281 95.9706 72.5247 95.9851 72.5246C95.9995 72.5245 96.0139 72.5278 96.0272 72.5341C95.9287 72.4133 95.945 72.2265 95.8339 72.1379C95.9154 72.1161 95.9696 72.0823 96.0651 72.1464C96.0826 71.9081 95.7055 72.1082 95.7989 71.872C95.9415 71.8083 95.8946 72.0384 95.9855 71.9053L95.9943 71.9382C96.3002 71.9331 95.8304 71.7644 95.8863 71.6471C96.04 71.6924 95.9568 71.7754 96.0945 71.7386C96.1047 71.6078 95.907 71.4656 95.997 71.3743L96.0544 71.4197C96.0697 71.342 96.1538 71.2171 96.1699 71.1424C96.188 71.1536 96.1896 71.1596 96.1944 71.1775C96.2953 71.0705 96.1407 71.0894 96.2833 71.0257L96.2276 70.9638C96.1549 70.9961 96.0424 71.071 96.1001 71.1739C96.0536 71.0679 95.872 71.1997 95.7646 71.1133L95.8067 71.1468C95.5751 71.2493 95.3784 71.4208 95.2401 71.6408C95.3321 71.8497 95.076 71.8607 95.1279 72.0548C95.2868 72.1531 95.152 72.0995 95.1337 72.2452C95.1398 72.1668 95.0078 72.1797 94.9684 72.2126C94.9916 72.2501 95.0033 72.294 95.0019 72.3381C94.9325 72.3374 94.7317 72.4424 94.8222 72.5557C94.7375 72.6104 94.7769 72.5102 94.7477 72.4797C94.6489 72.4709 94.7909 72.5737 94.7214 72.5731C94.7123 72.5689 94.7042 72.5622 94.6982 72.5537C94.6485 72.6597 94.5871 72.7588 94.5152 72.849C94.6877 72.9309 94.5535 72.9924 94.5775 73.082C94.5294 73.0372 94.4891 73.1344 94.4413 73.1472L94.5371 73.2688C94.6196 73.3971 94.4186 73.3325 94.4482 73.4429L94.4847 73.4332C94.5219 73.516 94.354 73.6313 94.2444 73.6606C94.3353 74.3947 93.7062 74.4862 93.5512 75.1452C93.5857 75.2064 93.6464 75.1517 93.7093 75.2181C93.7041 75.2678 93.6904 75.3159 93.669 75.3601C93.7364 75.342 93.6762 75.3197 93.7196 75.3465L93.7085 75.2375C93.7241 75.2397 93.7489 75.2875 93.7486 75.2524C93.7482 75.2173 93.7282 75.165 93.7499 75.1336C93.7699 75.2083 93.8798 75.2813 93.8035 75.3337C93.793 75.319 93.7881 75.3009 93.7899 75.2829C93.7485 75.342 93.8251 75.3695 93.7644 75.4017C93.7038 75.434 93.7556 75.4361 93.6998 75.419L93.5667 75.5634C93.6793 75.7253 93.4994 75.7734 93.4713 75.7809C93.3715 75.7116 93.4843 75.6495 93.3937 75.5585L93.2898 75.5863L93.374 75.631L93.3169 75.7103L93.3121 75.6923C93.3405 75.7199 93.3409 75.755 93.3289 75.755C93.3168 75.7551 93.2887 75.7402 93.2887 75.7402L93.3119 75.8268C93.2366 75.7477 93.2629 75.8687 93.1634 75.8121C93.0259 75.9961 93.1947 76.1429 92.9822 76.2606C93.0324 76.2567 93.1237 76.3955 93.0827 76.4449C93.0753 76.4503 93.0668 76.4541 93.0579 76.4559C93.0489 76.4578 93.0396 76.4577 93.0306 76.4556C93.0216 76.4535 93.013 76.4495 93.0054 76.4438C92.9978 76.4382 92.9913 76.4309 92.9864 76.4226L93.0128 76.5212C92.8205 76.5342 92.8885 76.676 92.782 76.7845L92.7379 76.7547C92.7591 76.7869 92.7713 76.8245 92.7731 76.8631C92.7749 76.9017 92.7662 76.9398 92.7481 76.9728L92.6606 76.9162C92.5598 76.9783 92.8222 77.0809 92.7245 77.155C92.8208 77.1997 92.8975 77.1599 92.9942 77.1949C92.8803 77.1742 92.8287 77.2743 92.909 77.2817C92.9085 77.4034 92.8768 77.3415 92.8515 77.3482L92.8763 77.4408C92.8437 77.5103 92.7391 77.4007 92.695 77.3485C92.7715 77.4656 92.6699 77.5024 92.6245 77.569L92.5924 77.5168L92.5337 77.6125C92.5397 77.6927 92.5391 77.7732 92.5318 77.853C92.5254 77.8941 92.5055 77.9312 92.4754 77.9576L92.3563 77.8615C92.2728 77.887 92.4085 77.8987 92.4149 77.9226C92.4549 78.0271 92.357 77.9989 92.2726 78.0215C92.3563 78.2103 91.9622 78.1557 92.0763 78.3908L91.996 78.3611C92.0913 78.582 91.7979 78.5773 91.9433 78.8167L91.8887 78.8154L91.8634 78.7997C91.8786 78.8221 91.8954 78.8433 91.9135 78.8631C91.9632 78.9138 92.0016 78.9899 91.9038 78.8945L91.9311 78.9288C91.9127 78.9429 91.8906 78.9507 91.8676 78.9511C91.8446 78.9516 91.8218 78.9446 91.8022 78.9313C91.7891 78.8977 91.7725 78.8656 91.7526 78.8358C91.7329 78.841 91.7329 78.841 91.7329 78.841C91.68 78.8008 91.5978 78.73 91.5276 78.6816L91.571 78.6412C91.0377 77.8751 90.427 77.101 89.9004 76.1795C89.8045 76.1252 89.7289 76.2478 89.6294 76.2136C89.6142 76.1793 89.5633 76.1129 89.6216 76.0718C89.6926 76.1008 89.7256 76.0439 89.7593 76.0349C89.6884 75.9387 89.6709 75.761 89.5422 75.7186L89.5135 75.8479C89.4565 75.8375 89.4381 75.7689 89.4277 75.73C89.4755 75.7173 89.5282 75.6104 89.5656 75.626C89.2513 75.566 89.5458 75.4169 89.3633 75.3089C89.1837 75.3922 88.9149 75.2881 88.7139 75.2459L88.7024 75.1466C88.7689 75.2376 88.8165 75.0552 88.8902 75.1731C88.8687 75.0477 88.7254 75.0188 88.6951 74.9053C88.6665 74.945 88.5929 75.0415 88.5738 74.9698C88.5546 74.8981 88.6269 74.8308 88.5881 74.7644L88.6808 74.7844C88.7086 74.6969 88.6046 74.7248 88.5697 74.6957C88.6216 74.6306 88.5647 74.5306 88.647 74.4894C88.4973 74.4815 88.5263 74.4097 88.4019 74.3726C88.4078 74.5182 88.3035 74.4213 88.2577 74.4752L88.3628 74.5527C88.2944 74.3758 88.4093 74.5914 88.5082 74.4882C88.5124 74.6054 88.262 74.5476 88.3634 74.6453C88.2078 74.5589 88.232 74.4917 88.0354 74.4323C88.124 74.5046 87.9546 74.4795 87.9582 74.5489C87.8692 74.4415 87.9735 74.4936 88.0182 74.4017C87.9705 74.3473 88.0143 74.2747 87.8951 74.2906C87.8551 74.1861 87.9855 74.2345 87.99 74.15C88.0932 74.1192 88.1056 74.4807 88.319 74.254C88.3579 74.298 88.494 74.2776 88.5445 74.3537C88.5269 74.2656 88.5371 74.1125 88.4236 74.082L88.2882 74.1951C88.2405 74.1406 88.1356 74.2103 88.1212 74.1565C88.1839 74.143 88.2004 74.0585 88.1519 74.0235C88.1443 74.0512 88.1655 74.0743 88.1374 74.0818C88.06 74.0065 87.9608 74.0747 87.8565 74.0002C87.8743 74.0952 87.8789 74.1921 87.8702 74.2877C87.7601 74.3491 87.8117 74.249 87.7659 74.2132C87.7828 74.2087 87.7936 74.2154 87.8005 74.1847L87.7174 74.1782C87.675 74.0423 87.8693 74.0704 87.8373 73.9509C87.8668 73.8246 87.7298 73.9093 87.7379 73.8271L87.7218 73.857C87.7168 73.8479 87.7141 73.8376 87.7139 73.8272C87.6545 73.7854 87.6165 73.722 87.5357 73.7692C87.563 73.7363 87.5065 73.7387 87.4539 73.7335C87.4013 73.7284 87.264 73.7331 87.334 73.5896C87.292 73.5113 87.2837 73.4239 87.3315 73.4111L87.2694 73.2805L87.3679 73.2094C87.2552 73.1371 87.2137 73.1962 87.0676 73.2129C87.0633 73.0957 86.9186 73.016 86.8487 73.0027C86.8423 72.9865 86.8312 72.9726 86.8171 72.9632L86.8158 73.0371C86.7553 72.9573 86.7179 73.0089 86.6754 72.9627C86.6794 72.9776 86.681 72.9836 86.6706 72.9448L86.661 72.9089C86.6771 72.9014 86.6803 72.9134 86.6842 72.9283L86.7052 72.8939C86.7475 72.7482 86.5792 72.8508 86.5544 72.7583C86.5652 72.7592 86.5752 72.7645 86.5825 72.7731C86.5757 72.7142 86.655 72.549 86.5675 72.6044C86.5695 72.5782 86.5442 72.585 86.5161 72.5925ZM86.5161 72.5925C86.5144 72.5802 86.5111 72.5682 86.5065 72.5567L86.5161 72.5925Z" stroke="#C58A46" stroke-width="0.5"/>
</svg>
