<svg width="107" height="91" viewBox="0 0 107 91" fill="none" xmlns="http://www.w3.org/2000/svg">
<mask id="path-1-inside-1_1_151611" fill="white">
<path d="M44.5169 52.391C44.792 51.9774 44.9024 51.4758 44.8263 50.9849C44.7794 50.8443 44.4841 51.0739 44.695 50.5724L44.9669 51.0974C45.1293 50.4174 45.1596 49.7125 45.0559 49.021L45.2106 48.1727L45.2809 48.4492C45.3981 47.8071 45.684 47.2212 45.5199 46.6166C45.6184 46.865 45.8574 47.3197 45.9652 46.7244L45.9043 46.1948C45.9699 46.1292 46.0261 46.4104 46.0871 45.5433C45.8902 45.7402 46.0917 44.8168 46.373 44.6669C46.1292 44.7043 45.8996 45.2152 45.6652 45.1777C45.9793 44.3481 45.3184 44.3997 45.6371 43.6592L45.8152 43.8373C45.9664 43.3366 46.0174 42.811 45.9652 42.2906L46.0543 42.3796C46.462 41.2969 46.3964 40.472 46.987 39.8346L47.0198 39.2018C47.0713 39.394 47.151 39.3331 47.2775 39.094C47.4416 38.6488 47.3666 37.852 47.1838 38.0629C47.471 37.5163 47.6703 36.928 47.7744 36.3194C47.8699 35.6526 48.0495 35.0007 48.3087 34.379C48.5243 34.5383 48.6415 33.7275 48.7446 34.1024L48.8289 33.5494C48.8102 33.6337 48.8758 33.5962 48.9274 33.5634C48.9766 33.5116 49.0077 33.4453 49.0162 33.3744C49.0246 33.3034 49.0099 33.2316 48.9742 33.1697L49.0117 33.2072C49.1242 32.9729 49.2226 32.7338 49.3398 32.5135L49.1523 32.4011L49.5367 31.9699C49.6351 32.4058 49.1711 33.1135 49.3679 33.3572C49.7776 32.8572 50.0246 32.2439 50.0757 31.5996C50.31 31.159 50.5678 30.7325 50.8068 30.2966C50.9568 30.2966 50.8162 30.3622 51.074 29.9545C51.3318 29.5467 51.1912 29.5561 51.4349 29.0968C51.388 29.2561 51.3646 29.3358 51.3786 29.3967C51.7536 28.8812 51.5427 28.6234 51.6599 28.1781C51.5248 28.4369 51.4255 28.7128 51.3646 28.9983C51.2802 29.0358 51.3177 28.9515 51.2615 28.9796L51.0459 29.7014C50.9615 29.617 51.1349 29.6123 50.8256 29.9217C51.0224 29.4811 51.0881 29.378 51.2755 28.8718C51.2287 28.5531 50.9053 29.0546 50.9381 28.6937C51.8517 26.6681 53.041 24.7786 54.472 23.0787C55.8429 21.4388 57.0884 19.6982 58.1982 17.8715C58.9234 17.4435 59.5611 16.8821 60.0776 16.217L59.9089 16.3014C60.2886 15.6592 60.7619 15.7858 60.9869 15.2233L61.1557 14.5953C61.4228 14.4219 61.9712 13.8922 61.9524 14.0985C62.1821 13.6438 63.0445 13.147 62.8289 12.8002C63.6351 12.0784 64.1694 11.7409 64.924 11.0332C64.9116 11.0469 64.9032 11.0639 64.8999 11.0821C64.8966 11.1003 64.8984 11.1191 64.9052 11.1363C65.1677 11.0894 65.1255 10.6254 65.4536 10.5879C65.402 10.752 64.7599 11.2816 65.3692 10.9535C65.5614 10.3958 66.855 9.74897 67.1128 9.71616C67.2948 9.53718 67.451 9.33368 67.5768 9.11154C67.9002 8.91938 68.4626 8.80688 68.0408 9.20996C68.847 8.46005 69.0907 8.71315 68.9782 8.27257C69.864 7.28362 70.8342 7.22269 71.631 6.23843C73.3136 5.33385 75.0056 4.39177 76.557 4.12461L76.5992 3.96994C76.5008 4.36833 77.8834 3.88558 77.485 4.33084C77.9723 3.92279 78.5626 3.65684 79.1911 3.56218L79.0411 3.83402C78.1506 4.02149 78.8583 4.01682 77.8366 4.39177C77.9162 4.31209 78.0053 4.28866 77.9678 4.26054C77.471 4.56051 76.4352 5.04326 75.9336 5.35729L75.9805 5.15106C75.1322 5.51195 75.0572 6.1775 74.3354 6.73056C73.623 6.88055 74.3729 6.52434 74.0729 6.29936C73.2152 6.81962 74.0495 7.60702 72.9574 7.54609L73.1215 7.38205C72.0622 7.99136 73.4636 6.94617 72.5918 7.23676C70.9889 8.33351 73.4496 7.39143 72.1278 8.48818C72.1044 8.20227 71.7341 8.34757 71.3217 8.46943C71.2607 8.8772 70.2671 9.75834 70.0187 10.3348C70.014 10.1989 69.6109 10.3395 69.1891 10.6957C69.3438 10.3255 69.5781 10.2598 70.1359 9.88958C70.1359 9.74897 70.1968 9.45369 69.8968 9.52868C69.7469 10.2036 68.1392 11.2863 68.083 11.9518C68.2189 11.6753 67.6002 12.0128 67.5299 11.8768C67.3609 12.1752 67.1546 12.4508 66.9159 12.6971L67.3377 12.4627C66.5457 12.908 66.002 13.9391 65.2567 14.7125L65.1911 14.6468C64.7885 15.2659 64.3355 15.8507 63.8366 16.3951C64.0241 16.0295 63.5694 16.1279 63.3773 16.1514C63.0211 16.0576 64.0428 14.7546 63.232 15.2843C62.857 15.9311 62.9601 16.4935 62.1821 17.1684C62.1399 17.5293 62.7352 17.0184 62.9086 16.845C62.4727 17.4684 61.4978 18.1902 61.4697 18.6495C61.6618 18.4105 61.7696 18.3496 61.8306 18.4292C61.7978 18.3964 61.5962 19.5447 61.2963 19.7135C61.2822 19.4651 61.2025 19.6666 61.2353 19.3526C60.955 19.5571 60.7427 19.8413 60.626 20.1681C60.3636 19.9056 61.3103 19.3338 60.9072 19.0995C60.4807 19.4864 60.1433 19.9613 59.9183 20.4915C59.7261 20.9086 59.5949 21.3398 59.2809 21.9351C58.8778 22.385 58.6669 22.7553 58.2263 23.1771C58.2825 23.1209 58.3763 22.9521 58.2872 22.9756C57.3077 23.7771 57.8654 23.7724 57.0592 24.3723C57.003 25.0097 56.3 26.069 55.8219 26.7064C55.8313 26.5939 55.7375 26.5002 55.7656 26.3689C55.0204 27.7797 54.6689 29.153 53.7643 30.4138L53.7268 30.3763C53.3003 31.234 53.0097 32.0308 52.5176 32.9822C52.6113 32.7292 52.5691 32.612 52.5035 32.5745C51.7677 33.7884 51.7677 34.9695 51.1396 36.3475C50.8256 36.6615 50.6897 37.5755 50.4131 37.3177C50.0429 38.5035 50.9381 36.9709 50.5584 38.1098L50.6053 38.0067C50.4131 39.5393 49.6679 40.8189 49.546 42.2718C49.2296 42.7027 48.9931 43.1869 48.8477 43.7013C48.9423 44.1034 48.977 44.5171 48.9508 44.9293C48.8139 45.3026 48.6965 45.6827 48.5993 46.0682C48.9461 45.4777 48.6414 46.4948 48.6836 46.7057C48.5524 46.3401 48.4024 46.7713 48.3837 46.0683C47.915 47.3337 48.8149 46.9775 48.3977 48.2852L48.0978 48.4727C48.1868 48.2243 48.1212 47.9618 48.154 47.6946C47.9446 48.1717 47.8638 48.6952 47.9197 49.2132C48.0275 49.4429 48.2899 48.2149 48.2665 49.3069C47.8822 49.1663 48.2103 50.085 47.7791 50.5162C47.9103 50.6474 48.0368 51.1208 47.9337 51.5614C47.8728 51.6223 47.8634 51.5473 47.8259 51.5004C47.7087 52.3207 48.1259 51.8004 48.0931 52.5456C47.9665 52.6722 47.7837 52.0676 47.6666 52.466C47.4416 53.0846 47.7884 52.869 47.6431 53.5768C47.7462 53.3612 48.0696 53.6377 48.1118 54.0455C47.915 54.0923 47.5869 54.1017 47.5353 53.4034C47.3807 53.7642 47.2775 54.4017 47.0479 53.7971C47.2079 54.294 47.3255 54.8035 47.3994 55.3203C47.5072 55.836 47.6561 56.3423 47.8447 56.8342C47.7416 56.9842 47.7744 57.2795 47.84 57.6544C48.0743 58.095 48.5993 58.2356 48.5711 58.6387C48.7446 58.8121 48.7258 58.484 48.8008 58.409C48.8711 58.6199 48.9883 58.8121 49.0773 59.0136C49.0586 59.4448 48.618 58.6106 48.5337 58.9012L48.618 59.548C48.8992 60.0542 49.0211 59.5198 49.1195 59.3277C49.0727 59.9464 49.4992 59.9792 49.5273 60.3822C49.1383 59.6183 49.1945 60.9869 48.8289 59.9182C48.8384 60.0754 48.8572 60.2319 48.8852 60.3869C48.693 60.5041 48.4915 59.8432 48.2946 59.7964C48.4024 60.5416 48.7399 60.6072 48.932 61.2775C48.5805 61.2071 48.6321 60.49 48.2103 60.2651C48.3227 61.165 48.8242 61.6102 48.6321 61.9805C48.3743 61.6102 48.4258 60.9025 48.0603 60.8275C47.934 61.0311 47.8738 61.2688 47.8881 61.508C47.9023 61.7472 47.9903 61.9761 48.1399 62.1633C48.3696 62.3929 48.304 61.8305 48.1681 61.4696L48.0415 61.4649L48.1868 61.3196C48.3331 61.7653 48.5414 62.1881 48.8055 62.5757C48.7982 62.6719 48.8142 62.7684 48.8524 62.857C48.8642 62.8527 48.875 62.8458 48.8839 62.8369C48.8928 62.828 48.8996 62.8172 48.9039 62.8054C48.917 62.856 48.9186 62.9088 48.9086 62.9601C49.0447 63.184 49.1999 63.3957 49.3726 63.5928C49.5673 63.7536 49.712 63.9666 49.7898 64.2068C49.5976 64.0146 49.3961 63.8131 49.2414 63.5834C49.0633 63.7615 49.3492 64.2255 49.5742 64.8536C49.7991 65.4817 50.6615 66.2409 50.7553 65.8941L50.4506 65.5895C50.8959 65.4723 50.9756 66.5268 51.2521 66.1191C51.1775 65.9909 51.071 65.8843 50.9428 65.8097C51.2849 65.9925 51.4208 65.7629 51.1209 65.2661L50.5865 65.1536C50.4787 64.5771 49.9772 64.4974 49.771 63.8787C49.8741 63.8412 49.8507 63.7147 49.9725 63.8084C50.1878 64.3266 50.562 64.7631 51.0412 65.0551C50.5959 64.563 51.2568 64.9052 51.0412 64.6239C51.7114 65.3692 51.6552 64.6567 52.3535 65.4395L51.8708 65.341C51.9786 65.4909 52.11 65.6222 52.2598 65.7301C52.3662 65.7915 52.4844 65.8298 52.6066 65.8426C52.8175 65.866 52.991 65.8144 53.1925 65.866C53.4315 66.105 53.5253 66.7143 54.069 66.9299C54.5705 67.5439 54.697 67.033 55.2173 67.2908C55.0204 67.4877 54.4627 67.258 54.1111 67.1221C54.1332 67.1585 54.1638 67.189 54.2002 67.2111C54.2002 67.2111 54.1299 67.1877 54.0971 67.2018C54.3396 67.4076 54.6269 67.5536 54.936 67.6283C55.2079 67.7314 55.3813 67.7642 55.0579 67.9189C54.2283 67.3236 53.2909 67.2674 52.3395 66.6721C52.1004 66.3675 51.7536 66.1613 51.688 65.8988C51.4396 65.9785 51.238 66.105 51.3693 66.5175C52.0208 66.8034 52.0208 66.5315 52.7097 67.0518C53.1955 67.4557 53.7473 67.7728 54.3408 67.9892L54.3502 67.7455C54.5095 67.8017 54.7017 67.8908 54.8986 67.9845C55.0954 68.0782 55.3157 68.1392 55.5032 68.2048C55.8781 68.3454 56.1875 68.3923 56.2109 68.2563C56.0937 68.3735 56.314 68.5188 56.6046 68.5563L56.1875 68.6172C56.3362 68.7874 56.5201 68.9233 56.7265 69.0156C56.9327 69.1375 57.0921 69.2031 56.9139 69.2687C57.2313 69.3343 57.5557 69.3595 57.8795 69.3437C58.1931 69.3012 58.5122 69.3236 58.8169 69.4093C59.1655 69.386 59.4974 69.2512 59.7636 69.025C59.9218 68.9055 60.0913 68.8019 60.2698 68.7157C60.5079 68.6206 60.7565 68.5545 61.0103 68.5188C61.1322 68.6407 60.9447 68.7344 60.7713 68.8422C60.5979 68.95 60.462 69.0016 60.7619 69.1047C61.11 69.0849 61.4479 68.9801 61.7461 68.7995C62.0444 68.619 62.2938 68.3681 62.4727 68.0689C62.0977 68.097 62.3555 67.8673 62.2899 67.7173C62.4523 67.69 62.6122 67.6492 62.768 67.5955C62.7633 67.8533 62.5055 67.6611 62.3789 67.9845C62.6968 67.9868 63.0088 67.899 63.2788 67.7314L63.1617 67.9892C63.5179 67.9142 63.7803 67.483 63.9819 67.6845C64.1178 67.4642 64.2584 67.2486 64.385 67.0284C65.0552 66.7612 65.0318 66.494 65.3224 66.091C65.1837 66.1671 65.0395 66.2329 64.8912 66.2878C65.0659 66.1922 65.2335 66.0841 65.3927 65.9644C65.6083 65.5988 64.9521 66.0113 65.4114 65.5238C65.2895 66.0769 66.0535 65.2286 66.2457 65.5145C66.0113 65.7488 65.5286 66.091 65.7629 66.1847C66.0785 66.0048 66.4114 65.8572 66.7566 65.7441C66.6769 65.7488 67.1222 65.3785 67.0659 65.2942C66.7519 65.2145 66.4379 65.1254 66.1332 65.027C66.1941 64.6942 67.2112 64.9801 67.4549 64.6427C67.1222 65.2473 67.6096 64.6005 67.6658 64.8536C68.0924 64.099 68.308 63.171 68.7392 62.4867C68.7579 62.5804 68.772 62.6789 68.7813 62.7726C68.8938 62.2008 69.1282 62.4914 69.2407 61.7696C69.2407 61.4884 68.9782 62.2758 69.0298 61.7836C69.6176 60.5375 69.9491 59.1859 70.0046 57.8091C70.0211 56.4455 69.7876 55.0905 69.3156 53.8111C69.6625 53.7642 69.1375 52.6956 69.0344 52.2175C68.8235 52.0066 68.786 52.2972 68.9876 52.5269C68.6819 52.1703 68.425 51.7747 68.2236 51.3505C68.3595 51.0458 68.0595 50.6334 67.7549 50.3568C67.9424 50.4318 68.0033 50.1084 68.2658 50.8677C68.233 50.638 69.1563 51.5426 68.6079 50.5256C67.6917 49.7887 66.817 49.0017 65.9879 48.168C65.5708 47.6478 65.2052 47.5353 65.0505 47.2306L65.2708 47.2634C65.214 47.1736 65.1281 47.1059 65.0275 47.0718C64.9268 47.0376 64.8175 47.0391 64.7177 47.076C64.2725 46.7151 64.7131 46.6494 64.938 46.6776C64.5007 46.3809 64.0178 46.1577 63.5085 46.0167C62.9934 45.8792 62.4927 45.6925 62.0134 45.4589C61.7837 45.2293 62.1352 45.084 61.5212 44.845C59.5058 44.1794 57.8748 44.1888 55.6297 44.0435L55.0532 43.8326L54.533 44.2497C52.3441 44.1325 50.4225 44.6106 48.0368 45.0746C48.2618 44.9621 48.5571 44.9293 48.6415 44.7981C47.8822 45.0231 47.2354 45.7167 46.5276 45.787C46.5417 45.8948 46.462 45.5433 46.4854 45.4449C45.6512 45.773 45.1497 46.312 44.2029 46.6026C44.0529 46.5463 44.5919 46.3542 44.2263 46.2885L43.6686 46.462C44.0763 46.2323 43.3077 46.2979 43.4389 46.2323C43.5658 46.2534 43.6961 46.2371 43.8139 46.1854C43.767 46.0261 43.2374 46.1245 42.8906 46.1058C42.6515 46.1854 42.4828 46.3448 42.7218 46.3682C42.2719 46.3495 42.6187 46.2651 42.5765 46.1104C41.986 46.1761 41.9578 46.2885 41.9438 46.5276C42.0235 46.6822 42.0235 46.6822 42.4359 46.7197C41.841 46.7788 41.2434 46.807 40.6455 46.8041L40.3736 47.076L40.2799 47.0478C40.2846 47.1369 40.2846 47.1837 40.2658 47.2119L40.3127 47.165C39.9993 47.3747 39.6738 47.5656 39.3378 47.7368L38.7941 47.9993L38.2833 48.2383L37.4818 48.7023C37.1865 48.8664 36.8912 49.0492 36.61 49.2179C36.0495 49.5535 35.5152 49.9311 35.0118 50.3474C34.5337 50.6005 34.0697 50.8677 33.601 51.1395C34.1166 50.4646 35.2836 49.8413 35.4945 49.5179L35.2086 49.7288C35.068 49.7194 35.757 49.4241 35.7007 49.1898L35.1899 49.3257C34.4493 49.6257 35.1149 50.01 34.2806 50.0756C35.1149 49.4288 33.8353 50.1084 34.3134 49.5647C33.9759 49.5835 33.8025 49.9912 33.6291 50.3521C33.8228 50.2021 34.0299 50.0703 34.2478 49.9584C34.1634 50.1834 33.3338 50.5537 33.3854 50.9052C33.2992 50.9644 33.199 51 33.0948 51.0083C33.0256 51.0514 32.9481 51.0795 32.8674 51.0908C32.7867 51.1021 32.7045 51.0963 32.6261 51.0739L32.448 51.252C32.5745 51.3786 32.2886 51.8238 31.8856 52.0582C31.7825 52.1144 32.0074 51.7676 31.9652 51.6598C31.0676 52.0434 30.2233 52.5412 29.453 53.1409C29.6995 53.018 29.9762 52.9692 30.2498 53.0003C30.1766 53.0922 30.0933 53.1755 30.0014 53.2487C30.053 53.3002 29.8889 53.4924 29.7764 53.633L29.8842 53.3471C29.6592 53.4857 29.4697 53.6751 29.3312 53.9002C29.3124 54.0689 29.2843 54.2001 28.8718 54.2751C28.9555 54.1847 29.0123 54.0727 29.0359 53.9517C28.8252 54.1142 28.6234 54.2879 28.4313 54.472C28.375 54.4157 28.1079 54.3642 27.6767 54.5985L28.0563 54.8001C27.6486 54.963 27.2726 55.1962 26.9455 55.4891C26.1628 55.4937 25.291 57.1904 24.8926 56.9514L25.5957 56.3702C25.1598 56.3468 25.8347 55.3719 25.441 55.4562L24.7239 56.3796C25.7128 55.9531 24.1942 57.4154 24.5833 57.5513C24.2458 57.8888 23.7912 57.856 23.5428 58.3856C23.1959 58.5918 23.6037 57.9778 23.2053 58.245C23.0038 58.4934 23.1959 58.5918 22.7975 58.859C22.7975 58.8027 22.8538 58.6246 22.76 58.634C22.3101 58.9058 22.6054 58.9949 22.1976 59.4402L22.282 59.3558C22.2304 59.7073 21.6961 59.7636 21.5461 59.7729L20.5993 60.9728C20.6509 60.7338 21.1009 60.1057 20.6603 60.3307C20.8196 59.7308 22.4835 59.1636 22.0101 58.7465C21.5696 58.9058 21.3586 59.623 20.8712 59.6698C20.9602 59.9464 20.4634 60.4057 20.2103 60.7806L20.065 60.7947C19.3807 61.3852 20.4166 61.1462 19.6104 61.7649C19.4698 61.7836 19.5682 61.4227 19.1276 61.8164C19.0761 61.943 18.9261 62.1305 18.973 62.243L19.1183 62.1727C19.362 62.2008 18.6261 62.7398 18.2793 63.0116C18.3824 62.7679 18.3356 62.5992 17.9934 62.8101C18.584 62.3414 18.1574 62.0367 18.6402 61.6383C18.5465 61.8821 18.1434 62.4445 18.5371 62.2852C19.0245 62.0602 19.1792 61.5212 19.6292 61.015L19.2776 61.2821C18.9027 61.029 19.9338 60.2885 19.7932 59.8292C19.6526 59.9698 19.5401 60.0823 19.4932 60.0354C19.5963 60.0823 19.9854 59.5901 20.2431 59.3792L20.1353 59.7401C21.0634 59.3558 20.59 59.1074 21.4336 58.5637C21.4711 58.7324 20.4728 59.7589 21.1665 59.3464C21.0165 59.1964 21.6352 58.8777 21.5695 58.7277L22.2538 58.5403C22.6054 58.1044 23.0178 57.5419 23.2194 57.2373C23.1035 57.4926 22.9655 57.7373 22.8069 57.9685C23.3131 57.406 23.9365 57.5794 24.1521 56.9795L23.7584 57.1857C24.0801 56.9689 24.357 56.692 24.5739 56.3702C24.6301 56.0796 24.138 56.2905 23.838 56.4967C24.0864 56.2952 24.6817 56.0187 24.5458 55.8546C24.6832 55.8239 24.8091 55.7547 24.9087 55.6551C25.0083 55.5555 25.0775 55.4296 25.1082 55.2922C25.6097 55.0157 25.3519 55.2734 25.4925 55.3766C25.8019 55.0016 26.7065 54.472 26.3737 54.3267C26.1722 54.397 25.7597 54.8938 25.8253 54.5376C26.1675 54.6266 25.994 54.2376 26.3315 54.0314C25.9566 54.697 27.1752 53.6752 26.9033 54.1626C27.2654 53.9015 27.5727 53.5719 27.8079 53.1924L27.9626 53.3471L28.525 52.7847C28.8156 52.8784 28.6516 53.3518 29.2937 52.9534C29.5655 52.3628 29.1484 52.1613 29.8327 51.477L29.8514 51.8238C30.1045 51.6926 30.7935 51.088 30.606 50.9755C30.3038 50.9954 30.011 51.0887 29.753 51.2473L29.8327 51.1677C30.1701 50.7458 28.9328 51.3926 29.7764 50.7646C29.7811 51.2192 31.2903 50.3475 31.8949 50.2396C32.2048 49.9196 32.4841 49.5712 32.7292 49.1991C32.6589 49.1288 32.1621 49.3726 32.2558 49.082C33.4932 48.6414 33.7135 47.8024 34.9274 47.5165C34.8946 47.5493 34.9461 47.6196 35.2274 47.4322L35.4195 47.4462C35.5666 47.3043 35.7381 47.19 35.9257 47.1088L36.76 46.6963C36.8022 46.7385 36.8865 46.5698 37.0131 46.4432C36.9285 46.4676 36.8455 46.4974 36.7647 46.5323L37.0178 46.4385C37.0755 46.3201 37.1712 46.2244 37.2896 46.1667C37.3693 46.0214 37.5474 45.9933 37.749 45.9979C37.9583 46.0068 38.168 46.0037 38.377 45.9886C38.3064 46.0192 38.2376 46.0536 38.1708 46.0917C38.8082 45.9605 38.9676 45.4261 39.6331 45.5011L39.7456 45.5574C39.6378 45.5808 39.53 45.6136 39.5159 45.6464L39.7925 45.5761C40.0737 45.5293 40.0502 45.5152 39.9471 45.5246C40.4205 45.3699 40.2893 45.2574 41.0204 45.0512L40.5986 45.0699C40.7191 45.0187 40.8448 44.981 40.9736 44.9574C41.6835 44.5841 42.4614 44.3577 43.2608 44.2919C43.6374 43.9139 44.1009 43.6339 44.6107 43.4764L44.5685 43.7623L45.5715 43.5935C45.4449 43.7201 45.9793 43.7107 46.612 43.5842C47.1135 43.7951 47.7369 43.3967 47.9853 43.2326C48.1118 43.1061 48.4915 42.9046 48.5711 42.9842C48.6649 42.7499 49.2179 42.628 49.7241 42.4687C49.7983 42.4637 49.872 42.4527 49.9444 42.4359C49.9091 42.4224 49.8747 42.4067 49.8413 42.389C50.3006 42.4171 50.4131 42.0234 51.0412 42.1265C51.8801 42.0937 50.8303 42.5905 51.8333 42.5155L52.2739 42.2999C52.4098 42.3327 52.3254 42.3515 52.2598 42.3984C52.691 42.2859 53.0519 42.478 53.2066 42.1734C52.6186 42.0876 52.0241 42.0546 51.4302 42.075C52.3817 41.8266 52.4473 41.536 53.2815 41.386C53.3378 41.3297 53.1456 41.3532 53.005 41.3157C53.455 41.2126 53.8627 41.3297 53.6659 41.4703C54.0736 41.4563 54.1627 41.1797 54.7345 41.1141L54.7392 40.7157C55.134 40.6256 55.5405 40.5987 55.9437 40.6361C56.3515 40.6876 56.7452 40.772 57.0545 40.8095C56.4409 40.8573 55.8325 40.9577 55.236 41.1094C55.5219 41.7609 53.2862 41.4844 52.9863 41.7844C53.455 41.85 52.4285 42.164 53.3284 42.1265C53.8018 41.8125 54.0361 41.9812 54.5892 41.9156C54.9173 42.0937 54.1674 42.2718 55.1798 42.1875C54.7392 42.1125 55.7 41.7703 54.8845 41.8922C55.3658 41.756 55.8612 41.6758 56.3609 41.6531L57.8513 41.5969C56.7124 41.5828 58.3528 41.3016 57.6779 41.1141C57.7248 41.2735 57.2655 41.3016 56.9655 41.3391C56.6655 41.3766 56.5624 41.3579 57.2795 41.4563C56.9374 41.4516 56.6046 41.4938 56.2718 41.5266C56.1406 41.3953 57.3123 41.3204 56.4031 41.1235C56.7397 41.0592 57.0822 41.0309 57.4248 41.0391C57.7655 41.042 58.1058 41.0154 58.4419 40.9595C58.2544 41.1469 59.1777 41.2922 59.2668 41.4938C59.6418 41.5406 60.0448 41.4 60.4151 41.6484L59.7824 41.6625C60.387 41.7984 60.3636 42.0187 60.8697 42.2437C61.2166 42.2906 61.3056 42.164 61.1697 42.0093C62.0247 42.2381 62.8493 42.5686 63.6257 42.9936C62.6414 42.5062 63.321 43.1764 62.5196 42.8249C62.707 42.9467 62.8945 43.0592 63.0773 43.2045C63.784 43.3491 64.4819 43.5337 65.1677 43.7576C65.6521 43.9726 66.1751 44.0874 66.705 44.095C67.141 44.3246 67.4972 44.6808 67.7268 45.1168C68.0375 45.5867 68.4678 45.9653 68.9735 46.2135C68.7579 46.0448 68.8891 46.5416 68.7204 46.5135C68.953 46.8385 69.2133 47.1428 69.4984 47.4228C69.3953 47.1884 69.3063 46.94 69.1891 46.7104C69.9343 47.2681 70.5436 48.4492 71.0451 49.3069C70.8952 49.157 70.928 49.5272 70.5577 49.0538C70.4171 49.1476 70.8014 49.7475 70.9092 50.0053C71.3498 50.5584 71.4154 49.9866 71.8654 50.6802C72.8306 52.7137 73.3925 54.915 73.5199 57.1623C73.6161 59.4942 73.1024 61.8108 72.0294 63.8834C70.9945 65.8751 69.5844 67.648 67.8767 69.1047C67.0019 69.851 66.0442 70.4942 65.0224 71.0216C64.4975 71.2852 63.9557 71.5138 63.4007 71.7059C63.1195 71.7997 62.8383 71.9028 62.5524 71.9825L61.6712 72.17L61.6618 72.0387C60.1773 72.4348 58.6245 72.5035 57.1108 72.2403C55.5558 71.9671 54.0728 71.3802 52.7519 70.5155C51.4508 69.7003 50.2866 68.6848 49.3023 67.5064L48.5618 66.644L47.929 65.7019C47.7322 65.3832 47.4931 65.088 47.3244 64.7505L46.8182 63.7569L46.762 63.86C46.5792 62.9366 46.3823 62.7398 46.1105 62.5242C45.8386 62.3086 45.5527 62.0508 45.5621 61.0384C45.1095 60.4259 44.8324 59.7016 44.7606 58.9433C44.695 58.5403 44.6341 58.1325 44.545 57.7247C44.4979 57.3151 44.4083 56.9114 44.2779 56.5202L44.4466 56.3515C44.1916 55.7766 44.1387 55.1323 44.2966 54.5235C44.4983 53.8318 44.5729 53.1093 44.5169 52.391Z"/>
</mask>
<path d="M44.5169 52.391C44.792 51.9774 44.9024 51.4758 44.8263 50.9849C44.7794 50.8443 44.4841 51.0739 44.695 50.5724L44.9669 51.0974C45.1293 50.4174 45.1596 49.7125 45.0559 49.021L45.2106 48.1727L45.2809 48.4492C45.3981 47.8071 45.684 47.2212 45.5199 46.6166C45.6184 46.865 45.8574 47.3197 45.9652 46.7244L45.9043 46.1948C45.9699 46.1292 46.0261 46.4104 46.0871 45.5433C45.8902 45.7402 46.0917 44.8168 46.373 44.6669C46.1292 44.7043 45.8996 45.2152 45.6652 45.1777C45.9793 44.3481 45.3184 44.3997 45.6371 43.6592L45.8152 43.8373C45.9664 43.3366 46.0174 42.811 45.9652 42.2906L46.0543 42.3796C46.462 41.2969 46.3964 40.472 46.987 39.8346L47.0198 39.2018C47.0713 39.394 47.151 39.3331 47.2775 39.094C47.4416 38.6488 47.3666 37.852 47.1838 38.0629C47.471 37.5163 47.6703 36.928 47.7744 36.3194C47.8699 35.6526 48.0495 35.0007 48.3087 34.379C48.5243 34.5383 48.6415 33.7275 48.7446 34.1024L48.8289 33.5494C48.8102 33.6337 48.8758 33.5962 48.9274 33.5634C48.9766 33.5116 49.0077 33.4453 49.0162 33.3744C49.0246 33.3034 49.0099 33.2316 48.9742 33.1697L49.0117 33.2072C49.1242 32.9729 49.2226 32.7338 49.3398 32.5135L49.1523 32.4011L49.5367 31.9699C49.6351 32.4058 49.1711 33.1135 49.3679 33.3572C49.7776 32.8572 50.0246 32.2439 50.0757 31.5996C50.31 31.159 50.5678 30.7325 50.8068 30.2966C50.9568 30.2966 50.8162 30.3622 51.074 29.9545C51.3318 29.5467 51.1912 29.5561 51.4349 29.0968C51.388 29.2561 51.3646 29.3358 51.3786 29.3967C51.7536 28.8812 51.5427 28.6234 51.6599 28.1781C51.5248 28.4369 51.4255 28.7128 51.3646 28.9983C51.2802 29.0358 51.3177 28.9515 51.2615 28.9796L51.0459 29.7014C50.9615 29.617 51.1349 29.6123 50.8256 29.9217C51.0224 29.4811 51.0881 29.378 51.2755 28.8718C51.2287 28.5531 50.9053 29.0546 50.9381 28.6937C51.8517 26.6681 53.041 24.7786 54.472 23.0787C55.8429 21.4388 57.0884 19.6982 58.1982 17.8715C58.9234 17.4435 59.5611 16.8821 60.0776 16.217L59.9089 16.3014C60.2886 15.6592 60.7619 15.7858 60.9869 15.2233L61.1557 14.5953C61.4228 14.4219 61.9712 13.8922 61.9524 14.0985C62.1821 13.6438 63.0445 13.147 62.8289 12.8002C63.6351 12.0784 64.1694 11.7409 64.924 11.0332C64.9116 11.0469 64.9032 11.0639 64.8999 11.0821C64.8966 11.1003 64.8984 11.1191 64.9052 11.1363C65.1677 11.0894 65.1255 10.6254 65.4536 10.5879C65.402 10.752 64.7599 11.2816 65.3692 10.9535C65.5614 10.3958 66.855 9.74897 67.1128 9.71616C67.2948 9.53718 67.451 9.33368 67.5768 9.11154C67.9002 8.91938 68.4626 8.80688 68.0408 9.20996C68.847 8.46005 69.0907 8.71315 68.9782 8.27257C69.864 7.28362 70.8342 7.22269 71.631 6.23843C73.3136 5.33385 75.0056 4.39177 76.557 4.12461L76.5992 3.96994C76.5008 4.36833 77.8834 3.88558 77.485 4.33084C77.9723 3.92279 78.5626 3.65684 79.1911 3.56218L79.0411 3.83402C78.1506 4.02149 78.8583 4.01682 77.8366 4.39177C77.9162 4.31209 78.0053 4.28866 77.9678 4.26054C77.471 4.56051 76.4352 5.04326 75.9336 5.35729L75.9805 5.15106C75.1322 5.51195 75.0572 6.1775 74.3354 6.73056C73.623 6.88055 74.3729 6.52434 74.0729 6.29936C73.2152 6.81962 74.0495 7.60702 72.9574 7.54609L73.1215 7.38205C72.0622 7.99136 73.4636 6.94617 72.5918 7.23676C70.9889 8.33351 73.4496 7.39143 72.1278 8.48818C72.1044 8.20227 71.7341 8.34757 71.3217 8.46943C71.2607 8.8772 70.2671 9.75834 70.0187 10.3348C70.014 10.1989 69.6109 10.3395 69.1891 10.6957C69.3438 10.3255 69.5781 10.2598 70.1359 9.88958C70.1359 9.74897 70.1968 9.45369 69.8968 9.52868C69.7469 10.2036 68.1392 11.2863 68.083 11.9518C68.2189 11.6753 67.6002 12.0128 67.5299 11.8768C67.3609 12.1752 67.1546 12.4508 66.9159 12.6971L67.3377 12.4627C66.5457 12.908 66.002 13.9391 65.2567 14.7125L65.1911 14.6468C64.7885 15.2659 64.3355 15.8507 63.8366 16.3951C64.0241 16.0295 63.5694 16.1279 63.3773 16.1514C63.0211 16.0576 64.0428 14.7546 63.232 15.2843C62.857 15.9311 62.9601 16.4935 62.1821 17.1684C62.1399 17.5293 62.7352 17.0184 62.9086 16.845C62.4727 17.4684 61.4978 18.1902 61.4697 18.6495C61.6618 18.4105 61.7696 18.3496 61.8306 18.4292C61.7978 18.3964 61.5962 19.5447 61.2963 19.7135C61.2822 19.4651 61.2025 19.6666 61.2353 19.3526C60.955 19.5571 60.7427 19.8413 60.626 20.1681C60.3636 19.9056 61.3103 19.3338 60.9072 19.0995C60.4807 19.4864 60.1433 19.9613 59.9183 20.4915C59.7261 20.9086 59.5949 21.3398 59.2809 21.9351C58.8778 22.385 58.6669 22.7553 58.2263 23.1771C58.2825 23.1209 58.3763 22.9521 58.2872 22.9756C57.3077 23.7771 57.8654 23.7724 57.0592 24.3723C57.003 25.0097 56.3 26.069 55.8219 26.7064C55.8313 26.5939 55.7375 26.5002 55.7656 26.3689C55.0204 27.7797 54.6689 29.153 53.7643 30.4138L53.7268 30.3763C53.3003 31.234 53.0097 32.0308 52.5176 32.9822C52.6113 32.7292 52.5691 32.612 52.5035 32.5745C51.7677 33.7884 51.7677 34.9695 51.1396 36.3475C50.8256 36.6615 50.6897 37.5755 50.4131 37.3177C50.0429 38.5035 50.9381 36.9709 50.5584 38.1098L50.6053 38.0067C50.4131 39.5393 49.6679 40.8189 49.546 42.2718C49.2296 42.7027 48.9931 43.1869 48.8477 43.7013C48.9423 44.1034 48.977 44.5171 48.9508 44.9293C48.8139 45.3026 48.6965 45.6827 48.5993 46.0682C48.9461 45.4777 48.6414 46.4948 48.6836 46.7057C48.5524 46.3401 48.4024 46.7713 48.3837 46.0683C47.915 47.3337 48.8149 46.9775 48.3977 48.2852L48.0978 48.4727C48.1868 48.2243 48.1212 47.9618 48.154 47.6946C47.9446 48.1717 47.8638 48.6952 47.9197 49.2132C48.0275 49.4429 48.2899 48.2149 48.2665 49.3069C47.8822 49.1663 48.2103 50.085 47.7791 50.5162C47.9103 50.6474 48.0368 51.1208 47.9337 51.5614C47.8728 51.6223 47.8634 51.5473 47.8259 51.5004C47.7087 52.3207 48.1259 51.8004 48.0931 52.5456C47.9665 52.6722 47.7837 52.0676 47.6666 52.466C47.4416 53.0846 47.7884 52.869 47.6431 53.5768C47.7462 53.3612 48.0696 53.6377 48.1118 54.0455C47.915 54.0923 47.5869 54.1017 47.5353 53.4034C47.3807 53.7642 47.2775 54.4017 47.0479 53.7971C47.2079 54.294 47.3255 54.8035 47.3994 55.3203C47.5072 55.836 47.6561 56.3423 47.8447 56.8342C47.7416 56.9842 47.7744 57.2795 47.84 57.6544C48.0743 58.095 48.5993 58.2356 48.5711 58.6387C48.7446 58.8121 48.7258 58.484 48.8008 58.409C48.8711 58.6199 48.9883 58.8121 49.0773 59.0136C49.0586 59.4448 48.618 58.6106 48.5337 58.9012L48.618 59.548C48.8992 60.0542 49.0211 59.5198 49.1195 59.3277C49.0727 59.9464 49.4992 59.9792 49.5273 60.3822C49.1383 59.6183 49.1945 60.9869 48.8289 59.9182C48.8384 60.0754 48.8572 60.2319 48.8852 60.3869C48.693 60.5041 48.4915 59.8432 48.2946 59.7964C48.4024 60.5416 48.7399 60.6072 48.932 61.2775C48.5805 61.2071 48.6321 60.49 48.2103 60.2651C48.3227 61.165 48.8242 61.6102 48.6321 61.9805C48.3743 61.6102 48.4258 60.9025 48.0603 60.8275C47.934 61.0311 47.8738 61.2688 47.8881 61.508C47.9023 61.7472 47.9903 61.9761 48.1399 62.1633C48.3696 62.3929 48.304 61.8305 48.1681 61.4696L48.0415 61.4649L48.1868 61.3196C48.3331 61.7653 48.5414 62.1881 48.8055 62.5757C48.7982 62.6719 48.8142 62.7684 48.8524 62.857C48.8642 62.8527 48.875 62.8458 48.8839 62.8369C48.8928 62.828 48.8996 62.8172 48.9039 62.8054C48.917 62.856 48.9186 62.9088 48.9086 62.9601C49.0447 63.184 49.1999 63.3957 49.3726 63.5928C49.5673 63.7536 49.712 63.9666 49.7898 64.2068C49.5976 64.0146 49.3961 63.8131 49.2414 63.5834C49.0633 63.7615 49.3492 64.2255 49.5742 64.8536C49.7991 65.4817 50.6615 66.2409 50.7553 65.8941L50.4506 65.5895C50.8959 65.4723 50.9756 66.5268 51.2521 66.1191C51.1775 65.9909 51.071 65.8843 50.9428 65.8097C51.2849 65.9925 51.4208 65.7629 51.1209 65.2661L50.5865 65.1536C50.4787 64.5771 49.9772 64.4974 49.771 63.8787C49.8741 63.8412 49.8507 63.7147 49.9725 63.8084C50.1878 64.3266 50.562 64.7631 51.0412 65.0551C50.5959 64.563 51.2568 64.9052 51.0412 64.6239C51.7114 65.3692 51.6552 64.6567 52.3535 65.4395L51.8708 65.341C51.9786 65.4909 52.11 65.6222 52.2598 65.7301C52.3662 65.7915 52.4844 65.8298 52.6066 65.8426C52.8175 65.866 52.991 65.8144 53.1925 65.866C53.4315 66.105 53.5253 66.7143 54.069 66.9299C54.5705 67.5439 54.697 67.033 55.2173 67.2908C55.0204 67.4877 54.4627 67.258 54.1111 67.1221C54.1332 67.1585 54.1638 67.189 54.2002 67.2111C54.2002 67.2111 54.1299 67.1877 54.0971 67.2018C54.3396 67.4076 54.6269 67.5536 54.936 67.6283C55.2079 67.7314 55.3813 67.7642 55.0579 67.9189C54.2283 67.3236 53.2909 67.2674 52.3395 66.6721C52.1004 66.3675 51.7536 66.1613 51.688 65.8988C51.4396 65.9785 51.238 66.105 51.3693 66.5175C52.0208 66.8034 52.0208 66.5315 52.7097 67.0518C53.1955 67.4557 53.7473 67.7728 54.3408 67.9892L54.3502 67.7455C54.5095 67.8017 54.7017 67.8908 54.8986 67.9845C55.0954 68.0782 55.3157 68.1392 55.5032 68.2048C55.8781 68.3454 56.1875 68.3923 56.2109 68.2563C56.0937 68.3735 56.314 68.5188 56.6046 68.5563L56.1875 68.6172C56.3362 68.7874 56.5201 68.9233 56.7265 69.0156C56.9327 69.1375 57.0921 69.2031 56.9139 69.2687C57.2313 69.3343 57.5557 69.3595 57.8795 69.3437C58.1931 69.3012 58.5122 69.3236 58.8169 69.4093C59.1655 69.386 59.4974 69.2512 59.7636 69.025C59.9218 68.9055 60.0913 68.8019 60.2698 68.7157C60.5079 68.6206 60.7565 68.5545 61.0103 68.5188C61.1322 68.6407 60.9447 68.7344 60.7713 68.8422C60.5979 68.95 60.462 69.0016 60.7619 69.1047C61.11 69.0849 61.4479 68.9801 61.7461 68.7995C62.0444 68.619 62.2938 68.3681 62.4727 68.0689C62.0977 68.097 62.3555 67.8673 62.2899 67.7173C62.4523 67.69 62.6122 67.6492 62.768 67.5955C62.7633 67.8533 62.5055 67.6611 62.3789 67.9845C62.6968 67.9868 63.0088 67.899 63.2788 67.7314L63.1617 67.9892C63.5179 67.9142 63.7803 67.483 63.9819 67.6845C64.1178 67.4642 64.2584 67.2486 64.385 67.0284C65.0552 66.7612 65.0318 66.494 65.3224 66.091C65.1837 66.1671 65.0395 66.2329 64.8912 66.2878C65.0659 66.1922 65.2335 66.0841 65.3927 65.9644C65.6083 65.5988 64.9521 66.0113 65.4114 65.5238C65.2895 66.0769 66.0535 65.2286 66.2457 65.5145C66.0113 65.7488 65.5286 66.091 65.7629 66.1847C66.0785 66.0048 66.4114 65.8572 66.7566 65.7441C66.6769 65.7488 67.1222 65.3785 67.0659 65.2942C66.7519 65.2145 66.4379 65.1254 66.1332 65.027C66.1941 64.6942 67.2112 64.9801 67.4549 64.6427C67.1222 65.2473 67.6096 64.6005 67.6658 64.8536C68.0924 64.099 68.308 63.171 68.7392 62.4867C68.7579 62.5804 68.772 62.6789 68.7813 62.7726C68.8938 62.2008 69.1282 62.4914 69.2407 61.7696C69.2407 61.4884 68.9782 62.2758 69.0298 61.7836C69.6176 60.5375 69.9491 59.1859 70.0046 57.8091C70.0211 56.4455 69.7876 55.0905 69.3156 53.8111C69.6625 53.7642 69.1375 52.6956 69.0344 52.2175C68.8235 52.0066 68.786 52.2972 68.9876 52.5269C68.6819 52.1703 68.425 51.7747 68.2236 51.3505C68.3595 51.0458 68.0595 50.6334 67.7549 50.3568C67.9424 50.4318 68.0033 50.1084 68.2658 50.8677C68.233 50.638 69.1563 51.5426 68.6079 50.5256C67.6917 49.7887 66.817 49.0017 65.9879 48.168C65.5708 47.6478 65.2052 47.5353 65.0505 47.2306L65.2708 47.2634C65.214 47.1736 65.1281 47.1059 65.0275 47.0718C64.9268 47.0376 64.8175 47.0391 64.7177 47.076C64.2725 46.7151 64.7131 46.6494 64.938 46.6776C64.5007 46.3809 64.0178 46.1577 63.5085 46.0167C62.9934 45.8792 62.4927 45.6925 62.0134 45.4589C61.7837 45.2293 62.1352 45.084 61.5212 44.845C59.5058 44.1794 57.8748 44.1888 55.6297 44.0435L55.0532 43.8326L54.533 44.2497C52.3441 44.1325 50.4225 44.6106 48.0368 45.0746C48.2618 44.9621 48.5571 44.9293 48.6415 44.7981C47.8822 45.0231 47.2354 45.7167 46.5276 45.787C46.5417 45.8948 46.462 45.5433 46.4854 45.4449C45.6512 45.773 45.1497 46.312 44.2029 46.6026C44.0529 46.5463 44.5919 46.3542 44.2263 46.2885L43.6686 46.462C44.0763 46.2323 43.3077 46.2979 43.4389 46.2323C43.5658 46.2534 43.6961 46.2371 43.8139 46.1854C43.767 46.0261 43.2374 46.1245 42.8906 46.1058C42.6515 46.1854 42.4828 46.3448 42.7218 46.3682C42.2719 46.3495 42.6187 46.2651 42.5765 46.1104C41.986 46.1761 41.9578 46.2885 41.9438 46.5276C42.0235 46.6822 42.0235 46.6822 42.4359 46.7197C41.841 46.7788 41.2434 46.807 40.6455 46.8041L40.3736 47.076L40.2799 47.0478C40.2846 47.1369 40.2846 47.1837 40.2658 47.2119L40.3127 47.165C39.9993 47.3747 39.6738 47.5656 39.3378 47.7368L38.7941 47.9993L38.2833 48.2383L37.4818 48.7023C37.1865 48.8664 36.8912 49.0492 36.61 49.2179C36.0495 49.5535 35.5152 49.9311 35.0118 50.3474C34.5337 50.6005 34.0697 50.8677 33.601 51.1395C34.1166 50.4646 35.2836 49.8413 35.4945 49.5179L35.2086 49.7288C35.068 49.7194 35.757 49.4241 35.7007 49.1898L35.1899 49.3257C34.4493 49.6257 35.1149 50.01 34.2806 50.0756C35.1149 49.4288 33.8353 50.1084 34.3134 49.5647C33.9759 49.5835 33.8025 49.9912 33.6291 50.3521C33.8228 50.2021 34.0299 50.0703 34.2478 49.9584C34.1634 50.1834 33.3338 50.5537 33.3854 50.9052C33.2992 50.9644 33.199 51 33.0948 51.0083C33.0256 51.0514 32.9481 51.0795 32.8674 51.0908C32.7867 51.1021 32.7045 51.0963 32.6261 51.0739L32.448 51.252C32.5745 51.3786 32.2886 51.8238 31.8856 52.0582C31.7825 52.1144 32.0074 51.7676 31.9652 51.6598C31.0676 52.0434 30.2233 52.5412 29.453 53.1409C29.6995 53.018 29.9762 52.9692 30.2498 53.0003C30.1766 53.0922 30.0933 53.1755 30.0014 53.2487C30.053 53.3002 29.8889 53.4924 29.7764 53.633L29.8842 53.3471C29.6592 53.4857 29.4697 53.6751 29.3312 53.9002C29.3124 54.0689 29.2843 54.2001 28.8718 54.2751C28.9555 54.1847 29.0123 54.0727 29.0359 53.9517C28.8252 54.1142 28.6234 54.2879 28.4313 54.472C28.375 54.4157 28.1079 54.3642 27.6767 54.5985L28.0563 54.8001C27.6486 54.963 27.2726 55.1962 26.9455 55.4891C26.1628 55.4937 25.291 57.1904 24.8926 56.9514L25.5957 56.3702C25.1598 56.3468 25.8347 55.3719 25.441 55.4562L24.7239 56.3796C25.7128 55.9531 24.1942 57.4154 24.5833 57.5513C24.2458 57.8888 23.7912 57.856 23.5428 58.3856C23.1959 58.5918 23.6037 57.9778 23.2053 58.245C23.0038 58.4934 23.1959 58.5918 22.7975 58.859C22.7975 58.8027 22.8538 58.6246 22.76 58.634C22.3101 58.9058 22.6054 58.9949 22.1976 59.4402L22.282 59.3558C22.2304 59.7073 21.6961 59.7636 21.5461 59.7729L20.5993 60.9728C20.6509 60.7338 21.1009 60.1057 20.6603 60.3307C20.8196 59.7308 22.4835 59.1636 22.0101 58.7465C21.5696 58.9058 21.3586 59.623 20.8712 59.6698C20.9602 59.9464 20.4634 60.4057 20.2103 60.7806L20.065 60.7947C19.3807 61.3852 20.4166 61.1462 19.6104 61.7649C19.4698 61.7836 19.5682 61.4227 19.1276 61.8164C19.0761 61.943 18.9261 62.1305 18.973 62.243L19.1183 62.1727C19.362 62.2008 18.6261 62.7398 18.2793 63.0116C18.3824 62.7679 18.3356 62.5992 17.9934 62.8101C18.584 62.3414 18.1574 62.0367 18.6402 61.6383C18.5465 61.8821 18.1434 62.4445 18.5371 62.2852C19.0245 62.0602 19.1792 61.5212 19.6292 61.015L19.2776 61.2821C18.9027 61.029 19.9338 60.2885 19.7932 59.8292C19.6526 59.9698 19.5401 60.0823 19.4932 60.0354C19.5963 60.0823 19.9854 59.5901 20.2431 59.3792L20.1353 59.7401C21.0634 59.3558 20.59 59.1074 21.4336 58.5637C21.4711 58.7324 20.4728 59.7589 21.1665 59.3464C21.0165 59.1964 21.6352 58.8777 21.5695 58.7277L22.2538 58.5403C22.6054 58.1044 23.0178 57.5419 23.2194 57.2373C23.1035 57.4926 22.9655 57.7373 22.8069 57.9685C23.3131 57.406 23.9365 57.5794 24.1521 56.9795L23.7584 57.1857C24.0801 56.9689 24.357 56.692 24.5739 56.3702C24.6301 56.0796 24.138 56.2905 23.838 56.4967C24.0864 56.2952 24.6817 56.0187 24.5458 55.8546C24.6832 55.8239 24.8091 55.7547 24.9087 55.6551C25.0083 55.5555 25.0775 55.4296 25.1082 55.2922C25.6097 55.0157 25.3519 55.2734 25.4925 55.3766C25.8019 55.0016 26.7065 54.472 26.3737 54.3267C26.1722 54.397 25.7597 54.8938 25.8253 54.5376C26.1675 54.6266 25.994 54.2376 26.3315 54.0314C25.9566 54.697 27.1752 53.6752 26.9033 54.1626C27.2654 53.9015 27.5727 53.5719 27.8079 53.1924L27.9626 53.3471L28.525 52.7847C28.8156 52.8784 28.6516 53.3518 29.2937 52.9534C29.5655 52.3628 29.1484 52.1613 29.8327 51.477L29.8514 51.8238C30.1045 51.6926 30.7935 51.088 30.606 50.9755C30.3038 50.9954 30.011 51.0887 29.753 51.2473L29.8327 51.1677C30.1701 50.7458 28.9328 51.3926 29.7764 50.7646C29.7811 51.2192 31.2903 50.3475 31.8949 50.2396C32.2048 49.9196 32.4841 49.5712 32.7292 49.1991C32.6589 49.1288 32.1621 49.3726 32.2558 49.082C33.4932 48.6414 33.7135 47.8024 34.9274 47.5165C34.8946 47.5493 34.9461 47.6196 35.2274 47.4322L35.4195 47.4462C35.5666 47.3043 35.7381 47.19 35.9257 47.1088L36.76 46.6963C36.8022 46.7385 36.8865 46.5698 37.0131 46.4432C36.9285 46.4676 36.8455 46.4974 36.7647 46.5323L37.0178 46.4385C37.0755 46.3201 37.1712 46.2244 37.2896 46.1667C37.3693 46.0214 37.5474 45.9933 37.749 45.9979C37.9583 46.0068 38.168 46.0037 38.377 45.9886C38.3064 46.0192 38.2376 46.0536 38.1708 46.0917C38.8082 45.9605 38.9676 45.4261 39.6331 45.5011L39.7456 45.5574C39.6378 45.5808 39.53 45.6136 39.5159 45.6464L39.7925 45.5761C40.0737 45.5293 40.0502 45.5152 39.9471 45.5246C40.4205 45.3699 40.2893 45.2574 41.0204 45.0512L40.5986 45.0699C40.7191 45.0187 40.8448 44.981 40.9736 44.9574C41.6835 44.5841 42.4614 44.3577 43.2608 44.2919C43.6374 43.9139 44.1009 43.6339 44.6107 43.4764L44.5685 43.7623L45.5715 43.5935C45.4449 43.7201 45.9793 43.7107 46.612 43.5842C47.1135 43.7951 47.7369 43.3967 47.9853 43.2326C48.1118 43.1061 48.4915 42.9046 48.5711 42.9842C48.6649 42.7499 49.2179 42.628 49.7241 42.4687C49.7983 42.4637 49.872 42.4527 49.9444 42.4359C49.9091 42.4224 49.8747 42.4067 49.8413 42.389C50.3006 42.4171 50.4131 42.0234 51.0412 42.1265C51.8801 42.0937 50.8303 42.5905 51.8333 42.5155L52.2739 42.2999C52.4098 42.3327 52.3254 42.3515 52.2598 42.3984C52.691 42.2859 53.0519 42.478 53.2066 42.1734C52.6186 42.0876 52.0241 42.0546 51.4302 42.075C52.3817 41.8266 52.4473 41.536 53.2815 41.386C53.3378 41.3297 53.1456 41.3532 53.005 41.3157C53.455 41.2126 53.8627 41.3297 53.6659 41.4703C54.0736 41.4563 54.1627 41.1797 54.7345 41.1141L54.7392 40.7157C55.134 40.6256 55.5405 40.5987 55.9437 40.6361C56.3515 40.6876 56.7452 40.772 57.0545 40.8095C56.4409 40.8573 55.8325 40.9577 55.236 41.1094C55.5219 41.7609 53.2862 41.4844 52.9863 41.7844C53.455 41.85 52.4285 42.164 53.3284 42.1265C53.8018 41.8125 54.0361 41.9812 54.5892 41.9156C54.9173 42.0937 54.1674 42.2718 55.1798 42.1875C54.7392 42.1125 55.7 41.7703 54.8845 41.8922C55.3658 41.756 55.8612 41.6758 56.3609 41.6531L57.8513 41.5969C56.7124 41.5828 58.3528 41.3016 57.6779 41.1141C57.7248 41.2735 57.2655 41.3016 56.9655 41.3391C56.6655 41.3766 56.5624 41.3579 57.2795 41.4563C56.9374 41.4516 56.6046 41.4938 56.2718 41.5266C56.1406 41.3953 57.3123 41.3204 56.4031 41.1235C56.7397 41.0592 57.0822 41.0309 57.4248 41.0391C57.7655 41.042 58.1058 41.0154 58.4419 40.9595C58.2544 41.1469 59.1777 41.2922 59.2668 41.4938C59.6418 41.5406 60.0448 41.4 60.4151 41.6484L59.7824 41.6625C60.387 41.7984 60.3636 42.0187 60.8697 42.2437C61.2166 42.2906 61.3056 42.164 61.1697 42.0093C62.0247 42.2381 62.8493 42.5686 63.6257 42.9936C62.6414 42.5062 63.321 43.1764 62.5196 42.8249C62.707 42.9467 62.8945 43.0592 63.0773 43.2045C63.784 43.3491 64.4819 43.5337 65.1677 43.7576C65.6521 43.9726 66.1751 44.0874 66.705 44.095C67.141 44.3246 67.4972 44.6808 67.7268 45.1168C68.0375 45.5867 68.4678 45.9653 68.9735 46.2135C68.7579 46.0448 68.8891 46.5416 68.7204 46.5135C68.953 46.8385 69.2133 47.1428 69.4984 47.4228C69.3953 47.1884 69.3063 46.94 69.1891 46.7104C69.9343 47.2681 70.5436 48.4492 71.0451 49.3069C70.8952 49.157 70.928 49.5272 70.5577 49.0538C70.4171 49.1476 70.8014 49.7475 70.9092 50.0053C71.3498 50.5584 71.4154 49.9866 71.8654 50.6802C72.8306 52.7137 73.3925 54.915 73.5199 57.1623C73.6161 59.4942 73.1024 61.8108 72.0294 63.8834C70.9945 65.8751 69.5844 67.648 67.8767 69.1047C67.0019 69.851 66.0442 70.4942 65.0224 71.0216C64.4975 71.2852 63.9557 71.5138 63.4007 71.7059C63.1195 71.7997 62.8383 71.9028 62.5524 71.9825L61.6712 72.17L61.6618 72.0387C60.1773 72.4348 58.6245 72.5035 57.1108 72.2403C55.5558 71.9671 54.0728 71.3802 52.7519 70.5155C51.4508 69.7003 50.2866 68.6848 49.3023 67.5064L48.5618 66.644L47.929 65.7019C47.7322 65.3832 47.4931 65.088 47.3244 64.7505L46.8182 63.7569L46.762 63.86C46.5792 62.9366 46.3823 62.7398 46.1105 62.5242C45.8386 62.3086 45.5527 62.0508 45.5621 61.0384C45.1095 60.4259 44.8324 59.7016 44.7606 58.9433C44.695 58.5403 44.6341 58.1325 44.545 57.7247C44.4979 57.3151 44.4083 56.9114 44.2779 56.5202L44.4466 56.3515C44.1916 55.7766 44.1387 55.1323 44.2966 54.5235C44.4983 53.8318 44.5729 53.1093 44.5169 52.391Z" fill="#C58A46" stroke="#F4F3F0" stroke-width="0.4" mask="url(#path-1-inside-1_1_151611)"/>
<path d="M11.1317 68.9967C10.9114 69.2169 10.6958 69.4982 10.9021 69.2919C10.9677 69.2263 11.2536 68.8748 11.0989 69.0951L10.738 69.5028C10.6443 69.5966 10.7427 69.5825 10.9161 69.3247L10.9161 69.3716L10.7989 69.4888C10.7989 69.4888 10.7052 69.7419 10.9302 69.4232C10.8224 69.5872 10.5412 69.9715 10.6068 69.9622L10.7708 69.7981C10.7193 69.8497 10.6443 69.9903 10.7849 69.8591C10.9255 69.7278 10.9349 69.7091 10.8083 69.9669C10.8883 69.7417 10.9806 69.521 11.0849 69.306C11.052 69.4607 11.3708 68.7389 11.3051 68.917L11.1927 69.1701C11.2161 69.1935 11.2676 69.0951 11.3145 68.9451L11.277 69.0669C11.2817 69.2029 11.3426 68.9264 11.3239 69.3388L11.3755 69.1935C11.3513 69.2665 11.3513 69.3454 11.3754 69.4185C11.4176 69.4607 11.4786 69.156 11.4551 69.0388C11.5114 69.1982 11.5676 69.1513 11.5864 69.0951C11.6051 69.0388 11.5723 68.9498 11.7926 68.9638C11.8301 69.2169 11.9473 69.0341 11.9332 69.2638L12.0129 69.1279C12.0129 69.1279 12.0269 69.1982 12.041 69.2216C12.0551 69.2451 12.0738 69.1888 12.0879 69.1185L12.1113 69.1419L12.266 69.1654L12.2238 68.9545L12.3785 69.1091C12.3691 69.381 12.1769 69.2357 12.2004 69.5028C12.2378 69.5403 12.5097 69.8122 12.5613 69.4419L12.8706 69.5356C12.9128 69.6622 12.8706 69.5357 12.9643 69.6294C13.0581 69.7231 13.0393 69.5544 13.1331 69.5544C13.119 69.5593 13.1062 69.5674 13.0957 69.5779C13.0851 69.5885 13.0771 69.6013 13.0721 69.6153C13.2174 69.7044 13.1752 69.4091 13.2409 69.2872C13.1752 69.2779 13.1471 69.381 13.1049 69.4232C13.0628 69.4653 13.0956 69.3575 13.0815 69.3247L12.9503 69.456C12.9409 69.3435 12.9737 69.4794 12.8753 69.381C12.949 69.3728 13.0197 69.3471 13.0815 69.306C13.0956 69.1138 12.9643 69.0576 13.0018 68.9263C13.9439 68.4998 14.7173 69.5919 15.5047 68.617C15.6453 68.8045 15.9687 68.9873 16.0437 68.8467L15.9874 68.7904C16.0999 68.6217 16.2358 69.0388 16.2874 68.7717L16.3343 68.453C16.3999 68.5186 16.5545 68.5045 16.5358 68.6545C16.5967 68.4998 16.8311 68.7061 16.7701 68.3077C16.9811 68.3124 17.1217 68.3967 17.3091 68.3405L17.3091 68.4061C17.3795 68.542 17.356 68.1624 17.4544 68.3545C17.4404 68.4436 17.2857 68.4764 17.4357 68.5795C17.4779 68.2842 17.8106 68.5608 17.881 68.6873C17.9384 68.6328 17.9749 68.5598 17.9841 68.4811C18.045 68.542 18.2137 68.7576 18.1106 68.8326C18.3075 68.7108 18.3778 69.0342 18.3309 68.6123C18.5231 68.317 18.7809 68.781 18.9402 68.3873C19.3836 68.4327 19.796 68.6356 20.1026 68.9591L20.1026 68.8373C20.0979 69.1419 20.426 69.3294 20.3416 69.5356C20.4119 69.3247 20.6135 69.4607 20.7166 69.5638L20.6978 69.7419C20.4869 69.531 20.665 69.8215 20.4307 69.7278C20.4307 69.7278 20.4588 69.6997 20.4494 69.6435C20.3416 69.695 20.1073 69.6575 19.9995 69.7091L19.9995 69.5591C19.8026 69.4747 19.8214 70.009 19.6479 70.1449C19.4464 69.9434 19.6479 69.9856 19.5542 69.6481C19.3573 69.6575 19.6151 70.7402 19.3245 70.1403L19.3667 70.0981C19.1183 70.0653 19.4417 69.9106 19.2261 69.7044C18.8465 69.7747 19.4605 70.2856 19.1558 70.5058C19.1453 70.3335 19.0679 70.1721 18.9402 70.0559C18.9449 70.3606 18.7105 70.5293 18.659 70.8433C18.6603 70.8165 18.656 70.7897 18.6464 70.7646C18.6367 70.7396 18.6219 70.7168 18.6029 70.6978C18.5839 70.6788 18.5612 70.6641 18.5361 70.6544C18.5111 70.6447 18.4843 70.6404 18.4575 70.6418C18.4856 70.4356 18.5653 70.534 18.6918 70.5387C18.6969 70.3943 18.6714 70.2505 18.6168 70.1168C18.5981 70.5855 18.1856 70.4731 18.1903 70.9652C18.2184 70.8339 18.0591 70.7308 18.0356 70.5762C18.0169 70.773 17.9044 70.7636 17.881 70.8246L17.9794 70.923C17.7732 70.7824 17.6325 71.2136 17.4216 71.3026L17.4076 71.2136C17.2904 71.3308 17.2107 71.6073 17.0373 71.5839C17.0889 71.4386 16.9623 71.2089 16.9061 71.0964C16.8076 70.7917 17.0889 70.548 16.8686 70.384C16.7655 70.5902 16.7889 71.0355 16.5499 71.0027C16.5448 71.0347 16.5461 71.0674 16.5537 71.0989C16.5613 71.1305 16.5751 71.1602 16.5943 71.1863C16.6135 71.2125 16.6376 71.2346 16.6654 71.2513C16.6932 71.2681 16.724 71.2791 16.7561 71.2839C16.6248 71.4151 16.3483 71.2136 16.3343 71.5089C16.3764 71.4667 16.4233 71.5229 16.4374 71.612C16.4139 71.5885 16.3577 72.1978 16.2733 72.0947C16.2686 71.9213 16.2452 71.9916 16.2593 71.8088C16.1608 71.7104 16.1187 71.8182 16.0765 71.9166C16.0062 71.5557 16.2827 71.851 16.1702 71.4011C15.8374 71.3401 15.8656 71.7807 15.6453 72.0479C15.5187 72.0338 15.439 72.0854 15.2984 72.001C15.2984 72.001 15.3359 71.9635 15.35 71.9494C15.0407 71.687 15.2 72.0994 14.9375 71.8088C14.9328 71.8637 14.9153 71.9167 14.8863 71.9636C14.8574 72.0104 14.8178 72.0498 14.7708 72.0785C14.7238 72.1073 14.6708 72.1246 14.6159 72.129C14.561 72.1334 14.5058 72.1249 14.4548 72.1041C14.4876 72.0713 14.4454 71.926 14.4642 71.8791C14.1642 72.0291 13.9486 72.3947 13.6018 72.2072C13.4096 72.2307 13.2549 72.3291 13.0253 72.2775C13.0628 72.24 13.0768 72.1697 13.0628 72.0994C12.73 71.9354 12.6316 72.39 12.2566 72.2963C12.1066 72.1463 11.8629 72.315 11.8676 71.9635C11.5301 72.0291 12.0504 72.3431 11.6989 72.3666L11.7223 72.39C11.2677 72.704 10.888 72.4462 10.3678 72.7603C10.2787 72.6712 10.1943 72.4744 10.0022 72.4884C9.86128 72.6858 9.68865 72.8584 9.4913 72.9993C9.39042 72.9576 9.28165 72.9384 9.17258 72.9431C9.25226 73.1446 8.97573 73.1399 8.8445 73.2243C9.08822 72.9806 8.98511 72.9243 9.2757 72.7181C9.06478 72.5072 8.63358 73.454 8.31486 73.3227L8.46015 73.0087C8.50233 73.0509 8.65702 72.9149 8.74607 72.8915C8.6992 72.8446 8.57733 72.7228 8.3008 72.9524C8.10864 73.1446 8.41797 73.1821 7.96802 73.3883C8.36173 72.9009 7.6493 73.5102 7.9024 73.0415C7.71023 73.2337 7.39152 73.468 7.33059 73.4071C7.37178 73.3519 7.42073 73.303 7.4759 73.2618C7.29779 73.2243 7.04001 73.6977 6.78222 73.7211C6.8994 73.6039 7.29778 73.2993 7.31653 73.1868C7.38683 72.9571 7.03064 73.3883 6.96971 73.2618C6.75751 73.5187 6.50019 73.7347 6.21041 73.8992C6.47655 73.5949 6.7899 73.3354 7.13844 73.1305C7.2369 72.8697 7.42453 72.6522 7.66807 72.5166C7.06813 72.929 6.74472 72.99 5.99481 73.4493C6.14011 73.304 6.08387 73.2946 5.98544 73.3087C5.69016 73.4821 5.07149 73.9414 4.81839 74.0914C4.78558 74.1242 4.78089 74.1289 4.81839 74.0914C4.63758 74.2203 4.46823 74.3646 4.3122 74.5226C4.25931 74.5296 4.20572 74.5296 4.15284 74.5226C4.39656 74.2789 4.67778 74.2039 4.95431 73.9367L5.0996 73.707C4.78142 73.8896 4.49231 74.1186 4.24188 74.3867C4.60747 74.0211 3.97942 74.4429 4.20908 74.1851C4.25595 74.232 4.42937 74.0773 4.59341 73.9414C4.75746 73.8055 4.90745 73.6836 4.93088 73.7633L5.08554 73.6086C5.37614 73.3836 5.42769 73.454 5.68548 73.2712C5.75578 73.1071 5.39488 73.3462 5.44175 73.2055C5.87764 72.9103 5.44176 73.3368 5.9667 72.9899C6.18698 72.6947 5.68548 72.9993 6.1448 72.6056C6.17292 72.6337 6.18698 72.6478 6.15417 72.7087C6.12136 72.7697 6.18697 72.7415 6.40257 72.5916L6.81503 72.2447L6.91347 72.1463C6.91347 72.1463 6.84784 72.165 6.83378 72.1322C6.66505 72.2072 6.4307 72.4697 6.51975 72.4463L6.66036 72.3056L6.39321 72.5072L6.36977 72.5306C6.35925 72.5141 6.35217 72.4956 6.34895 72.4763C6.34573 72.457 6.34643 72.4372 6.35102 72.4181L6.49164 72.2775L6.42133 72.3478C6.44806 72.3124 6.47961 72.2808 6.51507 72.2541C6.55725 72.1463 6.23384 72.2447 6.49163 72.0057L6.576 72.0901C6.80068 71.9031 7.00778 71.6961 7.19468 71.4714C7.31654 71.3495 7.35403 71.1339 6.96501 71.3729L6.97439 71.4292C6.47757 71.6729 7.34934 71.0542 6.74941 71.4104C6.67911 71.4807 6.69786 71.462 6.71661 71.4995C6.46507 71.5702 6.24004 71.7137 6.0698 71.912L6.43539 71.7807C6.02293 72.1182 6.52913 71.8744 6.20104 72.1931C6.12488 72.2558 6.0395 72.3064 5.94794 72.3431C6.09792 72.1369 6.12135 71.9916 5.94794 72.0244C5.88232 72.1932 5.61516 72.2072 5.54486 72.3244C5.64328 72.0479 5.04336 72.5166 5.14179 72.2025L5.47926 72.1182C5.66205 71.8135 5.1371 72.0854 4.91681 72.09C4.99649 71.9635 5.55893 71.5979 5.42769 71.5229C5.76984 71.1808 5.1699 71.4901 5.15115 71.3401C5.48862 71.237 5.54018 71.3542 5.58705 71.4198L5.62455 71.3823C5.62455 71.3823 5.62455 71.3823 5.67142 71.3823C5.95263 71.1573 5.31052 71.1433 5.93858 71.0027C5.7136 71.3308 6.21979 71.2839 6.35571 71.4198C6.23385 71.5417 6.28541 71.5932 6.12605 71.7245C6.42995 71.594 6.71776 71.4289 6.98377 71.2323C6.74473 71.2558 6.48226 71.4151 6.4682 71.2698C6.60881 71.1292 6.48225 71.0214 6.44007 70.9324L6.15417 71.0683C6.05574 70.9699 6.21511 70.6324 5.8589 70.773C6.02763 70.7355 6.14949 70.6324 6.10731 70.5808L6.31822 70.5949C6.56663 70.4777 6.6838 70.2293 6.90409 70.2434C6.98377 70.0325 6.66037 70.1215 6.91815 69.8637C7.07751 69.7044 6.0323 69.8122 6.37445 69.4044C6.7541 69.3154 6.5385 69.6153 6.97439 69.4325C7.1853 69.1279 6.92752 69.0857 6.63693 68.9451C6.44945 69.0576 6.35102 68.9592 6.14948 68.9638L6.33696 68.7764C6.60411 68.8185 6.18698 68.8607 6.44945 68.9451C6.59707 68.8955 6.72401 68.7982 6.81034 68.6686L6.98845 68.7436C7.12906 68.6498 6.9369 68.5045 7.29779 68.5186C7.20713 68.4375 7.12108 68.3515 7.04002 68.2608C7.41028 68.1061 7.14781 68.003 7.1525 67.8202L6.8994 67.9327L7.14311 67.764C7.10093 67.5906 6.75409 67.8155 6.87595 67.5624C7.09624 67.8296 7.28842 67.3937 7.64463 67.5437C7.5462 67.6421 7.35873 67.8296 7.61651 67.8437C7.80581 67.7474 8.01363 67.693 8.22582 67.6843C8.22582 67.6843 8.19768 67.6562 8.24924 67.614C8.3008 67.5718 8.31955 67.5437 8.28205 67.5249C7.99615 67.4546 7.61182 67.3515 7.30248 67.3047C7.21342 67.2156 7.59307 67.2578 7.77586 67.2531C7.95865 67.2484 8.23987 67.3047 8.27268 67.2437C8.22581 67.4781 8.38048 67.2484 8.53047 67.3796L8.53515 67.2718C8.50703 67.2437 8.58671 67.2203 8.49766 67.1406L8.42735 66.9391C8.38985 66.8078 8.37111 66.686 8.43204 66.6157L8.56327 66.7469C8.47891 66.5501 8.74605 66.7516 8.63357 66.5079C8.54451 66.4188 8.54453 66.5969 8.46485 66.4329C8.7695 65.8939 9.16788 65.3736 9.40692 64.844C9.68345 65.0268 9.73032 64.755 9.86156 64.7175C9.76782 64.6237 9.63659 64.5768 9.68346 64.68C9.58972 64.4831 9.63189 64.4409 9.67876 64.3284C9.93186 64.4222 9.93187 64.3003 9.86156 64.1456C9.95999 64.2441 10.1522 64.305 9.95062 64.3753C10.0444 64.3847 10.2178 64.7924 10.3724 64.6097C10.1334 64.2113 10.0397 63.855 10.1662 63.6254C10.2834 63.5082 10.2131 63.391 10.3818 63.4098L10.4662 63.4942C10.5693 63.4567 10.4287 63.3535 10.349 63.2832C10.4381 63.1942 10.6677 63.4051 10.7427 63.4988C10.8224 63.2036 10.5037 62.9224 10.6958 62.6833C10.8177 62.6833 11.0286 62.8755 11.0849 62.7442C11.2208 62.299 11.202 61.8678 11.652 61.5866L11.9238 61.6147L11.6473 61.3382C12.0687 61.1383 12.4378 60.843 12.7253 60.4757C12.7722 60.5226 12.6878 60.5695 12.7628 60.6445C12.819 60.4945 12.4628 60.1102 12.6222 60.0539C12.7254 60.1031 12.8242 60.1611 12.9175 60.2273C12.9081 60.0211 12.6316 59.754 12.6503 59.5571C12.744 59.5759 12.7534 59.7071 12.9034 59.7165L12.9221 59.5946C12.9971 59.7352 13.1565 59.6508 13.1799 59.7024C13.2034 59.754 13.0862 59.7024 13.1237 59.7586C13.2643 59.8336 13.3346 59.754 13.4611 59.7493C13.4561 59.71 13.4382 59.6735 13.4102 59.6456C13.3822 59.6176 13.3457 59.5996 13.3065 59.5946C13.4565 59.5852 13.419 59.6415 13.5643 59.7212C13.6908 59.6602 13.6158 59.604 13.419 59.4821C13.3259 59.4217 13.2155 59.3937 13.1049 59.4024C13.3158 59.379 13.419 59.2759 13.6393 59.3087L13.5127 59.1821L13.5455 59.215C13.5082 59.1837 13.4737 59.1492 13.4424 59.1118C13.1659 58.5822 13.6627 58.2916 13.5924 57.8182L13.8267 57.5839C14.0002 57.8323 13.7845 58.0104 13.9064 58.151L13.9111 58.0713C13.9955 58.0901 13.822 58.1604 14.0283 58.2823L14.2157 58.2635C14.4079 58.1932 13.7658 57.9542 14.1829 57.9964C14.1736 58.2213 14.4079 58.0245 14.5298 58.2307C14.7032 58.2541 14.5204 58.0901 14.361 57.9307C14.3598 57.9569 14.3517 57.9823 14.3378 58.0044C14.3238 58.0266 14.3044 58.0448 14.2814 58.0573C14.1783 57.9542 14.3845 57.8698 14.1173 57.7057C14.1173 57.7057 14.1548 57.6683 14.2157 57.6917C14.2767 57.7151 14.3517 57.687 14.4501 57.7104L14.4782 57.6823C14.3189 57.6167 14.1783 57.448 14.2673 57.387C14.3564 57.3261 14.3845 57.5042 14.4923 57.5558C14.8579 57.5276 14.8485 57.3402 15.0782 57.2042C14.9364 57.2177 14.7934 57.205 14.6563 57.1668C14.6497 57.1564 14.6457 57.1445 14.6449 57.1322C14.6441 57.1199 14.6464 57.1076 14.6516 57.0964C14.5987 57.0743 14.5566 57.0322 14.5345 56.9793L14.6423 57.0871C14.6798 57.0496 14.7173 57.0121 14.6235 56.9183C14.5298 56.8246 14.4595 56.8012 14.7032 56.8387C14.7255 56.886 14.7636 56.9242 14.811 56.9465C14.8294 56.9281 14.8439 56.9061 14.8535 56.8819C14.8632 56.8578 14.8679 56.8319 14.8672 56.8059C14.9959 56.8545 15.1361 56.8643 15.2703 56.834L14.886 56.7121C15.1625 56.6324 15.0969 56.6324 15.1485 56.5528C15.65 56.6231 15.0922 56.0466 15.5187 56.1825L15.4437 56.3418C15.7437 56.3887 15.9546 56.7121 16.1515 56.7121L16.0062 56.4168C15.6453 56.4965 15.6593 56.07 15.3219 55.9763C15.3359 55.8872 15.6359 55.9341 15.4484 55.756C15.5187 55.6857 15.6781 55.9013 15.7671 55.831C15.8562 55.7607 15.5375 55.7044 15.6218 55.6388C15.6773 55.6786 15.7391 55.7087 15.8046 55.7279C15.8937 55.6388 15.6734 55.5966 15.6359 55.4748C15.4391 55.3529 15.7484 55.3623 15.8515 55.381L15.6828 55.0248C15.8093 55.1045 15.9359 55.2779 16.0718 55.2451C16.3671 55.4466 15.6359 55.531 16.2311 55.7232C16.4186 55.695 16.0812 55.4513 16.3764 55.4654C16.128 55.3576 16.1468 55.2357 16.0718 55.1139L16.1608 55.1185C16.2218 54.9545 15.6828 54.9686 15.8281 54.7858C15.9171 54.7905 16.0858 54.9123 16.1233 54.7998C16.0731 54.7417 16.0107 54.6953 15.9406 54.6639L15.9077 54.6967C15.7203 54.678 15.8562 54.5327 15.9077 54.4624C15.9921 54.5467 16.1468 54.5983 16.2358 54.5467C16.1327 54.6498 16.653 54.7951 16.592 54.9029C16.5077 54.8186 16.3905 54.6545 16.2265 54.6873C16.0624 54.7202 16.3108 54.9123 16.3483 55.0623L16.4139 54.9967C16.8451 55.1092 16.6436 55.3107 17.0373 55.4794C17.0654 55.4513 17.0326 55.3998 17.0982 55.4185C16.9998 55.3951 17.0701 55.5497 17.0373 55.6107L16.8639 55.4841C16.4936 55.5638 16.9811 55.6857 16.7842 55.8263C16.6342 55.7607 16.6202 55.456 16.4327 55.5591C16.6389 55.6248 16.4374 55.6951 16.578 55.7607L16.2452 55.7747C16.3093 55.9203 16.3861 56.0599 16.4749 56.1919C16.3932 56.1206 16.3164 56.0439 16.2452 55.9622C16.2874 56.1356 15.7531 56.0138 15.9968 56.2106L16.1187 56.1637C16.0343 56.2481 16.0765 56.3278 16.1421 56.4122C16.1992 56.4546 16.268 56.4786 16.3391 56.4812C16.4102 56.4837 16.4805 56.4645 16.5405 56.4262C16.4936 56.4731 16.3061 56.5387 16.503 56.6137C16.3296 56.6184 16.3952 56.7215 16.5077 56.7871C16.3671 56.8527 16.3624 56.773 16.1983 56.7215C16.2452 56.8434 16.0109 56.9652 16.3296 57.059C16.4092 57.0543 16.3483 56.8902 16.5405 57.0261C16.264 56.9558 16.6436 57.1293 16.5452 57.1808C16.3249 56.9605 16.2218 57.2417 16.0765 57.0683C15.9593 57.1855 16.1233 57.2652 16.1327 57.387L15.9359 57.3027L15.9406 57.4761C15.6968 57.4011 15.4906 57.223 15.3312 57.3167C15.5468 57.5323 15.9359 57.6495 15.964 57.8839L15.7203 57.7339C15.6734 57.7807 15.6265 57.9495 15.814 58.0151C15.9324 58.0472 16.0583 58.0373 16.1702 57.987C16.2499 58.1323 16.592 57.987 16.4842 58.1698C16.1655 57.9635 15.8187 58.1885 15.5469 58.1698C15.5998 58.312 15.6776 58.4437 15.7765 58.5588C15.8656 58.5916 15.9874 58.5353 16.1374 58.6572C15.7249 58.7416 16.189 59.1118 15.7437 59.154C15.7437 59.154 15.6781 59.0884 15.6453 59.1681L15.5328 59.1493C15.5656 59.1821 15.5562 59.2571 15.5094 59.2665L15.3734 59.4024C15.3359 59.3649 15.4062 59.4352 15.4625 59.4915C15.4797 59.481 15.4942 59.4665 15.5047 59.4493L15.4625 59.4915C15.5094 59.5384 15.5468 59.5759 15.4953 59.5899C15.6921 59.7211 15.3078 59.6368 15.2094 59.6696C15.2094 59.6696 15.2094 59.6696 15.2094 59.6133C15.0594 59.679 15.4203 59.9461 15.1203 59.918L15.0266 59.8899L15.0594 59.8571L15.0172 59.8993C14.975 59.9414 14.9704 59.9461 15.0172 59.8993C14.9516 59.9649 15.1063 60.0352 15.0219 60.157L15.1531 60.1383C15.1297 60.1617 15.1156 60.1758 15.1016 60.1898C15.1438 60.3164 15.1438 60.5882 14.9375 60.6257C15.1156 60.8788 15.2563 60.9444 15.2281 61.1413L15.0078 60.9866L14.8485 61.146C14.7641 61.0616 14.6235 61.0991 14.5204 61.1929C14.1923 61.0991 14.3517 61.3616 14.3751 61.4319C14.3985 61.5022 14.4735 61.6241 14.3892 61.5866C14.5345 61.7319 14.4782 61.7975 14.4595 61.91L14.4267 61.9428L14.497 61.9662C14.3423 61.9709 14.6282 62.1912 14.3704 62.1677C14.1782 62.2381 14.0517 61.9053 13.8502 62.0131L13.9111 62.1584C13.8549 62.149 13.8689 62.1162 13.8408 62.0881C13.8314 62.1818 13.5924 62.1115 13.8127 62.2849C14.0329 62.2521 14.1501 62.2849 14.3189 62.2006C14.286 62.4021 14.5016 62.5615 14.4454 62.7114C14.4923 62.7583 14.5017 62.7208 14.5673 62.7302C14.5485 62.8145 14.3704 62.7958 14.2954 62.7021C14.2392 62.7583 14.4407 62.9036 14.3985 63.002L14.7266 63.2082C14.7969 63.4098 14.511 63.4238 14.3798 63.4801C14.4735 63.3864 14.286 63.1426 14.3282 63.063C13.7096 62.7442 14.3329 62.6458 14.1782 62.4724C14.0283 62.4818 14.0048 62.2427 13.8361 62.3365C13.9861 62.5427 13.8127 62.4818 13.7658 62.5755C13.5596 62.5193 13.5268 62.3365 13.4377 62.5005C13.5643 62.4865 13.7049 62.7677 13.7236 62.6177C13.822 62.9692 13.6721 62.9411 13.6814 63.2317C13.7471 63.0348 13.9205 63.4707 14.1033 63.4473C13.8267 63.302 14.0798 63.0489 13.8549 63.1989L13.8877 62.9973C14.0283 63.063 13.9627 63.2692 14.2204 63.227C14.272 63.4473 14.122 63.4192 14.2626 63.6723C14.1173 63.527 13.9908 63.6629 13.8174 63.5832C13.808 63.6582 13.9626 63.8222 13.7845 63.8035L13.7189 63.6348C13.6393 63.7144 13.4471 63.6066 13.344 63.6629C13.3672 63.7123 13.4018 63.7555 13.445 63.7889C13.4882 63.8223 13.5387 63.845 13.5924 63.855C13.4705 63.9769 13.5315 64.1785 13.3393 64.2581C13.4799 64.1175 13.0909 64.066 13.1752 63.9347L13.0159 63.9722C13.1329 64.3962 13.3536 64.7843 13.658 65.1018C13.6908 65.4439 13.0909 64.994 13.3627 65.547C13.344 65.4814 13.1049 65.4299 13.0299 65.3549C12.9925 65.3924 12.9128 65.472 12.9362 65.5424L13.1799 65.5424C13.2737 65.7767 12.9971 65.8751 12.9175 66.0298C12.8706 65.9829 12.73 65.9454 12.7019 65.8142C12.5613 65.7298 12.5144 65.8423 12.4769 65.8798C12.5378 66.0626 12.8331 66.1423 12.8612 66.3298C12.4206 66.9672 12.0551 67.6515 11.6801 68.3264L11.4317 68.7717C11.4317 68.7717 11.4317 68.7717 11.4083 68.7951L11.2442 68.856L11.0567 68.8748C11.2348 68.9123 11.2302 68.9076 11.0895 69.0107C10.8908 69.149 10.7111 69.3129 10.5552 69.4982L10.7521 69.3669C10.1381 69.8122 10.4709 69.6013 10.7802 69.3388C11.3848 68.8935 11.0895 69.0763 10.7802 69.3388L11.2161 69.0154L11.2864 68.9451C11.2864 68.9451 11.1458 69.0857 11.5067 68.7717L11.2348 69.0435C11.5817 68.6967 11.4411 68.8373 11.2958 68.9826C11.1505 69.1279 10.9161 69.2123 11.1317 68.9967Z" fill="#C58A46"/>
</svg>
