<svg width="25" height="25" viewBox="0 0 25 25" fill="none" xmlns="http://www.w3.org/2000/svg">
<path d="M3.54875 21.923C3.2076 20.8784 2.78372 19.8626 2.28111 18.8854C2.0245 18.3554 1.79637 17.812 1.5977 17.2577C1.505 17.0141 1.38212 16.777 1.30666 16.5312C1.23121 16.2854 1.15144 16.0116 1.09107 15.7486C0.843354 14.7032 0.666172 13.6422 0.560732 12.573C0.457251 11.5619 0.493901 10.5551 0.440004 9.55483C0.396691 9.05294 0.390207 8.54856 0.420602 8.04573C0.470075 7.50648 0.584444 6.97518 0.761229 6.46333C0.921557 5.95238 1.19661 5.48485 1.56536 5.09651C1.75079 4.90659 1.96284 4.74465 2.19487 4.61576C2.30698 4.55755 2.37165 4.54677 2.43849 4.61576C2.63251 4.83134 2.67348 5.19353 2.77049 5.45223C2.81039 5.58234 2.88143 5.70073 2.97745 5.79717C3.17148 5.96748 3.40862 5.73896 3.57031 5.61392C3.79257 5.47884 4.04993 5.41281 4.30977 5.42421C4.52602 5.37982 4.7479 5.36963 4.96731 5.39402C5.18889 5.48121 5.39001 5.61333 5.55802 5.78207C5.7647 5.95136 5.95132 6.14378 6.11422 6.35554C6.34706 6.66383 6.38371 7.18123 6.81057 7.29765C7.05674 7.33814 7.30934 7.30825 7.53925 7.21141C7.80392 7.12209 8.0813 7.07622 8.36063 7.07559C8.62507 7.05757 8.89058 7.06335 9.15399 7.09284C9.41979 7.16319 9.66132 7.30482 9.85249 7.50244C10.081 7.69647 10.3785 7.77193 10.6049 7.96812C10.8027 8.12086 10.9566 8.32314 11.0511 8.5545C11.0952 8.78028 11.1823 8.99546 11.3077 9.18833C11.3372 9.22025 11.3763 9.24172 11.4191 9.2495C11.4618 9.25728 11.506 9.25094 11.5448 9.23145C11.6753 9.142 11.7861 9.02682 11.8704 8.89298C11.9721 8.74569 12.1264 8.64306 12.3015 8.60626C12.6016 8.50249 12.914 8.43871 13.2307 8.41654C13.5478 8.38962 13.8644 8.47258 14.1276 8.65152C14.2613 8.75461 14.3777 8.87833 14.4725 9.01802C14.5609 9.15815 14.5911 9.32415 14.6881 9.46213C14.9985 9.96013 15.5763 9.75532 15.9967 9.53973C16.2011 9.41554 16.4178 9.31295 16.6434 9.23361C16.8935 9.16677 17.0487 9.29397 17.1975 9.49231C17.3543 9.71962 17.4784 9.96781 17.5662 10.2296C17.6193 10.4572 17.687 10.6812 17.7688 10.9001C17.794 10.9595 17.8321 11.0125 17.8805 11.0552C17.9289 11.0978 17.9862 11.1291 18.0483 11.1467C18.1103 11.1643 18.1755 11.1677 18.2391 11.1568C18.3027 11.1458 18.363 11.1207 18.4156 11.0833C18.5169 11.0316 18.6117 10.954 18.7195 10.9109C18.8934 10.8527 19.0752 10.8222 19.2585 10.8203C19.5989 10.7954 19.9404 10.8493 20.2567 10.9777C20.3995 11.0404 20.5269 11.1337 20.6297 11.2511C20.7325 11.3684 20.8083 11.5069 20.8517 11.6568C20.9487 11.9241 21.0436 12.2432 21.3044 12.3962C21.5653 12.5493 21.9512 12.4803 22.2702 12.4825C22.602 12.4729 22.9336 12.5092 23.2555 12.5903C23.3776 12.6103 23.4919 12.6635 23.5858 12.7441C23.6797 12.8247 23.7497 12.9296 23.788 13.0473C23.8871 13.4785 23.6371 13.9808 23.4107 14.3408C23.2167 14.6448 23.0075 14.938 22.8178 15.2463C22.5977 15.6059 22.3535 15.9501 22.087 16.2768C21.6105 16.9134 21.0965 17.5209 20.5477 18.0963C19.9678 18.6526 19.2908 19.0686 18.67 19.5731C18.3638 19.8232 18.0663 20.0862 17.7602 20.3363C17.4584 20.5812 17.1376 20.8018 16.8008 20.996C16.471 21.1878 16.195 21.4271 15.8846 21.6427C15.5741 21.8583 15.2378 22.0157 14.9101 22.2076C14.2504 22.5978 13.6511 23.0699 12.9806 23.4472C12.641 23.6183 12.2928 23.7716 11.9372 23.9064C11.6505 24.025 11.3875 24.2362 11.0749 24.2664C10.7113 24.2636 10.3546 24.1663 10.04 23.984C9.66275 23.8212 9.27618 23.6808 8.88235 23.5636C8.16445 23.3329 7.44655 23.1109 6.72649 22.8845C6.37293 22.7746 6.02584 22.6409 5.67228 22.5309C5.28206 22.4081 4.90694 22.2421 4.51889 22.1235C4.14762 22.037 3.78249 21.9261 3.42587 21.7915C3.19519 21.6859 3.07447 22.061 3.30299 22.1644C3.67943 22.3043 4.06385 22.4216 4.45422 22.5159C4.86167 22.6452 5.2562 22.8134 5.66581 22.947C6.02368 23.0591 6.37509 23.1971 6.74374 23.3049C7.11239 23.4127 7.50691 23.5356 7.88634 23.6585L9.02463 24.0271C9.42562 24.1543 9.80075 24.3203 10.1888 24.482C10.516 24.6355 10.8803 24.6924 11.2387 24.6458C11.5686 24.5898 11.8467 24.3785 12.1506 24.2535C12.5242 24.1134 12.8885 23.9499 13.2415 23.7641C13.5886 23.5658 13.9206 23.3329 14.2504 23.1173C14.5803 22.9018 14.8972 22.6862 15.2421 22.4706C15.5903 22.2932 15.926 22.0922 16.2468 21.8691C16.3977 21.757 16.5335 21.6276 16.6779 21.522C16.8224 21.4164 17.0186 21.3064 17.191 21.2159C17.5319 21.0061 17.8556 20.7697 18.159 20.5087C18.4781 20.2436 18.7907 19.9676 19.1162 19.7111C19.4417 19.4545 19.7867 19.2389 20.1079 18.9867C20.7464 18.4905 21.3149 17.9104 21.7981 17.262C22.059 16.9149 22.3435 16.5894 22.6109 16.2466C22.866 15.8995 23.1034 15.5397 23.3223 15.1687C23.6284 14.6815 23.9863 14.2395 24.1329 13.6704C24.2709 13.1379 24.1825 12.5924 23.65 12.323C23.3252 12.1788 22.9747 12.1018 22.6195 12.0966C22.4664 12.0966 22.3112 12.0836 22.156 12.0966C21.9741 12.1181 21.7903 12.1181 21.6084 12.0966C21.3217 12.0341 21.2548 11.6094 21.1643 11.3787C21.044 11.0708 20.8135 10.8187 20.5175 10.6716C20.1983 10.5136 19.8475 10.4296 19.4913 10.4258C19.1488 10.3982 18.8048 10.4545 18.4889 10.5896C18.3854 10.6568 18.2773 10.7166 18.1655 10.7686C18.1202 10.7837 18.1655 10.7923 18.1375 10.7556C18.0987 10.6889 18.0718 10.616 18.0577 10.5401C18.0021 10.299 17.9301 10.062 17.8421 9.83078C17.6373 9.35218 17.2751 8.71836 16.6607 8.81968C16.413 8.87952 16.176 8.97694 15.9579 9.10856C15.7611 9.23822 15.5417 9.32964 15.3111 9.37804C15.0115 9.40391 14.977 9.07839 14.867 8.87142C14.6983 8.56877 14.441 8.32501 14.1297 8.17293C13.498 7.87973 12.7715 8.03711 12.1399 8.24192C11.9795 8.28498 11.8318 8.36552 11.7087 8.4769C11.5923 8.59331 11.5233 8.78303 11.3831 8.87358L11.6181 8.91885C11.5388 8.79383 11.4867 8.65355 11.4651 8.50708C11.4157 8.3354 11.3345 8.17452 11.2258 8.03279C11.1182 7.89037 10.9945 7.76088 10.8571 7.6469C10.6859 7.52112 10.5015 7.41414 10.3074 7.32782C10.15 7.2256 10.002 7.10943 9.86542 6.98073C9.71223 6.86263 9.53708 6.77616 9.35017 6.72634C8.96963 6.6527 8.58052 6.63383 8.19463 6.67029C7.81736 6.67029 7.49182 6.83845 7.12748 6.90312C7.07458 6.9229 7.01716 6.92732 6.96185 6.91587C6.90654 6.90443 6.85559 6.87759 6.81488 6.83845C6.73984 6.72534 6.68173 6.60187 6.64241 6.47195C6.48679 6.15276 6.26655 5.86939 5.99565 5.63979C5.7546 5.39426 5.47403 5.19093 5.16565 5.0383C4.85305 4.90679 4.465 5.00596 4.13946 5.0383C3.9233 5.04641 3.71023 5.09238 3.50995 5.17412C3.35473 5.24742 3.24047 5.41557 3.07878 5.46731L3.26634 5.52984C3.15613 5.39051 3.08208 5.22609 3.05075 5.05123C2.99579 4.83599 2.91012 4.62979 2.79636 4.43898C2.42771 3.8957 1.83053 4.3355 1.46835 4.65456C0.920822 5.15864 0.525701 5.80622 0.327902 6.52369C0.105059 7.23446 -0.00550251 7.97565 0.000210593 8.72051C0.000210593 9.03958 0.0411707 9.36727 0.0562617 9.67555C0.0713528 10.0356 0.0735078 10.3956 0.0756637 10.7535C0.0756637 11.4606 0.125249 12.1548 0.200704 12.8576C0.273614 13.5972 0.384429 14.3326 0.532708 15.0609C0.663401 15.7722 0.86341 16.469 1.12988 17.1413C1.30666 17.5552 1.44032 17.9864 1.61495 18.4025C1.78957 18.8185 2.01378 19.2174 2.20997 19.6249C2.58475 20.3976 2.90461 21.1958 3.16717 22.0135C3.24478 22.2507 3.63068 22.1709 3.55307 21.9295L3.54875 21.923Z" fill="#50735F"/>
<path d="M2.82854 4.53818C2.92369 4.33037 3.05427 4.1407 3.21444 3.97766C3.36535 3.83321 3.52057 3.69308 3.67148 3.54649C4.02015 3.2191 4.39192 2.91722 4.78391 2.64318C5.48456 2.14086 6.196 1.62346 7.00875 1.31302C7.45461 1.165 7.91171 1.05325 8.37557 0.978863C8.88796 0.870458 9.40738 0.798416 9.92994 0.763277C10.9583 0.69429 11.9672 0.868911 12.9934 0.894781C13.2888 0.894725 13.5836 0.91852 13.8752 0.965929C14.1619 1.01767 14.4422 1.10175 14.7246 1.18151C15.0523 1.26775 15.3886 1.34105 15.7249 1.3971C15.9728 1.43591 15.9901 1.04354 15.7421 1.00257C14.9251 0.871067 14.149 0.560623 13.3168 0.517506C12.7821 0.491636 12.254 0.480858 11.7215 0.424806C11.2041 0.365879 10.6831 0.345695 10.1628 0.364435C9.63731 0.3876 9.11422 0.448851 8.59762 0.547691C8.09949 0.628525 7.60642 0.737926 7.12086 0.875373C6.25851 1.14917 5.50181 1.66442 4.77097 2.18614C4.33056 2.48293 3.91131 2.80996 3.51626 3.16489C3.13467 3.52492 2.73584 3.85692 2.50085 4.33552C2.47615 4.38038 2.46823 4.43257 2.4785 4.48274C2.48877 4.53291 2.51656 4.57778 2.5569 4.60932C2.60036 4.6379 2.65339 4.64805 2.70433 4.63753C2.75526 4.62702 2.79994 4.59671 2.82854 4.55327V4.53818Z" fill="#50735F"/>
<path d="M16.1887 3.06773C15.7575 2.53308 15.8244 1.57802 16.2232 1.04768C16.4388 0.754486 16.8204 0.594959 17.1459 0.44836C17.3033 0.391903 17.4728 0.377778 17.6374 0.407399C17.8429 0.418798 18.0474 0.443287 18.2497 0.480704C18.4303 0.512508 18.6048 0.572133 18.7671 0.657473C18.9304 0.75613 19.0673 0.893012 19.1659 1.05631C19.3815 1.35813 19.6661 1.57587 19.679 1.97902C19.6805 2.16275 19.6428 2.34468 19.5685 2.5127C19.4941 2.68073 19.3848 2.83098 19.2479 2.95347C18.9768 3.18679 18.6636 3.36608 18.3252 3.48166C17.9543 3.58818 17.5636 3.6059 17.1847 3.53339C16.8086 3.49615 16.4553 3.33544 16.1801 3.07635C16.1455 3.03747 16.0969 3.01392 16.0449 3.01089C15.993 3.00786 15.9419 3.02559 15.903 3.06018C15.8642 3.09477 15.8406 3.14339 15.8376 3.19534C15.8346 3.2473 15.8523 3.29834 15.8869 3.33722C16.1741 3.62667 16.5452 3.81827 16.9476 3.8848C17.361 3.98385 17.7907 3.99487 18.2087 3.91714C18.6275 3.8112 19.0201 3.62041 19.3621 3.35661C19.547 3.22542 19.7033 3.05802 19.8216 2.86457C19.9398 2.67112 20.0174 2.45565 20.0498 2.23126C20.0812 2.01575 20.0625 1.79592 19.9952 1.58881C19.9279 1.38169 19.8138 1.19284 19.6618 1.03691C19.5173 0.875216 19.4074 0.672565 19.2522 0.52381C19.0784 0.366856 18.8724 0.249863 18.6485 0.181036C18.4195 0.107852 18.1831 0.060128 17.9436 0.038742C17.7179 0.000813268 17.4883 -0.00931289 17.2602 0.00856992C17.0544 0.0571185 16.8573 0.137101 16.6759 0.245709C16.473 0.33698 16.2825 0.453605 16.1089 0.592799C15.3867 1.22878 15.2768 2.59129 15.8933 3.33722C16.055 3.52478 16.3439 3.26176 16.1887 3.06773Z" fill="#50735F"/>
<path d="M18.4997 1.48526C18.7454 1.34082 18.9503 1.14463 19.1874 0.987255C19.4317 0.848201 19.7002 0.756757 19.9786 0.717772C20.2739 0.653096 20.5736 0.609982 20.869 0.545306C20.9838 0.521671 21.1015 0.515127 21.2182 0.525898C21.332 0.542398 21.4481 0.522792 21.5502 0.469843C21.7658 0.340492 21.5912 -0.0130703 21.3734 0.118437C21.3001 0.161554 21.188 0.118437 21.1083 0.118437C20.9757 0.119088 20.8438 0.137209 20.7159 0.172334C20.4141 0.239165 20.1058 0.280128 19.804 0.349116C19.5302 0.394228 19.2662 0.486116 19.0236 0.620756C18.7778 0.775978 18.5708 0.982937 18.3207 1.12954C18.0707 1.27613 18.2798 1.61029 18.4997 1.48094V1.48526Z" fill="#50735F"/>
<path d="M19.3467 3.2337C19.7111 3.63685 20.0646 4.05078 20.4462 4.43884C20.9241 4.9253 21.3437 5.46574 21.6966 6.04926C22.0647 6.61699 22.3453 7.23693 22.5288 7.88821C22.6085 8.2159 22.6538 8.55222 22.7077 8.88637C22.7412 9.046 22.76 9.20837 22.7638 9.37144C22.7629 9.53943 22.7796 9.70705 22.8133 9.8716C22.8845 10.2683 22.9039 10.6693 22.9362 11.0724C22.9556 11.288 22.9772 11.5036 22.9966 11.7084C22.9919 11.9011 22.9754 12.0933 22.947 12.284C22.9457 12.3098 22.9495 12.3355 22.9582 12.3598C22.9669 12.3841 22.9803 12.4064 22.9976 12.4256C23.0149 12.4447 23.0358 12.4602 23.0591 12.4712C23.0825 12.4823 23.1077 12.4886 23.1335 12.4899C23.1592 12.4912 23.185 12.4874 23.2093 12.4787C23.2336 12.47 23.2559 12.4566 23.275 12.4393C23.2942 12.422 23.3097 12.4011 23.3207 12.3777C23.3318 12.3544 23.3381 12.3292 23.3394 12.3034C23.3394 12.1352 23.3976 11.9714 23.3954 11.8011C23.3933 11.6308 23.3609 11.4281 23.3437 11.2427C23.3092 10.8655 23.2963 10.4817 23.251 10.1044C23.2294 9.93196 23.1863 9.76165 23.1647 9.58703C23.1432 9.4124 23.1647 9.26149 23.1432 9.09764C23.0914 8.74408 23.0354 8.38837 22.9642 8.03696C22.8123 7.36093 22.5524 6.71379 22.1946 6.1204C21.852 5.5138 21.4443 4.94634 20.9787 4.42806C20.5346 3.94083 20.084 3.46223 19.6421 2.97285C19.6249 2.95346 19.6042 2.93762 19.5809 2.92626C19.5577 2.9149 19.5324 2.90823 19.5066 2.90663C19.4808 2.90503 19.4549 2.90853 19.4304 2.91693C19.4059 2.92533 19.3834 2.93847 19.364 2.9556C19.3446 2.97273 19.3287 2.9935 19.3174 3.01675C19.306 3.04 19.2993 3.06526 19.2977 3.09108C19.2961 3.11691 19.2996 3.1428 19.308 3.16727C19.3164 3.19174 19.3296 3.21431 19.3467 3.2337Z" fill="#50735F"/>
<path d="M2.92556 5.715C2.88891 6.79293 3.00533 7.8493 3.01826 8.9186C3.01826 9.47913 2.98377 10.0397 3.00317 10.6023C3.01395 10.8783 3.02904 11.1564 3.03336 11.4345C3.03767 11.7126 3.00964 12.0015 3.0161 12.2968C3.04155 12.8339 3.10495 13.3684 3.20582 13.8965C3.29637 14.457 3.3287 15.0175 3.39338 15.5802C3.42356 15.8605 3.47746 16.1256 3.48177 16.4081C3.48608 16.6905 3.51842 16.9384 3.52058 17.2014C3.48932 17.7133 3.48932 18.2267 3.52058 18.7386C3.55938 19.021 3.54429 19.3185 3.60897 19.6009C3.65091 19.7306 3.68333 19.8632 3.70598 19.9976C3.71676 20.142 3.70598 20.2843 3.72754 20.4287C3.7491 20.5732 3.77712 20.7155 3.79222 20.8599C3.79472 20.9996 3.80914 21.1388 3.83534 21.276C3.90217 21.5174 4.02074 21.7072 3.96253 21.981C3.90432 22.2548 4.27513 22.3518 4.33549 22.1038V22.065C4.39585 21.8193 4.02289 21.6942 3.96253 21.9422V21.981L4.33549 22.1038C4.38887 21.8742 4.37919 21.6343 4.30747 21.4097C4.27944 21.3256 4.23201 21.2458 4.21261 21.1596C4.19176 21.0326 4.17951 20.9044 4.17596 20.7758C4.16302 20.6486 4.14146 20.5258 4.12206 20.3986C4.10266 20.2714 4.10697 20.1269 4.09835 19.9889C4.08326 19.7346 3.97115 19.5017 3.96037 19.2452C3.94959 18.9886 3.90432 18.7364 3.88923 18.482C3.87628 18.2249 3.87628 17.9673 3.88923 17.7102C3.90648 17.446 3.90648 17.181 3.88923 16.9168C3.86767 16.6474 3.88923 16.3779 3.85689 16.1084C3.82455 15.8389 3.77281 15.5608 3.7491 15.2849C3.72538 15.0089 3.69952 14.72 3.66718 14.4398C3.6025 13.8814 3.48177 13.3316 3.42572 12.7711C3.36966 12.2106 3.42572 11.6544 3.40631 11.096C3.38691 10.5377 3.3826 9.97714 3.40631 9.41446C3.4365 8.19209 3.27696 6.96972 3.32008 5.7495C3.31756 5.70021 3.29676 5.65362 3.26173 5.61885C3.2267 5.58408 3.17997 5.56362 3.13066 5.56147C3.08135 5.55931 3.03302 5.57561 2.99509 5.60719C2.95716 5.63877 2.93237 5.68337 2.92556 5.73225V5.715Z" fill="#50735F"/>
<path d="M6.62949 7.10572C6.59697 7.19837 6.57597 7.29467 6.56697 7.39245C6.56902 7.49842 6.55373 7.604 6.5217 7.70504C6.47007 7.93428 6.43548 8.16704 6.41822 8.40139C6.37725 8.64285 6.32552 8.87352 6.30827 9.11928C6.29103 9.36505 6.27162 9.64316 6.23928 9.90402C6.20695 10.1649 6.14874 10.4085 6.09269 10.6607C6.03663 10.913 6.04957 11.1372 5.99783 11.3722C5.89123 11.8696 5.81919 12.3739 5.78224 12.8813C5.77229 13.1317 5.74926 13.3814 5.71325 13.6294C5.67239 13.8636 5.65077 14.1008 5.64858 14.3386C5.64858 14.5909 5.61193 14.8431 5.59253 15.0932C5.57312 15.3433 5.56018 15.6127 5.52785 15.8714C5.46533 16.3845 5.39634 16.9041 5.31226 17.4129C5.22818 17.9217 5.20016 18.452 5.1247 18.9716C5.04062 19.5558 4.98889 20.1465 4.92637 20.7351C4.91343 20.8644 4.86816 20.9851 4.8466 21.1145C4.82504 21.2438 4.81641 21.3559 4.78839 21.4767C4.72156 21.7483 4.77114 22.035 4.70215 22.311C4.63317 22.5869 5.01475 22.6796 5.07727 22.4339C5.12992 22.1997 5.15596 21.9603 5.15489 21.7203C5.16691 21.6122 5.18562 21.5049 5.21093 21.3991C5.22257 21.2825 5.24056 21.1666 5.26483 21.052C5.31333 20.8098 5.34788 20.5651 5.36831 20.319C5.40712 20.0538 5.42652 19.7886 5.45024 19.5235C5.47395 19.2583 5.51923 18.9974 5.55372 18.7344C5.58821 18.4714 5.59468 18.2256 5.6227 17.9734C5.65073 17.7212 5.70678 17.4431 5.7499 17.1779C5.79302 16.9127 5.81242 16.6626 5.84907 16.4061C5.92237 15.8973 5.96333 15.3928 6.01291 14.8819C6.03663 14.6297 6.04095 14.3817 6.04526 14.1295C6.04957 13.8773 6.12286 13.6531 6.14873 13.4138C6.20263 12.9093 6.21772 12.4048 6.29965 11.9047C6.34061 11.6589 6.40959 11.4174 6.43331 11.1695C6.44624 11.0574 6.44624 10.941 6.46565 10.8289C6.48505 10.7168 6.52601 10.5702 6.55188 10.4408C6.60801 10.1558 6.64832 9.86794 6.67261 9.57848C6.68223 9.29982 6.70814 9.02196 6.75022 8.74632C6.77609 8.61482 6.80843 8.48762 6.82568 8.35396C6.82995 8.22031 6.84291 8.08709 6.86448 7.95513C6.90706 7.8319 6.94092 7.70583 6.96581 7.57785C6.96787 7.46677 6.9816 7.35621 7.00677 7.248C7.0736 7.00439 6.70064 6.8815 6.63165 7.12511L6.62949 7.10572Z" fill="#50735F"/>
<path d="M11.2839 9.03098C11.2889 9.27177 11.2745 9.51258 11.2407 9.75104C11.1886 9.97066 11.1223 10.1867 11.0424 10.3978C10.8893 10.8915 10.7449 11.3895 10.5961 11.8853C10.4603 12.3381 10.3396 12.7951 10.2016 13.2478C10.0636 13.7006 9.78985 14.1619 9.60875 14.6276C9.42766 15.0933 9.21423 15.4899 9.03098 15.947C8.94474 16.1626 8.8887 16.3782 8.80462 16.5808C8.72054 16.7835 8.58903 17.0249 8.49848 17.2577C8.3217 17.7148 8.13918 18.1711 7.9509 18.6267C7.75472 19.1032 7.59302 19.5968 7.37744 20.0647C7.16185 20.5325 6.96783 21.0391 6.71128 21.5069C6.59776 21.7472 6.49701 21.9933 6.40946 22.2442C6.36203 22.3542 6.35341 22.4771 6.2952 22.5827C6.22638 22.6814 6.1665 22.786 6.11626 22.8953C6.03218 23.1325 6.40514 23.2553 6.49138 23.0182C6.53628 22.9262 6.58893 22.8382 6.64876 22.7552C6.69104 22.661 6.72355 22.5628 6.74577 22.462C6.78027 22.3499 6.84063 22.2464 6.87728 22.1386C6.91206 22.0162 6.95603 21.8966 7.00879 21.7807C7.12089 21.5651 7.24162 21.3496 7.3451 21.134C7.44858 20.9184 7.52404 20.6899 7.62105 20.47C8.01989 19.5451 8.36698 18.5987 8.75935 17.6674C8.95337 17.2125 9.16465 16.7619 9.32418 16.2919C9.47293 15.8607 9.6993 15.4684 9.86745 15.0458C10.055 14.5737 10.2749 14.121 10.4732 13.6553C10.5603 13.426 10.6324 13.1912 10.6888 12.9525C10.7535 12.7153 10.8268 12.4825 10.9044 12.2475C11.0697 11.6913 11.2364 11.1358 11.4046 10.581C11.4757 10.3461 11.5706 10.1175 11.6202 9.87823C11.6683 9.60576 11.6885 9.3291 11.6805 9.05253C11.6805 8.8003 11.2882 8.77874 11.2882 9.03314L11.2839 9.03098Z" fill="#50735F"/>
<path d="M14.9642 9.66476C14.9522 9.86109 14.8994 10.0528 14.8089 10.2274C14.7141 10.4797 14.6386 10.7384 14.5546 10.9949C14.4875 11.2544 14.398 11.5076 14.2872 11.7516C14.1708 11.9672 14.0716 12.2001 13.9509 12.4286C13.8302 12.6571 13.703 12.9223 13.5887 13.1745C13.4745 13.4267 13.3882 13.6639 13.2718 13.901C13.1554 14.1382 13.0562 14.371 12.9226 14.5952C12.7889 14.8194 12.6423 15.0372 12.5086 15.2614C12.375 15.4856 12.2931 15.6925 12.1616 15.9081C12.03 16.1237 11.8942 16.3113 11.7864 16.5333C11.5458 16.9826 11.2802 17.418 10.9909 17.8376C10.7171 18.2688 10.4563 18.7129 10.1588 19.1311C10.0165 19.3273 9.83969 19.4933 9.71465 19.7003C9.6006 19.9324 9.47319 20.1577 9.33307 20.3751C9.24683 20.4893 9.19294 20.623 9.11748 20.7437C9.04203 20.8645 8.94932 20.9787 8.86524 21.0951C8.68631 21.3366 8.49012 21.5651 8.31119 21.8087C8.13225 22.0523 8.03092 22.3153 7.88001 22.559C7.71276 22.7859 7.57173 23.0311 7.45962 23.2898C7.37339 23.5291 7.74635 23.6498 7.83258 23.4127C7.93294 23.1837 8.05878 22.9667 8.20771 22.7659C8.34999 22.5503 8.44269 22.3067 8.5936 22.0911C8.90189 21.66 9.28995 21.2676 9.54219 20.7976C9.6586 20.582 9.80304 20.3794 9.91946 20.1509C10.0364 19.9186 10.1812 19.7014 10.3506 19.5041C10.6577 19.1017 10.9392 18.6805 11.1936 18.2429C11.4938 17.824 11.7702 17.3886 12.0214 16.9386C12.1254 16.7149 12.245 16.4988 12.3793 16.2919C12.5173 16.0763 12.6121 15.8607 12.735 15.6451C12.9894 15.1902 13.2869 14.7698 13.5133 14.2999C13.7396 13.8299 13.9444 13.3254 14.1838 12.8425C14.3196 12.5622 14.4468 12.2755 14.5955 12.0017C14.724 11.741 14.8279 11.4689 14.906 11.189C14.9987 10.9044 15.0849 10.6133 15.1884 10.3266C15.2929 10.1194 15.3525 9.89233 15.363 9.66044C15.3522 9.40821 14.9599 9.38666 14.9706 9.64105L14.9642 9.66476Z" fill="#50735F"/>
<path d="M17.7884 10.7858C17.7038 11.019 17.6029 11.2459 17.4866 11.4649C17.3809 11.6956 17.2559 11.9112 17.133 12.1354C17.0101 12.3596 16.8635 12.6032 16.7449 12.8446C16.6264 13.0861 16.5294 13.334 16.3914 13.569C16.1284 14.011 15.8955 14.4766 15.598 14.897C15.3005 15.3174 14.9815 15.6753 14.6947 16.0806C14.5402 16.2768 14.3962 16.4812 14.2635 16.6928C14.2053 16.7963 14.1665 16.9084 14.1105 17.0119C14.0484 17.1145 13.9762 17.2105 13.8949 17.2986C13.7331 17.5059 13.5827 17.7218 13.4443 17.9454C13.3258 18.1682 13.1949 18.3842 13.052 18.5922C12.901 18.784 12.7264 18.9544 12.5712 19.1419C12.416 19.3295 12.2974 19.5537 12.14 19.7456C11.8037 20.1616 11.5234 20.6251 11.2216 21.0671C11.047 21.3236 10.8702 21.5823 10.6891 21.8346C10.508 22.0868 10.3032 22.2657 10.1221 22.5029C9.94105 22.74 9.79661 22.9642 9.60905 23.1669C9.52713 23.2531 9.47107 23.3545 9.39346 23.4407C9.31124 23.5168 9.23485 23.5989 9.16494 23.6865C9.13786 23.7299 9.12884 23.7822 9.1398 23.8322C9.15077 23.8822 9.18084 23.926 9.22361 23.9541C9.26638 23.9823 9.31846 23.9926 9.36872 23.9828C9.41898 23.9731 9.46345 23.9441 9.49263 23.902C9.54651 23.8363 9.60563 23.775 9.66941 23.7188C9.74702 23.639 9.79877 23.542 9.87206 23.4601C10.0402 23.2725 10.189 23.0656 10.342 22.8651C10.4951 22.6646 10.6784 22.4641 10.8508 22.2658C11.0161 22.0581 11.1708 21.8422 11.3143 21.619C11.6334 21.1598 11.9395 20.692 12.2564 20.2306C12.3987 20.015 12.5626 19.8404 12.6876 19.6248C12.8333 19.4121 12.997 19.2123 13.177 19.0276C13.5112 18.6547 13.7181 18.2084 14.007 17.8031C14.1639 17.6169 14.3079 17.4203 14.4382 17.2146C14.5465 16.9871 14.6704 16.7674 14.809 16.557C15.1043 16.1474 15.3997 15.7378 15.7252 15.3498C16.0334 14.9427 16.306 14.5099 16.5401 14.0562C16.8376 13.5345 17.0899 12.9934 17.3766 12.4652C17.5167 12.2087 17.6677 11.9607 17.7884 11.6956C17.9222 11.4418 18.0395 11.1797 18.1398 10.9108C18.2109 10.6672 17.838 10.5443 17.7647 10.788L17.7884 10.7858Z" fill="#50735F"/>
<path d="M21.1063 12.1611C20.9814 12.3968 20.8417 12.6243 20.6881 12.8424C20.5522 13.058 20.3927 13.2736 20.2397 13.4892C20.0866 13.7047 19.912 13.9203 19.7675 14.1488C19.6231 14.3774 19.5045 14.58 19.3363 14.7956C19.0043 15.2268 18.7025 15.6924 18.3296 16.0891C18.1571 16.2702 17.9738 16.4492 17.7928 16.6195C17.6117 16.7898 17.4457 16.986 17.271 17.1714C17.0896 17.3541 16.9204 17.5486 16.7644 17.7534C16.704 17.8375 16.6588 17.9302 16.6006 18.0165C16.5235 18.1186 16.4376 18.2138 16.344 18.301C16.15 18.4967 15.9665 18.7025 15.7943 18.9176C15.6462 19.1272 15.4833 19.3261 15.307 19.5126C15.1087 19.7002 14.8931 19.864 14.7034 20.0602C14.5137 20.2564 14.3822 20.4332 14.2032 20.6056C13.8087 20.9915 13.4681 21.44 13.1038 21.856C12.8882 22.091 12.692 22.3368 12.457 22.5589C12.222 22.7809 12.0258 22.9232 11.8404 23.1258C11.655 23.3285 11.4243 23.557 11.2066 23.7511C11.1182 23.833 11.0449 23.93 10.9544 24.0119C10.8459 24.1035 10.7449 24.2037 10.6525 24.3116C10.4909 24.5078 10.8185 24.7233 10.9802 24.5272C11.0586 24.4402 11.1437 24.3594 11.2346 24.2857C11.3187 24.2102 11.3855 24.1197 11.4675 24.0442C11.6615 23.861 11.8512 23.6777 12.0366 23.4859C12.222 23.294 12.4031 23.1388 12.5928 22.9685C12.7947 22.7777 12.9855 22.5754 13.1641 22.3627C13.5479 21.9315 13.9187 21.5003 14.3024 21.0692C14.4641 20.8859 14.6538 20.7307 14.8047 20.5388C14.9735 20.338 15.1612 20.154 15.3653 19.9891C15.5696 19.8224 15.7534 19.6321 15.9128 19.4221C16.0779 19.1905 16.2572 18.9695 16.4496 18.7602C16.6356 18.5884 16.8072 18.4016 16.9627 18.2019C17.0934 17.9868 17.2443 17.7847 17.4133 17.5982C17.7626 17.2296 18.101 16.8566 18.4718 16.5203C18.8396 16.1407 19.1743 15.7303 19.4722 15.2936C19.8365 14.8085 20.1556 14.2976 20.5091 13.8061C20.6816 13.5603 20.8713 13.3275 21.0265 13.0709C21.1978 12.8222 21.3533 12.563 21.4922 12.2948C21.5957 12.0641 21.2206 11.9434 21.1171 12.1719L21.1063 12.1611Z" fill="#50735F"/>
</svg>
