<svg width="75" height="63" viewBox="0 0 75 63" fill="none" xmlns="http://www.w3.org/2000/svg">
<path d="M40.1102 17.4359C38.3827 17.7787 37.4929 18.7259 37.328 20.3675C37.137 22.7028 41.7035 23.512 43.108 21.3715C43.8855 20.1866 43.7491 19.3316 42.5371 17.9895C41.8748 17.2815 41.3244 17.139 40.1102 17.4359ZM42.359 20.0598C42.5813 22.1742 38.9643 22.5348 38.5418 20.3984C38.3303 19.4941 38.4306 19.3412 39.6076 18.8559C41.0101 18.1904 42.2232 18.7131 42.359 20.0598Z" fill="#50735F"/>
<path d="M23.6121 21.2543C22.6399 21.692 22.4473 21.9053 22.4218 22.9076C22.394 23.5121 22.624 24.2858 22.9295 24.5429C23.5732 25.2484 25.6414 24.9071 26.2387 23.9968C27.3294 22.3347 25.4678 20.4338 23.6121 21.2543ZM25.1337 23.2718C24.7961 23.7862 24.3565 23.8941 23.8777 23.5799C23.0673 23.0481 23.4955 21.9138 24.4768 22.1047C25.5468 22.2407 25.6531 22.4803 25.1337 23.2718Z" fill="#50735F"/>
<path d="M40.6426 36.1427C39.2136 36.4199 38.8305 37.0942 39.2431 38.6376C39.6257 40.0456 40.6716 40.4427 42.1053 39.7059C42.8886 39.2363 43.0328 38.926 42.7782 37.7755C42.4187 36.1512 42.0301 35.8383 40.6426 36.1427ZM41.6997 38.514C41.4874 38.8375 41.0525 38.9572 40.7204 38.7392C40.0147 38.2762 39.9296 37.4104 40.5685 37.2512C41.3851 37.0928 42.0977 37.9075 41.6997 38.514Z" fill="#50735F"/>
<path d="M8.20522 14.2497C8.94818 15.7901 12.9941 19.6644 12.9767 23.7898C10.8252 23.0487 10.0871 23.7529 9.62702 24.9318C8.41572 28.0622 12.7815 28.0871 13.5458 24.63C15.945 25.7589 16.5134 28.4578 16.2523 31.0794C16.2501 31.1148 16.2552 31.1503 16.2673 31.1836C16.2795 31.2169 16.2984 31.2474 16.3228 31.2731C16.3473 31.2988 16.3768 31.3191 16.4095 31.3329C16.4423 31.3466 16.4775 31.3534 16.5129 31.3529C16.5484 31.3524 16.5834 31.3446 16.6157 31.3299C16.648 31.3153 16.6769 31.2941 16.7006 31.2677C16.7244 31.2413 16.7424 31.2103 16.7536 31.1766C16.7647 31.143 16.7688 31.1073 16.7656 31.072C17.0639 28.1313 16.3178 25.2274 13.6174 24.0391C13.7703 21.6212 12.5288 19.3306 11.223 17.3868C10.6334 16.516 9.9954 15.695 9.3955 14.8643C9.18748 14.576 8.97217 14.033 8.69798 13.8276C8.2455 13.5027 7.9332 13.6874 8.20522 14.2497ZM12.9195 24.3731C12.438 26.8486 9.33298 27.5357 10.2121 25.1091C10.485 24.459 10.7845 23.6337 12.9195 24.3731Z" fill="#50735F"/>
<path d="M64.0074 51.5981C62.8439 50.343 61.423 49.7867 59.6754 49.4202C57.2542 48.9149 54.6256 49.126 52.6889 50.6992C50.1308 48.8599 46.5446 49.3829 45.4301 50.0253C44.4499 50.5947 45.1929 51.2049 45.4936 50.8318C46.0472 50.1451 49.7848 49.4344 52.2199 51.1218C50.3029 52.9752 51.4495 55.5536 52.7718 56.3212C53.7596 56.8947 55.9675 55.9781 54.6948 53.1206C54.3654 52.3914 53.8896 51.7379 53.2968 51.2006C56.0118 49.1256 61.681 49.5604 64.0978 52.9663C64.3047 53.2578 64.3104 53.4474 64.5739 53.4861C64.6747 53.5005 64.7771 53.4744 64.8587 53.4135C64.9403 53.3527 64.9945 53.2619 65.0094 53.1612C65.0649 52.8207 64.2388 51.8451 64.0074 51.5981ZM53.8809 55.648C52.8396 56.1153 51.9699 54.3832 51.9747 53.3561C52.0229 52.6735 52.3337 52.0361 52.8418 51.5777C53.9584 52.5723 55.2137 54.8379 53.8809 55.648Z" fill="#50735F"/>
</svg>
