<svg width="105" height="65" viewBox="0 0 105 65" fill="none" xmlns="http://www.w3.org/2000/svg">
<path d="M15.0166 44.0164L2.68644 36.8879C2.17856 36.5941 1.86572 36.0525 1.86572 35.4666V20.6296L15.0166 8.49355V44.0164Z" fill="#5F8A6C"/>
<path opacity="0.8" d="M25.5752 56.875C16.1053 55.2829 16.7003 44.7675 16.7073 44.6615L16.7069 44.522L15.5669 43.8631L27.7857 36.981C28.2294 36.7313 28.5039 36.2622 28.5039 35.7537V20.7929L15.4614 9.06749L16.3039 9.78038L16.9795 9.15681L30.4667 21.2934V35.8657C30.4667 36.6138 30.0628 37.3042 29.41 37.6722L17.2525 44.5258V44.6796C17.2501 44.7232 17.0941 47.2778 18.0617 49.9795C19.3461 53.5663 21.9049 55.7056 25.6657 56.3379L25.5752 56.875Z" fill="#C2C3C1"/>
<path d="M15.0049 44.0164V44.0095L15.0108 44.013L15.0049 44.0164ZM15.0166 44.0098V8.50445L15.4614 8.90419L15.1848 8.67001L15.0166 8.85463V43.3816L15.5669 43.6998L15.0166 44.0098ZM15.0049 8.50445V8.49355L15.0108 8.499L15.0049 8.50445Z" fill="#5F8A6C"/>
<path d="M15.0108 44.0129L15.0049 44.0095V8.5044L15.0108 8.49896L15.0166 8.5044V44.0097L15.0108 44.0129Z" fill="#274730"/>
<path d="M15.5669 43.7L15.0166 43.3817V8.85474L15.1847 8.67013L15.4614 8.9043L28.5038 20.6298V35.5906C28.5038 36.099 28.2293 36.5681 27.7856 36.8178L15.5669 43.7Z" fill="#4A6B56"/>
<path opacity="0.8" d="M15.0165 8.49371L14.8313 8.29384L1.59277 20.5111V35.1198C1.59277 36.0178 2.07185 36.8474 2.8504 37.2976L15.0148 44.3303L27.5813 37.2462C28.3198 36.8298 28.7765 36.049 28.7765 35.2023V20.5089L15.0141 8.12501L14.8313 8.29384L15.0165 8.49371L14.8338 8.69631L28.2309 20.7512V35.2023C28.2309 35.8525 27.8801 36.4524 27.313 36.772L15.0182 43.7027L3.12379 36.8262C2.51388 36.4737 2.13836 35.8234 2.13836 35.1198V20.7491L15.2017 8.69358L15.0165 8.49371Z" fill="white"/>
<path opacity="0.8" d="M1.80762 20.7533L15.0157 26.9448L28.5604 20.7539L28.4468 20.5061L15.0172 26.6446L1.92355 20.5066L1.80762 20.7533Z" fill="white"/>
<path opacity="0.8" d="M14.7437 8.49366V44.0165H15.0165L14.7443 43.9982C14.7439 44.0037 14.7319 44.1835 14.7319 44.4966C14.733 45.5482 14.8632 48.1021 16.0369 50.595C17.2052 53.0868 19.4585 55.5186 23.6122 56.2119L23.7028 55.6747C19.7302 55.0018 17.657 52.7387 16.5307 50.3631C15.4094 47.9881 15.2764 45.502 15.2775 44.4966C15.2775 44.3471 15.2803 44.2303 15.2831 44.1514C15.286 44.0726 15.2886 44.0348 15.2886 44.0346L15.2892 44.0256V26.7949V8.49366H14.7437Z" fill="white"/>
<path opacity="0.8" d="M19.2729 17.4361L14.9058 19.4833L15.0217 19.7295L19.3889 17.6823" fill="white"/>
<path opacity="0.8" d="M15.0259 35.092L9.14381 32.0973L9.02002 32.34L14.9018 35.3345" fill="white"/>
<path d="M38.072 29.0269C38.1977 28.9279 38.3232 28.9279 38.4489 29.0269L38.5378 29.1053L38.548 30.421L38.5573 31.7468L38.7361 31.7266C39.2905 31.6611 39.7826 31.6175 40.2116 31.598C40.4559 31.5851 40.6114 31.5946 40.6774 31.6277C40.7636 31.6673 40.8149 31.7301 40.8312 31.8157C40.8473 31.9013 40.8261 31.9833 40.767 32.0627C40.7464 32.089 40.6876 32.1109 40.5886 32.1265C40.4894 32.1433 40.2184 32.1685 39.7758 32.2009C39.1684 32.2541 38.789 32.2899 38.6369 32.3101L38.518 32.3302L38.5276 33.1998C38.5344 33.5957 38.5446 33.8594 38.5573 33.9914C38.571 34.1231 38.5942 34.2719 38.6267 34.436C38.7128 34.7993 38.8317 35.119 38.9839 35.3957C39.03 35.4813 39.1086 35.5983 39.2214 35.7461C39.3332 35.8945 39.4196 35.9958 39.4784 36.0484C39.598 36.1599 39.6305 36.2824 39.5775 36.4141C39.5314 36.5131 39.4357 36.5625 39.2905 36.5625C39.2248 36.5625 39.1417 36.5093 39.0427 36.4039C38.5805 35.9095 38.2701 35.3459 38.1113 34.7127C38.0121 34.3442 37.9636 33.8297 37.9636 33.1701V32.3991L37.6361 32.379C37.4116 32.366 37.263 32.3432 37.1902 32.3101C37.0978 32.2637 37.0397 32.1982 37.0168 32.1125C36.9936 32.0269 37.0152 31.9474 37.0817 31.875L37.2253 31.7966C37.2807 31.7894 37.4311 31.7966 37.6755 31.8157L37.9636 31.8453L37.9728 30.4704L37.9831 29.1053L38.072 29.0269Z" fill="white"/>
<path d="M42.2528 31.0241C42.2921 30.9647 42.3588 30.9351 42.4511 30.9351C42.6089 30.9351 42.7013 30.9981 42.7279 31.123C42.7416 31.2025 42.7775 31.5781 42.8373 32.2506C42.8636 32.501 42.8834 32.6331 42.8971 32.646L42.9313 32.6365L42.9757 32.5665C43.0817 32.356 43.2395 32.1319 43.4515 31.8951C43.8479 31.44 44.2342 31.1578 44.6101 31.0496C44.9871 30.9405 45.3108 31.0145 45.5819 31.2714C45.7398 31.4164 45.8406 31.5597 45.8833 31.702C45.926 31.8436 45.9014 31.9473 45.8092 32.0138C45.6314 32.1448 45.4588 32.0722 45.2937 31.7965C45.1888 31.6174 45.0562 31.5386 44.8982 31.5587C44.647 31.585 44.3565 31.7692 44.0257 32.1124C43.8343 32.3038 43.6695 32.5144 43.5311 32.7449C43.3592 33.0087 43.2395 33.3318 43.1739 33.7143C43.1079 34.0971 43.0817 34.6211 43.0943 35.2864L43.1045 36.0376L43.0157 36.1172C42.8971 36.2168 42.7713 36.2168 42.639 36.1172L42.5594 36.0186C42.5467 35.9852 42.5331 35.9128 42.5201 35.801C42.5064 35.6228 42.5006 35.372 42.5006 35.05C42.5006 34.5485 42.4408 33.7903 42.3219 32.7746C42.2426 32.0367 42.1999 31.5771 42.193 31.3953C42.1869 31.2138 42.2067 31.0906 42.2528 31.0241Z" fill="white"/>
<path d="M49.4554 31.2916C49.429 31.2585 49.3692 31.2417 49.2769 31.2417C49.0913 31.2417 48.8965 31.3543 48.6925 31.5781C48.5335 31.7429 48.377 31.9824 48.2215 32.2949C48.0669 32.6085 47.9559 32.8933 47.8899 33.1503C47.8568 33.283 47.8465 33.3554 47.8602 33.3686C47.8729 33.3816 47.9542 33.3649 48.1028 33.3189C48.2516 33.2724 48.3685 33.226 48.4549 33.18C48.5403 33.1342 48.6412 33.0585 48.7563 32.9527C48.8719 32.848 48.93 32.778 48.93 32.7449L48.9597 32.6862C48.9727 32.6862 49.0179 32.6201 49.093 32.4881C49.1692 32.356 49.2308 32.2411 49.2769 32.1421C49.3692 31.9438 49.4324 31.7641 49.4649 31.6023C49.4981 31.4416 49.4947 31.3379 49.4554 31.2916ZM49.118 30.6784C49.2308 30.6583 49.3658 30.6696 49.5247 30.7133C49.6826 30.7562 49.7981 30.8162 49.8716 30.8957C49.9236 30.9551 49.9673 31.0329 49.9998 31.1281C50.0329 31.2243 50.046 31.3543 50.0398 31.5184C50.0329 31.6835 50.0032 31.8381 49.9503 31.9831C49.911 32.109 49.845 32.2652 49.752 32.4532C49.6597 32.6409 49.5835 32.7841 49.5247 32.8838L49.47 32.9579L49.4153 33.0366L49.3862 33.081C49.3596 33.1342 49.2735 33.226 49.1282 33.3581C48.97 33.5231 48.7728 33.6604 48.5386 33.7685C48.3045 33.8777 48.0882 33.9319 47.8899 33.9319H47.7611L47.7413 34.0803C47.7218 34.166 47.7218 34.3273 47.7413 34.5641C47.7737 34.9073 47.8568 35.1598 47.9891 35.3215C48.1207 35.4829 48.312 35.573 48.5632 35.5931C49.0855 35.6334 49.6238 35.2342 50.1782 34.3966C50.3303 34.1728 50.4277 34.021 50.4704 33.9414C50.5131 33.8626 50.5644 33.7477 50.6243 33.5955C50.6704 33.4706 50.7148 33.386 50.7575 33.343C50.8003 33.3004 50.8652 33.2792 50.9506 33.2792C51.0303 33.2792 51.096 33.3072 51.1489 33.3631C51.2018 33.4191 51.2217 33.4873 51.2087 33.5659C51.1756 33.8295 50.9968 34.1984 50.6738 34.6733C50.5022 34.924 50.41 35.0557 50.3962 35.0691L50.3569 35.138C50.3569 35.1581 50.2637 35.2585 50.0791 35.4392C49.8945 35.6211 49.7588 35.7449 49.6734 35.8105C49.4348 35.9817 49.1675 36.0943 48.8709 36.1468C48.7119 36.1799 48.5506 36.1799 48.3855 36.1468C48.0157 36.068 47.7345 35.9094 47.543 35.6726C47.4901 35.6132 47.432 35.5109 47.3698 35.3659C47.3072 35.2209 47.2593 35.0892 47.2262 34.9705C47.1602 34.6995 47.1448 34.3591 47.1817 33.9466C47.2176 33.5344 47.2986 33.138 47.4244 32.7551C47.4774 32.5833 47.5577 32.3805 47.6671 32.1465C47.7754 31.9125 47.8704 31.7367 47.9491 31.6173C48.0284 31.5126 48.0687 31.4529 48.0687 31.44C48.0687 31.4198 48.1257 31.3509 48.2413 31.2322C48.3575 31.1135 48.4573 31.0206 48.5438 30.9551C48.6036 30.9029 48.6941 30.847 48.8162 30.7865C48.9385 30.7272 49.0394 30.6914 49.118 30.6784Z" fill="white"/>
<path d="M54.7648 31.2916C54.7385 31.2585 54.6787 31.2417 54.5864 31.2417C54.4009 31.2417 54.206 31.3543 54.002 31.5781C53.8431 31.7429 53.6865 31.9824 53.531 32.2949C53.3765 32.6085 53.2654 32.8933 53.1994 33.1503C53.1663 33.283 53.156 33.3554 53.1698 33.3686C53.1824 33.3816 53.2637 33.3649 53.4124 33.3189C53.561 33.2724 53.6779 33.226 53.7645 33.18C53.8499 33.1342 53.9507 33.0585 54.0659 32.9527C54.1814 32.848 54.2395 32.778 54.2395 32.7449L54.2693 32.6862C54.2822 32.6862 54.3274 32.6201 54.4025 32.4881C54.4788 32.356 54.5403 32.2411 54.5864 32.1421C54.6787 31.9438 54.7419 31.7641 54.7744 31.6023C54.8075 31.4416 54.8041 31.3379 54.7648 31.2916ZM54.4275 30.6784C54.5403 30.6583 54.6753 30.6696 54.8342 30.7133C54.9922 30.7562 55.1077 30.8162 55.1812 30.8957C55.2331 30.9551 55.2769 31.0329 55.3093 31.1281C55.3425 31.2243 55.3555 31.3543 55.3493 31.5184C55.3425 31.6835 55.3128 31.8381 55.2597 31.9831C55.2204 32.109 55.1545 32.2652 55.0616 32.4532C54.9692 32.6409 54.893 32.7841 54.8342 32.8838L54.7795 32.9579L54.7249 33.0366L54.6958 33.081C54.6691 33.1342 54.583 33.226 54.4378 33.3581C54.2795 33.5231 54.0823 33.6604 53.8482 33.7685C53.6141 33.8777 53.3977 33.9319 53.1994 33.9319H53.0706L53.0508 34.0803C53.0313 34.166 53.0313 34.3273 53.0508 34.5641C53.0832 34.9073 53.1663 35.1598 53.2986 35.3215C53.4302 35.4829 53.6216 35.573 53.8728 35.5931C54.3951 35.6334 54.9334 35.2342 55.4878 34.3966C55.6398 34.1728 55.7372 34.021 55.78 33.9414C55.8227 33.8626 55.874 33.7477 55.9337 33.5955C55.9799 33.4706 56.0244 33.386 56.0671 33.343C56.1098 33.3004 56.1747 33.2792 56.2602 33.2792C56.3398 33.2792 56.4054 33.3072 56.4585 33.3631C56.5114 33.4191 56.5313 33.4873 56.5182 33.5659C56.4851 33.8295 56.3063 34.1984 55.9833 34.6733C55.8118 34.924 55.7195 35.0557 55.7058 35.0691L55.6665 35.138C55.6665 35.1581 55.5732 35.2585 55.3886 35.4392C55.2041 35.6211 55.0684 35.7449 54.9829 35.8105C54.7444 35.9817 54.4771 36.0943 54.1804 36.1468C54.0215 36.1799 53.8601 36.1799 53.6951 36.1468C53.3252 36.068 53.0439 35.9094 52.8526 35.6726C52.7996 35.6132 52.7415 35.5109 52.6792 35.3659C52.6167 35.2209 52.5688 35.0892 52.5357 34.9705C52.4698 34.6995 52.4544 34.3591 52.4913 33.9466C52.5272 33.5344 52.6082 33.138 52.7339 32.7551C52.787 32.5833 52.8673 32.3805 52.9767 32.1465C53.085 31.9125 53.18 31.7367 53.2586 31.6173C53.3379 31.5126 53.3782 31.4529 53.3782 31.44C53.3782 31.4198 53.4353 31.3509 53.5508 31.2322C53.667 31.1135 53.7668 31.0206 53.8533 30.9551C53.9131 30.9029 54.0037 30.847 54.1257 30.7865C54.2481 30.7272 54.3489 30.6914 54.4275 30.6784Z" fill="white"/>
<path d="M58.1329 28.4638C58.2584 28.4112 58.3677 28.4375 58.46 28.5422C58.4925 28.5825 58.513 28.6514 58.5191 28.75C58.526 28.849 58.5294 29.1789 58.5294 29.7398C58.5294 30.4969 58.5096 31.1335 58.4696 31.648C58.4303 32.1424 58.4104 32.4518 58.4104 32.5773V32.7155L58.46 32.5869C58.5397 32.4089 58.6182 32.2413 58.6976 32.083C59.0079 31.4569 59.3121 31.0578 59.6094 30.8865C59.7085 30.8271 59.822 30.7957 59.9513 30.7923C60.0794 30.7886 60.1871 30.8142 60.2732 30.8664C60.4707 30.9923 60.5945 31.2386 60.6441 31.6081C60.6936 31.9772 60.6953 32.65 60.6491 33.6254C60.603 34.5678 60.6133 35.201 60.6792 35.5245C60.7117 35.6623 60.7288 35.7681 60.7288 35.8404C60.7288 35.9724 60.6611 36.0536 60.5254 36.0833C60.3904 36.112 60.2896 36.0683 60.2236 35.9496C60.1837 35.8834 60.1478 35.7715 60.1143 35.6135C60.035 35.2641 60.0316 34.4099 60.104 33.0526C60.157 31.9312 60.104 31.3713 59.9461 31.3713C59.9068 31.3713 59.8333 31.4235 59.7281 31.5292C59.6221 31.634 59.5366 31.7398 59.47 31.8455C59.2922 32.1284 59.1156 32.4944 58.9402 32.9435C58.7652 33.3914 58.6182 33.8466 58.4993 34.3078C58.42 34.6114 58.3695 34.8561 58.3465 35.0447C58.3226 35.2328 58.3113 35.4746 58.3113 35.7715C58.3113 36.141 58.2953 36.3515 58.2618 36.404L58.1626 36.5088L58.014 36.533C57.9347 36.533 57.8773 36.5132 57.8407 36.4737C57.8048 36.4344 57.7696 36.3645 57.7364 36.2659C57.7108 36.1802 57.6954 36.0369 57.692 35.8363C57.6886 35.6353 57.7005 35.4518 57.7269 35.2867C57.7467 35.1355 57.7662 34.664 57.786 33.8728C57.8123 33.0421 57.8424 32.3826 57.8755 31.8954C57.9217 31.3747 57.9518 30.6989 57.9644 29.8681C57.9781 29.0496 58.0013 28.6088 58.0338 28.5422L58.1329 28.4638Z" fill="white"/>
<path d="M64.2646 31.0542C64.1126 30.9887 63.9622 30.9781 63.8145 31.0241C63.6659 31.0705 63.5349 31.1668 63.4232 31.3107C63.172 31.6539 62.9771 32.1299 62.8387 32.7406C62.6993 33.3503 62.6599 33.9023 62.7191 34.3967C62.7653 34.7259 62.8677 34.9835 63.0267 35.1678C63.1846 35.3531 63.3862 35.4448 63.6306 35.4448C63.8152 35.4448 63.9854 35.3592 64.1409 35.1879C64.2965 35.0166 64.4236 34.772 64.5228 34.4561C64.6741 33.9678 64.739 33.3974 64.7159 32.745C64.6919 32.0924 64.5921 31.6277 64.4134 31.351L64.3836 31.193L64.3689 31.1186L64.2646 31.0542ZM63.8784 30.4312C64.0168 30.4111 64.1871 30.4356 64.3887 30.5056C64.5904 30.5745 64.7408 30.6618 64.8399 30.7676C64.9056 30.8399 64.9612 30.931 65.008 31.0392C65.0542 31.1483 65.0774 31.2452 65.0774 31.3309C65.0774 31.4304 65.0935 31.5256 65.127 31.6174C65.2063 31.8419 65.2569 32.1947 65.2798 32.6758C65.3031 33.1572 65.2849 33.566 65.2262 33.9023C65.1003 34.6874 64.8628 35.2602 64.5124 35.6229C64.1563 35.9852 63.7332 36.0944 63.2444 35.9494C62.9207 35.8637 62.6599 35.6638 62.4617 35.3513C62.2635 35.0377 62.1517 34.6533 62.125 34.1985C62.0987 33.7239 62.1347 33.2664 62.2337 32.8245C62.3329 32.3694 62.4918 31.8918 62.7095 31.3903C62.742 31.3107 62.8001 31.2111 62.8831 31.0889C62.9652 30.9668 63.0359 30.8734 63.0957 30.8068C63.3001 30.6024 63.5616 30.4775 63.8784 30.4312Z" fill="white"/>
<path d="M69.7933 30.4114L69.9516 30.352L70.1395 30.4072L70.2684 30.5304C70.3019 30.5959 70.3197 30.8323 70.3231 31.2377C70.3265 31.643 70.3145 32.0333 70.2882 32.4089C70.2489 32.8709 70.2291 33.4246 70.2291 34.0712L70.2188 35.0896L70.3088 35.4256C70.3607 35.617 70.3856 35.7532 70.3829 35.8364C70.3795 35.9183 70.3481 35.9794 70.2882 36.019C70.2028 36.0722 70.118 36.0834 70.0359 36.0537C69.9533 36.024 69.889 35.9558 69.8428 35.8511C69.7301 35.5733 69.6678 35.0957 69.6542 34.4171L69.6344 33.6351L69.5158 33.9525C69.4959 33.9985 69.4396 34.1401 69.3473 34.3775C69.3278 34.4502 69.2612 34.5918 69.1491 34.8019C69.0372 35.0135 68.9542 35.1619 68.9013 35.2476C68.8425 35.3332 68.7543 35.4389 68.6391 35.5638C68.5235 35.6893 68.4296 35.7788 68.3571 35.8309C68.1452 35.976 67.9306 36.0224 67.7129 35.9691C67.3563 35.8964 67.0983 35.6136 66.9404 35.1193C66.8669 34.8948 66.818 34.5342 66.7917 34.036C66.7651 33.5382 66.7685 33.0623 66.801 32.6071C66.8276 32.2711 66.8437 31.8422 66.8505 31.3215C66.8641 30.9521 66.8738 30.7293 66.8806 30.6532L66.9404 30.4812C66.9923 30.4212 67.0607 30.3922 67.1427 30.3922C67.2258 30.3922 67.2931 30.4246 67.3461 30.4908L67.4257 30.5798L67.4155 31.4001C67.4025 32.0142 67.382 32.5051 67.3563 32.8736C67.3232 33.4805 67.3376 34.0159 67.4008 34.4805C67.4633 34.9453 67.5573 35.237 67.6828 35.356C67.8479 35.4949 68.0656 35.3997 68.3366 35.0695C68.4955 34.8719 68.6722 34.5358 68.8671 34.0606C69.0619 33.5863 69.2345 33.0657 69.3865 32.4979C69.5387 31.9241 69.6309 31.5406 69.6644 31.3462C69.6976 31.152 69.7037 30.9889 69.6839 30.8569C69.6644 30.731 69.661 30.6396 69.6747 30.5798L69.7933 30.4114Z" fill="white"/>
<path d="M73.5375 30.5794C73.894 30.4608 74.2604 30.4645 74.6374 30.5894C75.1525 30.7675 75.4822 31.0967 75.6276 31.5781C75.6805 31.7562 75.6737 31.8845 75.6081 31.964C75.5157 32.0827 75.403 32.1056 75.2714 32.0329C75.2116 31.9998 75.1525 31.9046 75.0926 31.7467C74.9936 31.4826 74.822 31.2881 74.5776 31.1632L74.3793 31.0933C74.3264 31.0872 74.2279 31.0838 74.0826 31.0838C73.8707 31.0838 73.706 31.1135 73.587 31.1728C73.3957 31.2653 73.2565 31.3902 73.1711 31.5481C73.0846 31.7064 73.0617 31.8749 73.1017 32.053C73.1215 32.1448 73.1574 32.2209 73.2104 32.2803C73.3164 32.3928 73.5443 32.4846 73.894 32.557C74.1845 32.6163 74.4159 32.6862 74.5878 32.7651C74.7594 32.8446 74.921 32.9595 75.0732 33.1107C75.3968 33.4341 75.5585 33.8463 75.5585 34.3468C75.5585 34.6968 75.4788 35.0226 75.321 35.3267C75.2543 35.4516 75.2054 35.5389 75.1722 35.5876C75.1388 35.6374 75.0664 35.7186 74.9542 35.8305C74.65 36.1537 74.3133 36.3014 73.9436 36.2751C73.4486 36.2359 73.0258 35.9756 72.6755 35.4945C72.5901 35.3625 72.5473 35.288 72.5473 35.2717C72.5473 35.255 72.5234 35.2045 72.4773 35.1189C72.4045 34.9605 72.3651 34.7661 72.3583 34.5354C72.3515 34.3048 72.385 34.1134 72.4574 33.9616C72.4773 33.9224 72.5139 33.8391 72.5668 33.7142L72.695 33.5265L72.8539 33.428C73.0326 33.3815 73.1513 33.4174 73.2104 33.5361C73.2761 33.6548 73.26 33.7702 73.1608 33.8821C73.0351 34.0278 72.9564 34.2018 72.9233 34.4062C72.9164 34.4918 72.9284 34.6095 72.9582 34.7572C72.9872 34.9057 73.0258 35.0063 73.072 35.0595L73.1318 35.1581C73.1318 35.2107 73.2155 35.3031 73.3837 35.4348C73.5522 35.5668 73.6862 35.649 73.7853 35.6821C73.9436 35.7285 74.0775 35.7347 74.1862 35.7023C74.2956 35.6692 74.4159 35.5835 74.5485 35.4447C74.7132 35.2803 74.839 35.0657 74.9244 34.8016C75.0167 34.5259 75.0287 34.2567 74.9593 33.9963C74.8893 33.7354 74.7526 33.5327 74.5485 33.3878C74.4091 33.2891 74.1186 33.1868 73.6759 33.081C73.2736 32.9824 72.9855 32.848 72.8146 32.6757C72.7018 32.557 72.6259 32.4454 72.5867 32.3396C72.5473 32.2339 72.5268 32.0861 72.5268 31.8951C72.5268 31.7429 72.532 31.6409 72.5422 31.5883C72.5514 31.5351 72.5798 31.4628 72.6259 31.371C72.8044 30.9886 73.1079 30.7244 73.5375 30.5794Z" fill="white"/>
<path d="M79.2244 31.2916C79.1977 31.2585 79.138 31.2417 79.0457 31.2417C78.8604 31.2417 78.6656 31.3543 78.4612 31.5781C78.3023 31.7429 78.1461 31.9824 77.9906 32.2949C77.8357 32.6085 77.7246 32.8933 77.659 33.1503C77.6256 33.283 77.6153 33.3554 77.629 33.3686C77.6419 33.3816 77.723 33.3649 77.8716 33.3189C78.0203 33.2724 78.1375 33.226 78.2237 33.18C78.3091 33.1342 78.4099 33.0585 78.5255 32.9527C78.6406 32.848 78.6987 32.778 78.6987 32.7449L78.7288 32.6862C78.7415 32.6862 78.7869 32.6201 78.8621 32.4881C78.9381 32.356 78.9996 32.2411 79.0457 32.1421C79.138 31.9438 79.2012 31.7641 79.2337 31.6023C79.2671 31.4416 79.2637 31.3379 79.2244 31.2916ZM78.8868 30.6784C78.9996 30.6583 79.1346 30.6696 79.2935 30.7133C79.4518 30.7562 79.5669 30.8162 79.6404 30.8957C79.6927 30.9551 79.7361 31.0329 79.7686 31.1281C79.8021 31.2243 79.8147 31.3543 79.8089 31.5184C79.8021 31.6835 79.772 31.8381 79.719 31.9831C79.6797 32.109 79.6141 32.2652 79.5208 32.4532C79.4285 32.6409 79.3526 32.7841 79.2935 32.8838L79.2388 32.9579L79.1841 33.0366L79.155 33.081C79.1287 33.1342 79.0423 33.226 78.897 33.3581C78.7391 33.5231 78.5415 33.6604 78.3075 33.7685C78.0733 33.8777 77.8573 33.9319 77.659 33.9319H77.5299L77.5103 34.0803C77.4906 34.166 77.4906 34.3273 77.5103 34.5641C77.5428 34.9073 77.6256 35.1598 77.7581 35.3215C77.8897 35.4829 78.0812 35.573 78.3324 35.5931C78.8543 35.6334 79.3926 35.2342 79.9473 34.3966C80.0994 34.1728 80.1968 34.021 80.2396 33.9414C80.2823 33.8626 80.3336 33.7477 80.3933 33.5955C80.4395 33.4706 80.484 33.386 80.5267 33.343C80.5694 33.3004 80.6343 33.2792 80.7198 33.2792C80.799 33.2792 80.865 33.3072 80.918 33.3631C80.971 33.4191 80.9905 33.4873 80.9778 33.5659C80.9443 33.8295 80.7659 34.1984 80.4429 34.6733C80.271 34.924 80.1787 35.0557 80.165 35.0691L80.1258 35.138C80.1258 35.1581 80.0327 35.2585 79.8482 35.4392C79.6637 35.6211 79.5276 35.7449 79.4421 35.8105C79.204 35.9817 78.9363 36.0943 78.6399 36.1468C78.481 36.1799 78.3193 36.1799 78.1547 36.1468C77.7845 36.068 77.5035 35.9094 77.3122 35.6726C77.2591 35.6132 77.201 35.5109 77.1385 35.3659C77.0763 35.2209 77.0284 35.0892 76.995 34.9705C76.9294 34.6995 76.914 34.3591 76.9505 33.9466C76.9864 33.5344 77.0678 33.138 77.1932 32.7551C77.2462 32.5833 77.3265 32.3805 77.4359 32.1465C77.5446 31.9125 77.6392 31.7367 77.7178 31.6173C77.7974 31.5126 77.8375 31.4529 77.8375 31.44C77.8375 31.4198 77.8949 31.3509 78.01 31.2322C78.1262 31.1135 78.2264 31.0206 78.3125 30.9551C78.3724 30.9029 78.4629 30.847 78.5853 30.7865C78.7073 30.7272 78.8081 30.6914 78.8868 30.6784Z" fill="white"/>
</svg>
