<svg width="72" height="12" viewBox="0 0 72 12" fill="none" xmlns="http://www.w3.org/2000/svg">
<path d="M0.33 11H6.028V9.852H1.492V1.046H0.33V11ZM7.64445 11H13.8885V9.852H8.80645V6.282H12.3205V5.134H8.80645V2.194H13.8885V1.046H7.64445V11ZM17.4452 11H18.6072V2.194H21.3092V1.046H14.7992V2.194H17.4452V11ZM23.9363 1.158C23.8523 1.48467 23.745 1.83933 23.6143 2.222C23.4836 2.60467 23.339 2.98733 23.1803 3.37C23.031 3.74333 22.8816 4.098 22.7323 4.434H21.8223C21.8876 4.17267 21.953 3.89267 22.0183 3.594C22.093 3.29533 22.1583 2.99667 22.2143 2.698C22.2796 2.39 22.3356 2.09133 22.3823 1.802C22.4383 1.51267 22.485 1.24667 22.5223 1.004H23.8383L23.9363 1.158ZM27.5316 11.112H29.1836L30.7096 10.552L31.3816 9.782L31.7316 9.026V7.668L31.2836 6.59L30.2056 5.848L27.2516 5.036L26.5376 4.518L26.3556 4.21L26.2296 3.594L26.4396 2.866L26.9576 2.348L27.7976 2.082H28.9036L30.1636 2.418L30.9616 2.894L31.5916 1.914L30.6816 1.354L29.0576 0.933999H27.5876L26.2996 1.354L25.4036 2.292L25.0256 3.482L25.2216 4.63L25.6836 5.372L26.7336 6.114L29.5896 6.898L30.2476 7.276L30.5696 7.92V8.76L30.3736 9.166L30.0376 9.558L28.9876 9.964H27.7836L26.5236 9.586L25.9496 9.194L25.6836 8.858L24.8436 9.67L25.1656 10.062L26.0056 10.65L27.5316 11.112ZM37.9823 11H39.1443V6.856H42.5183L43.8063 6.212L44.4923 5.204L44.8703 3.832L44.4643 2.418L43.4283 1.382L42.1263 1.046H37.9823V11ZM39.1443 5.708V2.194H42.0003L42.8263 2.432L43.4283 3.034L43.6663 3.874L43.4283 4.7L43.0223 5.302L42.1823 5.708H39.1443ZM46.5546 11H52.2526V9.852H47.7166V1.046H46.5546V11ZM60.0365 11H61.2685L57.6425 1.046H56.7185L53.0925 11H54.3245L55.3605 8.018H59.0005L60.0365 11ZM55.7665 6.87L57.1805 2.796L58.5945 6.87H55.7665ZM64.1028 11H65.2508V5.988L68.4988 1.046H67.1268L64.6768 4.812L62.2268 1.046H60.8548L64.1028 5.988V11ZM70.9265 8.186H70.1285L69.7785 1.004H71.2765L70.9265 8.186ZM69.6525 10.244C69.6525 9.89867 69.7365 9.656 69.9045 9.516C70.0725 9.376 70.2779 9.306 70.5205 9.306C70.7539 9.306 70.9545 9.376 71.1225 9.516C71.2999 9.656 71.3885 9.89867 71.3885 10.244C71.3885 10.58 71.2999 10.8227 71.1225 10.972C70.9545 11.1213 70.7539 11.196 70.5205 11.196C70.2779 11.196 70.0725 11.1213 69.9045 10.972C69.7365 10.8227 69.6525 10.58 69.6525 10.244Z" fill="#50735F"/>
</svg>
