<svg width="52" height="37" viewBox="0 0 52 37" fill="none" xmlns="http://www.w3.org/2000/svg">
<path d="M18.8234 1.50557C14.6466 1.47369 10.1869 2.05557 6.79921 4.69395C5.04776 6.11617 3.67122 7.94564 2.78983 10.0225C2.28101 11.167 1.88717 12.3592 1.61412 13.5815C1.32318 14.8967 1.1239 16.2398 0.705424 17.5271C0.496695 18.0756 0.315796 18.6343 0.163406 19.201C0.0554799 19.6932 0.000696601 20.1956 0 20.6996C0.00699546 21.6372 0.196509 22.5645 0.557963 23.4296C1.3152 25.2789 2.67425 26.8253 4.14489 28.1524C7.43974 31.2106 11.4737 33.3587 15.8502 34.3857C18.1817 35.0074 20.5531 35.4578 22.9164 35.9799C24.2209 36.269 25.5475 36.4477 26.882 36.5139C28.249 36.5697 29.612 36.5338 30.9791 36.5338C32.3461 36.5338 33.6493 36.6096 34.9845 36.6255C36.2833 36.6484 37.5814 36.551 38.8623 36.3345C40.8332 36.0454 42.76 35.5098 44.5974 34.7404C46.3547 33.9607 47.8692 32.7216 48.9814 31.1534C49.6277 30.1717 50.1738 29.1276 50.6115 28.0368C51.1222 26.8967 51.5226 25.7102 51.8071 24.4937C52.0056 23.3088 52.0511 22.1033 51.9426 20.9068C51.9323 19.7607 51.8538 18.6161 51.7075 17.4793C51.2492 15.189 50.2534 13.0403 48.8021 11.2102C47.4028 9.369 45.7372 7.74637 43.8601 6.3957C41.8155 4.9171 39.4402 4.03232 37.0848 3.20733C35.8334 2.76893 34.6138 2.10339 33.2627 2.05158C32.5812 2.02368 31.8917 2.11931 31.2102 2.02366C30.5287 1.928 29.9269 1.77257 29.2932 1.62511C28.0296 1.31001 26.7439 1.09151 25.4472 0.971486C24.7697 0.927646 24.0882 0.943597 23.4106 0.931641C22.7331 0.919685 22.0078 0.883815 21.3143 0.931641C20.1187 1.03925 18.923 1.63707 17.7074 1.47765C17.3089 1.42584 17.3089 2.0635 17.7074 2.11531C18.9668 2.27872 20.1226 1.66097 21.3581 1.56532C22.0197 1.51749 22.6933 1.56532 23.3509 1.56532C24.0085 1.56532 24.678 1.56535 25.3436 1.60122C26.6003 1.70893 27.8464 1.91681 29.07 2.22293C29.6878 2.36242 30.3055 2.5059 30.9312 2.62148C31.6005 2.69911 32.2752 2.71912 32.9479 2.68127C34.287 2.68127 35.4507 3.307 36.6862 3.74541C37.842 4.14395 39.0018 4.54246 40.1297 5.04861C42.2737 5.99425 44.233 7.31261 45.9166 8.94242C47.6117 10.5059 49.0128 12.3606 50.0535 14.4185C50.5379 15.4062 50.8878 16.4544 51.0937 17.5351C51.2445 18.6421 51.3217 19.7578 51.3249 20.8749C51.4393 22.0293 51.4018 23.1937 51.2133 24.3383C50.931 25.5335 50.5305 26.6977 50.0176 27.8137C49.5894 28.8743 49.0553 29.8891 48.4235 30.8426C47.8896 31.6062 47.2448 32.2859 46.5104 32.8592C45.0089 33.9501 43.2999 34.7219 41.4887 35.127C40.5243 35.3741 39.5438 35.5614 38.5634 35.7328C37.309 35.9312 36.0388 36.0126 34.7692 35.9759C33.466 35.9759 32.1627 35.8842 30.8595 35.8882C29.5562 35.8922 28.1972 35.924 26.874 35.8882C24.411 35.7846 22.0038 35.1668 19.6005 34.6487C17.301 34.1942 15.0368 33.5762 12.8252 32.7994C11.7279 32.4004 10.6621 31.9194 9.63686 31.3607C8.73612 30.8503 7.86703 30.286 7.03435 29.6709C5.42736 28.5634 3.9711 27.2519 2.70215 25.7691C1.53839 24.3423 0.641661 22.6086 0.641661 20.7315C0.641537 20.247 0.69771 19.7642 0.80905 19.2927C0.944556 18.7228 1.17571 18.1847 1.35506 17.6268C1.7536 16.3873 1.94491 15.1 2.22389 13.8286C2.71303 11.5065 3.68827 9.31423 5.08546 7.39606C6.32294 5.74506 7.97207 4.44777 9.86803 3.6338C11.759 2.85445 13.7652 2.39125 15.8064 2.26277C16.8067 2.18306 17.7991 2.15517 18.8114 2.16314C18.896 2.16314 18.9771 2.12957 19.0369 2.06978C19.0967 2.00998 19.1303 1.92889 19.1303 1.84433C19.1303 1.75977 19.0967 1.67868 19.0369 1.61888C18.9771 1.55909 18.896 1.52547 18.8114 1.52547L18.8234 1.50557Z" fill="#50735F"/>
<path d="M15.2287 9.20549C15.2287 10.2616 15.1888 11.4015 15.7309 12.35C16.2729 13.2986 17.325 13.7449 18.3294 14.1196C19.525 14.5659 20.6649 15.1239 21.8326 15.6181C23.1319 16.1641 24.4152 16.8138 25.8181 17.0967C26.4558 17.2163 27.0974 17.296 27.7351 17.4235C28.3926 17.5558 29.0584 17.6424 29.7278 17.6826C30.4054 17.7224 31.0869 17.6826 31.7604 17.7224C32.3216 17.7888 32.8753 17.9076 33.4144 18.0771C34.1926 18.2918 35.007 18.342 35.8057 18.2246C36.5855 18.1068 37.3482 17.8954 38.0774 17.5949C39.5082 17.0051 41.3415 15.8453 40.9668 14.0319C40.8832 13.6333 40.2694 13.8007 40.3531 14.1993C40.6321 15.5583 39.0777 16.459 38.0495 16.9174C36.802 17.4713 35.3075 17.8579 33.9484 17.555C33.4144 17.4355 32.8963 17.2561 32.3542 17.1565C31.765 17.0808 31.1705 17.0528 30.5767 17.0728C29.9356 17.0689 29.2954 17.025 28.6597 16.9413C28.046 16.8536 27.4442 16.7181 26.8304 16.6185C26.2046 16.5337 25.5863 16.4004 24.9811 16.2199C24.3514 16.0206 23.7456 15.7177 23.1359 15.4627C21.9322 14.9578 20.7366 14.4384 19.5489 13.9044C18.5565 13.458 17.3011 13.2388 16.5519 12.3899C15.8026 11.541 15.8664 10.2616 15.8743 9.2015C15.8743 9.11694 15.8407 9.03584 15.7809 8.97605C15.7211 8.91626 15.6401 8.88269 15.5555 8.88269C15.4709 8.88269 15.3898 8.91626 15.33 8.97605C15.2703 9.03584 15.2367 9.11694 15.2367 9.2015L15.2287 9.20549Z" fill="#50735F"/>
<path d="M17.1018 13.3303C17.4281 13.4144 17.7734 13.382 18.0783 13.2387C18.3533 13.1111 18.5804 12.9039 18.8754 12.7843C19.6311 12.4829 20.4305 12.3053 21.2427 12.2582C22.9475 12.1201 24.6594 12.0895 26.368 12.1666C27.1955 12.1906 28.017 12.3137 28.8151 12.5332C29.6002 12.7754 30.3629 13.0848 31.0948 13.4579C32.1988 13.9999 33.3147 14.5379 34.3908 15.1278C35.0001 15.4433 35.5791 15.8142 36.1205 16.2357C36.5705 16.5306 36.9097 16.9666 37.085 17.4752C37.1766 17.8738 37.7904 17.7063 37.7027 17.3038C37.4596 16.2357 36.2799 15.5024 35.4111 14.9763C34.3788 14.3506 33.2749 13.8445 32.1988 13.2984C30.7003 12.5372 29.1778 11.8159 27.488 11.6126C25.7291 11.4558 23.9603 11.4425 22.1992 11.5728C21.2586 11.5853 20.3226 11.7056 19.4094 11.9314C18.9964 12.0292 18.6002 12.1877 18.2337 12.4017C18.1059 12.5217 17.9532 12.6121 17.7865 12.6665C17.6198 12.7209 17.4432 12.738 17.2692 12.7166C16.8707 12.6289 16.6993 13.2426 17.1018 13.3303Z" fill="#50735F"/>
<path d="M1.58647 12.7445C1.62237 13.0593 1.71988 13.364 1.87343 13.6412C2.05487 13.9258 2.22116 14.2198 2.37161 14.522C2.50712 14.8528 2.56291 15.2075 2.6745 15.5423C2.7861 15.8771 2.88972 16.2238 3.00929 16.5586C3.36798 17.5828 4.02558 18.7386 5.18934 18.9498C6.06215 19.1093 6.91106 18.7386 7.70018 18.4118C8.42155 18.1049 9.29438 17.6785 10.0915 17.8977C11.0918 18.1687 11.5063 19.2328 11.5422 20.1734C11.586 21.3332 11.2991 22.477 11.2473 23.6328C11.2034 24.7009 11.4306 25.773 12.2994 26.4784C12.7237 26.7991 13.2094 27.029 13.7264 27.1538C14.2434 27.2786 14.7806 27.2956 15.3045 27.2038C16.4164 27.0364 17.2135 26.3389 18.0226 25.6096C18.3788 25.257 18.781 24.954 19.2182 24.7089C19.7162 24.4751 20.2806 24.4243 20.8124 24.5654C23.2037 25.1553 25.1366 28.1523 27.8149 27.0444C28.7634 26.6458 29.7279 25.8487 30.8159 26.1436C31.7804 26.3987 32.3663 27.3991 32.9999 28.0846C33.8324 28.9604 34.9106 29.5635 36.0927 29.8142C36.6966 29.931 37.311 29.9845 37.926 29.9737C38.6087 29.9911 39.2914 29.9363 39.9626 29.8102C41.2064 29.5103 42.3421 28.87 43.2426 27.961C43.6334 27.5873 43.9428 27.1368 44.1513 26.6378C44.3407 26.1275 44.4925 25.604 44.6056 25.0716C44.8552 23.8498 45.3845 22.7026 46.152 21.7198C46.4954 21.2584 46.9839 20.9258 47.5389 20.7752C48.0969 20.6716 48.6748 20.7752 49.2368 20.7314C49.51 20.7251 49.7789 20.6616 50.026 20.5449C50.2732 20.4282 50.4931 20.2609 50.6715 20.0538C50.9266 19.739 50.4802 19.2846 50.2212 19.6035C49.8505 20.0658 49.3204 20.1096 48.7625 20.1056C48.211 20.0553 47.6549 20.0957 47.1165 20.2252C45.9766 20.5999 45.1795 21.8194 44.7013 22.8476C44.448 23.3879 44.2426 23.9494 44.0875 24.5256C43.944 25.0596 43.8404 25.6056 43.6651 26.1197C43.2944 27.2397 42.3339 28.0168 41.3455 28.5907C40.2336 29.2324 39.014 29.344 37.7586 29.328C37.1626 29.3344 36.5681 29.2661 35.989 29.1248C35.3688 28.9527 34.7797 28.6837 34.2434 28.3277C33.3865 27.7777 32.8804 26.8371 32.1231 26.1755C31.7563 25.8331 31.3029 25.5975 30.8119 25.494C30.2592 25.412 29.6947 25.4808 29.1779 25.6933C28.2174 26.0679 27.3326 26.8371 26.2406 26.6418C24.9493 26.4107 23.8732 25.4223 22.7892 24.7607C21.7649 24.1429 20.5095 23.565 19.3059 23.9875C18.2936 24.3262 17.5881 25.1831 16.7831 25.8288C16.4008 26.1492 15.9527 26.3817 15.4706 26.5098C14.9885 26.6379 14.4842 26.6585 13.9932 26.5701C13.5029 26.5103 13.0422 26.3036 12.6716 25.9771C12.301 25.6506 12.0379 25.2196 11.9168 24.7407C11.6777 23.6686 11.9686 22.5049 12.0802 21.4328C12.1918 20.3607 12.2277 19.2049 11.594 18.3002C11.3436 17.9206 10.9914 17.6191 10.5776 17.4302C10.1639 17.2413 9.70541 17.1727 9.25452 17.2321C8.3817 17.3437 7.59656 17.7821 6.77954 18.081C6.05817 18.352 5.24115 18.5314 4.59151 17.9974C3.54732 17.1325 3.39587 15.63 2.99733 14.4343C2.79008 13.8524 2.28393 13.3622 2.20023 12.7405C2.14842 12.342 1.51075 12.342 1.56256 12.7405L1.58647 12.7445Z" fill="#50735F"/>
</svg>
