<svg width="106" height="40" viewBox="0 0 106 40" fill="none" xmlns="http://www.w3.org/2000/svg">
<path d="M45.4273 1.15159C43.9172 2.63549 43.6476 4.17435 44.5644 5.93305C45.9127 8.40622 51.0361 6.20784 51.0361 3.13012C51.0361 1.42638 50.335 0.656951 48.2317 0.107358C47.0992 -0.167439 46.452 0.0523982 45.4273 1.15159ZM49.4182 2.30573C51.0361 4.28427 47.6385 7.03223 45.8048 5.16362C44.9959 4.39419 44.9959 4.17435 45.8588 2.91028C46.8295 1.31646 48.3935 1.04167 49.4182 2.30573Z" fill="#50735F"/>
<path d="M33.5874 22.213C32.8989 23.2941 32.8459 23.6355 33.4815 24.6598C33.8522 25.2857 34.5937 25.9117 35.0703 25.9686C36.1825 26.2531 38.0361 24.546 38.0361 23.2372C38.0361 20.8473 34.9114 20.1644 33.5874 22.213ZM36.4473 23.2372C36.4473 23.977 36.0766 24.3753 35.3881 24.3753C34.2229 24.3753 33.9052 22.9527 35.0173 22.4975C36.1825 21.9284 36.4473 22.0992 36.4473 23.2372Z" fill="#50735F"/>
<path d="M67.9271 12.8679C66.6736 14.089 66.7333 15.0193 68.1659 16.2985C69.4791 17.4614 70.7923 17.1707 71.7473 15.4845C72.2248 14.496 72.1652 14.089 71.1504 13.1005C69.7178 11.705 69.1209 11.6469 67.9271 12.8679ZM70.5535 14.5541C70.5535 15.0193 70.1954 15.4263 69.7178 15.4263C68.7031 15.4263 68.0465 14.6123 68.5837 14.0308C69.3 13.3331 70.5535 13.682 70.5535 14.5541Z" fill="#50735F"/>
<path d="M0.660556 30.4977C2.7068 30.6971 9.2138 28.9626 13.4398 31.5582C11.3344 33.3048 11.5964 34.5028 12.5198 35.712C14.9778 38.912 17.7313 34.4437 14.6583 31.4987C17.3168 29.7401 20.4438 30.8427 22.9731 32.7488C23.0081 32.7732 23.0477 32.7902 23.0895 32.7985C23.1314 32.8069 23.1745 32.8065 23.2161 32.7974C23.2578 32.7884 23.2972 32.7708 23.3317 32.7458C23.3663 32.7207 23.3953 32.6889 23.4169 32.6521C23.4386 32.6154 23.4524 32.5745 23.4575 32.5322C23.4626 32.4898 23.4589 32.4469 23.4466 32.4061C23.4344 32.3652 23.4138 32.3273 23.3862 32.2948C23.3586 32.2623 23.3246 32.2358 23.2863 32.2171C20.4525 30.0733 17.004 29.0251 14.0963 31.0559C11.7085 29.3881 8.58025 29.232 5.76805 29.3586C4.50531 29.4199 3.26348 29.5622 2.03555 29.6593C1.60949 29.6928 0.917228 29.5746 0.534925 29.7278C-0.0814263 29.9896 -0.0868732 30.4257 0.660556 30.4977ZM14.0032 31.9814C16.2447 34.0227 15.0102 37.6409 13.0674 35.2219C12.5702 34.5354 11.9097 33.7121 14.0032 31.9814Z" fill="#50735F"/>
<path d="M102.97 15.8782C100.973 15.384 99.1776 15.762 97.1794 16.5463C94.4126 17.6352 91.9098 19.581 91.0009 22.4396C87.2167 22.278 83.9571 25.1689 83.2606 26.5496C82.6509 27.7684 83.8002 27.8917 83.8564 27.3183C83.9599 26.2631 87.2477 23.0837 90.8081 23.1736C90.1037 26.3008 92.9567 28.1361 94.792 28.0355C96.1631 27.9604 97.7778 25.583 94.6139 23.5503C93.802 23.0347 92.8927 22.6917 91.9425 22.5426C93.3028 18.6664 99.2876 15.3644 103.963 17.1937C104.363 17.3502 104.494 17.537 104.784 17.4021C104.895 17.3501 104.981 17.2564 105.023 17.1414C105.065 17.0263 105.059 16.8994 105.008 16.7883C104.839 16.4095 103.365 15.9738 102.97 15.8782ZM95.4628 26.6274C94.7243 27.7838 92.7079 26.6166 92.0353 25.581C91.6335 24.8632 91.5255 24.0176 91.7339 23.2217C93.5122 23.4849 96.2681 24.9342 95.4628 26.6274Z" fill="#50735F"/>
</svg>
