<svg width="34" height="17" viewBox="0 0 34 17" fill="none" xmlns="http://www.w3.org/2000/svg">
<path d="M10.768 6.92812C13.9253 6.33078 17.104 5.26412 20.304 3.72812C20.3467 3.72812 20.4533 3.72812 20.624 3.72812C20.8373 3.72812 20.9867 3.77078 21.072 3.85612C21.0293 4.06945 21.0933 4.36812 21.264 4.75212C21.0507 4.88012 20.7733 5.05078 20.432 5.26412C20.0907 5.47745 19.7707 5.66945 19.472 5.84012C19.1733 6.01078 18.8747 6.16012 18.576 6.28812C18.5333 6.20278 18.512 6.13878 18.512 6.09612C18.512 6.01078 18.512 5.92545 18.512 5.84012C18.3413 6.13878 18.192 6.13878 18.064 5.84012C17.9787 5.88278 17.9147 5.96812 17.872 6.09612C17.8293 6.18145 17.7867 6.24545 17.744 6.28812L17.808 6.35212L17.872 6.41612C18 6.50145 18.064 6.41612 18.064 6.16012C18.2347 6.28812 18.2987 6.37345 18.256 6.41612C18.2133 6.45878 18.1067 6.54412 17.936 6.67212C17.7653 6.75745 17.68 6.84278 17.68 6.92812C17.5947 6.92812 17.5307 6.88545 17.488 6.80012C17.4453 6.71478 17.3813 6.69345 17.296 6.73612C17.168 6.77878 17.104 6.88545 17.104 7.05612C17.1467 7.22678 17.1467 7.33345 17.104 7.37612C17.0187 7.41878 16.976 7.37612 16.976 7.24812C16.9333 7.03478 16.9547 6.92812 17.04 6.92812C16.912 6.97078 16.7627 7.07745 16.592 7.24812C16.4213 7.41878 16.2933 7.52545 16.208 7.56812C16.1227 7.61078 16.0587 7.58945 16.016 7.50412C15.9733 7.41878 15.9307 7.37612 15.888 7.37612C15.8027 7.37612 15.76 7.50412 15.76 7.76012C15.6747 7.80278 15.6107 7.76012 15.568 7.63212C15.568 7.50412 15.5467 7.44012 15.504 7.44012C15.4613 7.44012 15.376 7.48278 15.248 7.56812C15.12 7.65345 15.0347 7.63212 14.992 7.50412C14.9067 7.54678 14.9067 7.61078 14.992 7.69612C15.0773 7.78145 15.12 7.84545 15.12 7.88812C15.0347 7.84545 14.9067 7.84545 14.736 7.88812C14.5653 7.88812 14.416 7.84545 14.288 7.76012C14.288 7.88812 14.352 7.95212 14.48 7.95212C14.608 7.95212 14.672 8.01612 14.672 8.14412H14.16V7.82412C13.904 7.86678 13.6693 7.88812 13.456 7.88812C13.4133 8.10145 13.3067 8.12278 13.136 7.95212C13.0933 7.99478 13.0933 8.05878 13.136 8.14412C13.2213 8.22945 13.2427 8.33612 13.2 8.46412C13.072 8.50678 12.6027 8.59212 11.792 8.72012C11.024 8.80545 10.4053 8.95478 9.936 9.16812C9.50933 9.38145 9.296 9.72278 9.296 10.1921C9.08267 10.4908 8.74133 11.0028 8.272 11.7281C7.80267 12.4535 7.41867 13.0081 7.12 13.3921C6.864 13.7761 6.43733 14.1601 5.84 14.5441C5.24267 14.8855 4.58133 15.0561 3.856 15.0561C2.53333 14.7575 1.63733 13.9681 1.168 12.6881C0.656 11.3655 0.592 9.97878 0.976 8.52812C1.31733 7.07745 1.936 5.98945 2.832 5.26412C2.832 4.79478 2.81067 4.51745 2.768 4.43212C2.896 2.98145 3.49333 2.00012 4.56 1.48812C5.66933 0.93345 6.82133 0.848117 8.016 1.23212C9.25333 1.61612 10.2133 2.27745 10.896 3.21612C11.4933 4.45345 11.4507 5.69078 10.768 6.92812ZM8.144 2.44812C7.97333 2.57612 7.65333 2.76812 7.184 3.02412C6.75733 3.28012 6.416 3.49345 6.16 3.66412C5.94667 3.83478 5.75467 4.09078 5.584 4.43212C5.41333 4.77345 5.392 5.17878 5.52 5.64812C4.96533 6.11745 4.688 6.54412 4.688 6.92812C5.54133 7.39745 6.65067 7.54678 8.016 7.37612C8.05867 7.29078 8.12267 7.09878 8.208 6.80012C8.336 6.50145 8.42133 6.28812 8.464 6.16012C8.54933 5.98945 8.63467 5.75478 8.72 5.45612C8.80533 5.15745 8.848 4.92278 8.848 4.75212C8.89067 4.58145 8.912 4.38945 8.912 4.17612C8.912 3.92012 8.89067 3.70678 8.848 3.53612C8.80533 3.32278 8.72 3.13078 8.592 2.96012C8.464 2.74678 8.31467 2.57612 8.144 2.44812ZM17.488 6.35212C17.4453 6.26678 17.4667 6.20278 17.552 6.16012C17.5947 6.07478 17.616 6.01078 17.616 5.96812C17.4027 5.92545 17.296 5.98945 17.296 6.16012C17.296 6.28812 17.36 6.35212 17.488 6.35212ZM17.04 6.60812C17.2533 6.60812 17.36 6.54412 17.36 6.41612C17.3173 6.41612 17.2747 6.39478 17.232 6.35212C17.1893 6.30945 17.1467 6.28812 17.104 6.28812C17.104 6.33078 17.0827 6.37345 17.04 6.41612C17.04 6.45878 17.04 6.52278 17.04 6.60812ZM16.592 6.54412H16.848C16.848 6.41612 16.7627 6.35212 16.592 6.35212V6.54412ZM14.736 6.99212C14.864 6.94945 15.1413 6.92812 15.568 6.92812C16.0373 6.92812 16.4 6.86412 16.656 6.73612L15.376 6.54412C15.376 6.67212 15.3333 6.75745 15.248 6.80012C15.1627 6.80012 15.056 6.82145 14.928 6.86412C14.8 6.86412 14.736 6.90678 14.736 6.99212ZM13.136 7.18412C13.1787 7.44012 13.3493 7.56812 13.648 7.56812C13.9467 7.52545 14.16 7.44012 14.288 7.31212C14.16 7.18412 13.968 7.14145 13.712 7.18412C13.456 7.22678 13.264 7.22678 13.136 7.18412ZM12.752 7.50412L12.816 7.56812H13.072C13.072 7.35478 12.9653 7.29078 12.752 7.37612V7.50412ZM12.048 7.69612L11.664 7.50412C11.6213 7.67478 11.664 7.78145 11.792 7.82412C11.9627 7.86678 12.048 7.82412 12.048 7.69612ZM3.664 7.76012C3.62133 7.84545 3.49333 8.14412 3.28 8.65612C3.06667 9.12545 2.91733 9.48812 2.832 9.74412C2.74667 9.95745 2.64 10.2988 2.512 10.7681C2.42667 11.1948 2.40533 11.6001 2.448 11.9841C2.49067 12.3681 2.59733 12.7521 2.768 13.1361C3.06667 13.0935 3.344 13.0295 3.6 12.9441C3.89867 12.8161 4.176 12.6668 4.432 12.4961C4.688 12.2828 4.88 12.1335 5.008 12.0481C5.17867 11.9201 5.37067 11.7068 5.584 11.4081C5.84 11.0668 5.98933 10.8535 6.032 10.7681C6.11733 10.6401 6.26667 10.3841 6.48 10.0001C6.736 9.57345 6.88533 9.33878 6.928 9.29612C6.11733 9.16812 5.02933 8.65612 3.664 7.76012ZM11.984 8.33612H11.6C11.8133 8.54945 11.9413 8.54945 11.984 8.33612ZM10.96 8.59212L10.896 8.52812C10.8533 8.48545 10.8107 8.48545 10.768 8.52812C10.7253 8.57078 10.7253 8.61345 10.768 8.65612C10.8533 8.65612 10.9173 8.63478 10.96 8.59212ZM12.752 7.50412C12.7947 7.50412 12.816 7.52545 12.816 7.56812C12.7733 7.56812 12.752 7.54678 12.752 7.50412ZM33.2155 1.68012C32.9168 1.46678 32.6182 1.29612 32.3195 1.16812C31.6368 1.46678 30.7408 2.04278 29.6315 2.89612C28.5222 3.74945 27.6688 4.28278 27.0715 4.49612C26.9435 5.13612 26.6448 5.52012 26.1755 5.64812C23.5302 9.36012 21.7382 12.1335 20.7995 13.9681C20.6288 15.3761 19.9248 16.3148 18.6875 16.7841C17.9622 16.4428 17.4715 15.8668 17.2155 15.0561C16.9168 14.2028 16.7888 13.4348 16.8315 12.7521C16.8742 12.0268 17.0235 11.0455 17.2795 9.80812C17.4928 8.52812 17.6208 7.71745 17.6635 7.37612C17.8768 6.94945 18.1115 6.13878 18.3675 4.94412C18.5808 3.74945 18.8155 2.93878 19.0715 2.51212C19.6262 2.64012 20.0528 2.85345 20.3515 3.15212C20.6502 3.40812 20.8208 3.79212 20.8635 4.30412C20.9062 4.77345 20.9062 5.15745 20.8635 5.45612C20.8635 5.75478 20.7995 6.24545 20.6715 6.92812C20.5435 7.61078 20.4582 8.03745 20.4155 8.20812C21.3115 6.84278 23.0395 4.83745 25.5995 2.19212C26.2822 1.63745 27.0715 1.14678 27.9675 0.720117C28.9062 0.29345 29.8875 0.122783 30.9115 0.208117C31.9782 0.250783 32.7462 0.74145 33.2155 1.68012ZM28.4795 1.23212C28.6502 1.27478 28.7995 1.25345 28.9275 1.16812C29.0555 1.04012 29.1622 0.99745 29.2475 1.04012C29.1622 0.86945 29.2262 0.784117 29.4395 0.784117C29.6955 0.74145 29.8235 0.656116 29.8235 0.528116C29.3115 0.656116 28.9702 0.698783 28.7995 0.656116C25.4715 2.61878 22.7195 5.60545 20.5435 9.61612C23.2315 5.73345 25.8768 2.93878 28.4795 1.23212ZM30.3355 1.16812C30.3355 1.25345 30.2928 1.33878 30.2075 1.42412C30.5915 1.33878 30.8048 1.21078 30.8475 1.04012C30.5915 1.12545 30.4208 1.16812 30.3355 1.16812ZM29.6955 1.74412C29.7808 1.74412 29.9302 1.63745 30.1435 1.42412C30.0155 1.33878 29.8875 1.33878 29.7595 1.42412C29.6315 1.46678 29.6102 1.57345 29.6955 1.74412ZM27.9035 2.70412C28.0742 2.70412 28.3088 2.57612 28.6075 2.32012C28.9488 2.06412 29.2048 1.93612 29.3755 1.93612C29.3755 1.89345 29.3968 1.80812 29.4395 1.68012C29.4395 1.63745 29.4395 1.61612 29.4395 1.61612C29.4395 1.57345 29.3968 1.55212 29.3115 1.55212C29.1835 1.72278 28.9488 1.93612 28.6075 2.19212C28.2662 2.40545 28.0315 2.57612 27.9035 2.70412ZM27.3915 3.21612C27.7328 3.00278 27.9035 2.85345 27.9035 2.76812C27.8608 2.81078 27.7755 2.85345 27.6475 2.89612C27.5195 2.93878 27.4342 2.98145 27.3915 3.02412C27.3488 3.06678 27.3488 3.13078 27.3915 3.21612ZM26.5595 4.30412C26.6022 4.26145 26.6875 4.17612 26.8155 4.04812C26.9862 3.87745 27.0715 3.72812 27.0715 3.60012H26.8795C26.8795 3.72812 26.7942 3.85612 26.6235 3.98412C26.4955 4.11212 26.4742 4.21878 26.5595 4.30412ZM25.9195 4.81612C25.9195 4.77345 25.9408 4.75212 25.9835 4.75212C25.9835 4.62412 25.9408 4.58145 25.8555 4.62412C25.8555 4.75212 25.8768 4.81612 25.9195 4.81612ZM28.4795 1.23212V1.16812V1.23212Z" fill="#C58A46"/>
</svg>
